<?xml version="1.0" encoding="utf-8" standalone="no"?>
<!DOCTYPE svg PUBLIC "-//W3C//DTD SVG 1.1//EN"
  "http://www.w3.org/Graphics/SVG/1.1/DTD/svg11.dtd">
<svg xmlns:xlink="http://www.w3.org/1999/xlink" width="460.8pt" height="345.6pt" viewBox="0 0 460.8 345.6" xmlns="http://www.w3.org/2000/svg" version="1.1">
 <metadata>
  <rdf:RDF xmlns:dc="http://purl.org/dc/elements/1.1/" xmlns:cc="http://creativecommons.org/ns#" xmlns:rdf="http://www.w3.org/1999/02/22-rdf-syntax-ns#">
   <cc:Work>
    <dc:type rdf:resource="http://purl.org/dc/dcmitype/StillImage"/>
    <dc:date>2026-04-19T12:06:08.982840</dc:date>
    <dc:format>image/svg+xml</dc:format>
    <dc:creator>
     <cc:Agent>
      <dc:title>Matplotlib v3.10.8, https://matplotlib.org/</dc:title>
     </cc:Agent>
    </dc:creator>
   </cc:Work>
  </rdf:RDF>
 </metadata>
 <defs>
  <style type="text/css">*{stroke-linejoin: round; stroke-linecap: butt}</style>
 </defs>
 <g id="figure_1">
  <g id="patch_1">
   <path d="M 0 345.6 
L 460.8 345.6 
L 460.8 0 
L 0 0 
z
" style="fill: #ffffff"/>
  </g>
  <g id="axes_1">
   <g id="patch_2">
    <path d="M 51.23 213.32 
L 450 213.32 
L 450 10.8 
L 51.23 10.8 
z
" style="fill: #ffffff"/>
   </g>
   <g id="patch_3">
    <path d="M 69.355909 213.32 
L 74.498011 213.32 
L 74.498011 20.44381 
L 69.355909 20.44381 
z
" clip-path="url(#p631d4ef438)" style="fill: #0000ff"/>
   </g>
   <g id="patch_4">
    <path d="M 88.638791 213.32 
L 93.780893 213.32 
L 93.780893 20.44381 
L 88.638791 20.44381 
z
" clip-path="url(#p631d4ef438)" style="fill: #0000ff"/>
   </g>
   <g id="patch_5">
    <path d="M 107.921673 213.32 
L 113.063775 213.32 
L 113.063775 26.230095 
L 107.921673 26.230095 
z
" clip-path="url(#p631d4ef438)" style="fill: #0000ff"/>
   </g>
   <g id="patch_6">
    <path d="M 127.204555 213.32 
L 132.346657 213.32 
L 132.346657 20.44381 
L 127.204555 20.44381 
z
" clip-path="url(#p631d4ef438)" style="fill: #0000ff"/>
   </g>
   <g id="patch_7">
    <path d="M 146.487437 213.32 
L 151.629539 213.32 
L 151.629539 122.66819 
L 146.487437 122.66819 
z
" clip-path="url(#p631d4ef438)" style="fill: #0000ff"/>
   </g>
   <g id="patch_8">
    <path d="M 165.770319 213.32 
L 170.912421 213.32 
L 170.912421 147.742095 
L 165.770319 147.742095 
z
" clip-path="url(#p631d4ef438)" style="fill: #0000ff"/>
   </g>
   <g id="patch_9">
    <path d="M 185.053201 213.32 
L 190.195303 213.32 
L 190.195303 22.372571 
L 185.053201 22.372571 
z
" clip-path="url(#p631d4ef438)" style="fill: #0000ff"/>
   </g>
   <g id="patch_10">
    <path d="M 204.336083 213.32 
L 209.478185 213.32 
L 209.478185 20.44381 
L 204.336083 20.44381 
z
" clip-path="url(#p631d4ef438)" style="fill: #0000ff"/>
   </g>
   <g id="patch_11">
    <path d="M 223.618965 213.32 
L 228.761067 213.32 
L 228.761067 20.44381 
L 223.618965 20.44381 
z
" clip-path="url(#p631d4ef438)" style="fill: #0000ff"/>
   </g>
   <g id="patch_12">
    <path d="M 242.901847 213.32 
L 248.043949 213.32 
L 248.043949 20.44381 
L 242.901847 20.44381 
z
" clip-path="url(#p631d4ef438)" style="fill: #0000ff"/>
   </g>
   <g id="patch_13">
    <path d="M 262.184729 213.32 
L 267.326831 213.32 
L 267.326831 20.44381 
L 262.184729 20.44381 
z
" clip-path="url(#p631d4ef438)" style="fill: #0000ff"/>
   </g>
   <g id="patch_14">
    <path d="M 281.467611 213.32 
L 286.609713 213.32 
L 286.609713 20.44381 
L 281.467611 20.44381 
z
" clip-path="url(#p631d4ef438)" style="fill: #0000ff"/>
   </g>
   <g id="patch_15">
    <path d="M 300.750493 213.32 
L 305.892595 213.32 
L 305.892595 20.44381 
L 300.750493 20.44381 
z
" clip-path="url(#p631d4ef438)" style="fill: #0000ff"/>
   </g>
   <g id="patch_16">
    <path d="M 320.033375 213.32 
L 325.175477 213.32 
L 325.175477 20.44381 
L 320.033375 20.44381 
z
" clip-path="url(#p631d4ef438)" style="fill: #0000ff"/>
   </g>
   <g id="patch_17">
    <path d="M 339.316257 213.32 
L 344.458359 213.32 
L 344.458359 20.44381 
L 339.316257 20.44381 
z
" clip-path="url(#p631d4ef438)" style="fill: #0000ff"/>
   </g>
   <g id="patch_18">
    <path d="M 358.599139 213.32 
L 363.741241 213.32 
L 363.741241 20.44381 
L 358.599139 20.44381 
z
" clip-path="url(#p631d4ef438)" style="fill: #0000ff"/>
   </g>
   <g id="patch_19">
    <path d="M 377.882021 213.32 
L 383.024123 213.32 
L 383.024123 20.44381 
L 377.882021 20.44381 
z
" clip-path="url(#p631d4ef438)" style="fill: #0000ff"/>
   </g>
   <g id="patch_20">
    <path d="M 397.164903 213.32 
L 402.307005 213.32 
L 402.307005 20.44381 
L 397.164903 20.44381 
z
" clip-path="url(#p631d4ef438)" style="fill: #0000ff"/>
   </g>
   <g id="patch_21">
    <path d="M 416.447785 213.32 
L 421.589887 213.32 
L 421.589887 20.44381 
L 416.447785 20.44381 
z
" clip-path="url(#p631d4ef438)" style="fill: #0000ff"/>
   </g>
   <g id="patch_22">
    <path d="M 74.498011 213.32 
L 79.640113 213.32 
L 79.640113 213.32 
L 74.498011 213.32 
z
" clip-path="url(#p631d4ef438)" style="fill: #008000"/>
   </g>
   <g id="patch_23">
    <path d="M 93.780893 213.32 
L 98.922995 213.32 
L 98.922995 213.32 
L 93.780893 213.32 
z
" clip-path="url(#p631d4ef438)" style="fill: #008000"/>
   </g>
   <g id="patch_24">
    <path d="M 113.063775 213.32 
L 118.205877 213.32 
L 118.205877 213.32 
L 113.063775 213.32 
z
" clip-path="url(#p631d4ef438)" style="fill: #008000"/>
   </g>
   <g id="patch_25">
    <path d="M 132.346657 213.32 
L 137.488759 213.32 
L 137.488759 213.32 
L 132.346657 213.32 
z
" clip-path="url(#p631d4ef438)" style="fill: #008000"/>
   </g>
   <g id="patch_26">
    <path d="M 151.629539 213.32 
L 156.771641 213.32 
L 156.771641 111.095619 
L 151.629539 111.095619 
z
" clip-path="url(#p631d4ef438)" style="fill: #008000"/>
   </g>
   <g id="patch_27">
    <path d="M 170.912421 213.32 
L 176.054523 213.32 
L 176.054523 111.095619 
L 170.912421 111.095619 
z
" clip-path="url(#p631d4ef438)" style="fill: #008000"/>
   </g>
   <g id="patch_28">
    <path d="M 190.195303 213.32 
L 195.337405 213.32 
L 195.337405 213.32 
L 190.195303 213.32 
z
" clip-path="url(#p631d4ef438)" style="fill: #008000"/>
   </g>
   <g id="patch_29">
    <path d="M 209.478185 213.32 
L 214.620287 213.32 
L 214.620287 213.32 
L 209.478185 213.32 
z
" clip-path="url(#p631d4ef438)" style="fill: #008000"/>
   </g>
   <g id="patch_30">
    <path d="M 228.761067 213.32 
L 233.903169 213.32 
L 233.903169 213.32 
L 228.761067 213.32 
z
" clip-path="url(#p631d4ef438)" style="fill: #008000"/>
   </g>
   <g id="patch_31">
    <path d="M 248.043949 213.32 
L 253.186051 213.32 
L 253.186051 213.32 
L 248.043949 213.32 
z
" clip-path="url(#p631d4ef438)" style="fill: #008000"/>
   </g>
   <g id="patch_32">
    <path d="M 267.326831 213.32 
L 272.468933 213.32 
L 272.468933 213.32 
L 267.326831 213.32 
z
" clip-path="url(#p631d4ef438)" style="fill: #008000"/>
   </g>
   <g id="patch_33">
    <path d="M 286.609713 213.32 
L 291.751815 213.32 
L 291.751815 213.32 
L 286.609713 213.32 
z
" clip-path="url(#p631d4ef438)" style="fill: #008000"/>
   </g>
   <g id="patch_34">
    <path d="M 305.892595 213.32 
L 311.034697 213.32 
L 311.034697 213.32 
L 305.892595 213.32 
z
" clip-path="url(#p631d4ef438)" style="fill: #008000"/>
   </g>
   <g id="patch_35">
    <path d="M 325.175477 213.32 
L 330.317579 213.32 
L 330.317579 213.32 
L 325.175477 213.32 
z
" clip-path="url(#p631d4ef438)" style="fill: #008000"/>
   </g>
   <g id="patch_36">
    <path d="M 344.458359 213.32 
L 349.600461 213.32 
L 349.600461 213.32 
L 344.458359 213.32 
z
" clip-path="url(#p631d4ef438)" style="fill: #008000"/>
   </g>
   <g id="patch_37">
    <path d="M 363.741241 213.32 
L 368.883343 213.32 
L 368.883343 213.32 
L 363.741241 213.32 
z
" clip-path="url(#p631d4ef438)" style="fill: #008000"/>
   </g>
   <g id="patch_38">
    <path d="M 383.024123 213.32 
L 388.166225 213.32 
L 388.166225 213.32 
L 383.024123 213.32 
z
" clip-path="url(#p631d4ef438)" style="fill: #008000"/>
   </g>
   <g id="patch_39">
    <path d="M 402.307005 213.32 
L 407.449107 213.32 
L 407.449107 213.32 
L 402.307005 213.32 
z
" clip-path="url(#p631d4ef438)" style="fill: #008000"/>
   </g>
   <g id="patch_40">
    <path d="M 421.589887 213.32 
L 426.731989 213.32 
L 426.731989 213.32 
L 421.589887 213.32 
z
" clip-path="url(#p631d4ef438)" style="fill: #008000"/>
   </g>
   <g id="patch_41">
    <path d="M 79.640113 213.32 
L 84.782215 213.32 
L 84.782215 213.32 
L 79.640113 213.32 
z
" clip-path="url(#p631d4ef438)" style="fill: #ff0000"/>
   </g>
   <g id="patch_42">
    <path d="M 98.922995 213.32 
L 104.065097 213.32 
L 104.065097 213.32 
L 98.922995 213.32 
z
" clip-path="url(#p631d4ef438)" style="fill: #ff0000"/>
   </g>
   <g id="patch_43">
    <path d="M 118.205877 213.32 
L 123.347979 213.32 
L 123.347979 207.533714 
L 118.205877 207.533714 
z
" clip-path="url(#p631d4ef438)" style="fill: #ff0000"/>
   </g>
   <g id="patch_44">
    <path d="M 137.488759 213.32 
L 142.630861 213.32 
L 142.630861 213.32 
L 137.488759 213.32 
z
" clip-path="url(#p631d4ef438)" style="fill: #ff0000"/>
   </g>
   <g id="patch_45">
    <path d="M 156.771641 213.32 
L 161.913743 213.32 
L 161.913743 213.32 
L 156.771641 213.32 
z
" clip-path="url(#p631d4ef438)" style="fill: #ff0000"/>
   </g>
   <g id="patch_46">
    <path d="M 176.054523 213.32 
L 181.196625 213.32 
L 181.196625 188.246095 
L 176.054523 188.246095 
z
" clip-path="url(#p631d4ef438)" style="fill: #ff0000"/>
   </g>
   <g id="patch_47">
    <path d="M 195.337405 213.32 
L 200.479507 213.32 
L 200.479507 211.391238 
L 195.337405 211.391238 
z
" clip-path="url(#p631d4ef438)" style="fill: #ff0000"/>
   </g>
   <g id="patch_48">
    <path d="M 214.620287 213.32 
L 219.762389 213.32 
L 219.762389 213.32 
L 214.620287 213.32 
z
" clip-path="url(#p631d4ef438)" style="fill: #ff0000"/>
   </g>
   <g id="patch_49">
    <path d="M 233.903169 213.32 
L 239.045271 213.32 
L 239.045271 213.32 
L 233.903169 213.32 
z
" clip-path="url(#p631d4ef438)" style="fill: #ff0000"/>
   </g>
   <g id="patch_50">
    <path d="M 253.186051 213.32 
L 258.328153 213.32 
L 258.328153 213.32 
L 253.186051 213.32 
z
" clip-path="url(#p631d4ef438)" style="fill: #ff0000"/>
   </g>
   <g id="patch_51">
    <path d="M 272.468933 213.32 
L 277.611035 213.32 
L 277.611035 213.32 
L 272.468933 213.32 
z
" clip-path="url(#p631d4ef438)" style="fill: #ff0000"/>
   </g>
   <g id="patch_52">
    <path d="M 291.751815 213.32 
L 296.893917 213.32 
L 296.893917 213.32 
L 291.751815 213.32 
z
" clip-path="url(#p631d4ef438)" style="fill: #ff0000"/>
   </g>
   <g id="patch_53">
    <path d="M 311.034697 213.32 
L 316.176799 213.32 
L 316.176799 213.32 
L 311.034697 213.32 
z
" clip-path="url(#p631d4ef438)" style="fill: #ff0000"/>
   </g>
   <g id="patch_54">
    <path d="M 330.317579 213.32 
L 335.459681 213.32 
L 335.459681 213.32 
L 330.317579 213.32 
z
" clip-path="url(#p631d4ef438)" style="fill: #ff0000"/>
   </g>
   <g id="patch_55">
    <path d="M 349.600461 213.32 
L 354.742563 213.32 
L 354.742563 213.32 
L 349.600461 213.32 
z
" clip-path="url(#p631d4ef438)" style="fill: #ff0000"/>
   </g>
   <g id="patch_56">
    <path d="M 368.883343 213.32 
L 374.025445 213.32 
L 374.025445 213.32 
L 368.883343 213.32 
z
" clip-path="url(#p631d4ef438)" style="fill: #ff0000"/>
   </g>
   <g id="patch_57">
    <path d="M 388.166225 213.32 
L 393.308327 213.32 
L 393.308327 213.32 
L 388.166225 213.32 
z
" clip-path="url(#p631d4ef438)" style="fill: #ff0000"/>
   </g>
   <g id="patch_58">
    <path d="M 407.449107 213.32 
L 412.591209 213.32 
L 412.591209 213.32 
L 407.449107 213.32 
z
" clip-path="url(#p631d4ef438)" style="fill: #ff0000"/>
   </g>
   <g id="patch_59">
    <path d="M 426.731989 213.32 
L 431.874091 213.32 
L 431.874091 213.32 
L 426.731989 213.32 
z
" clip-path="url(#p631d4ef438)" style="fill: #ff0000"/>
   </g>
   <g id="matplotlib.axis_1">
    <g id="xtick_1">
     <g id="line2d_1">
      <defs>
       <path id="m207cf4a066" d="M 0 0 
L 0 3.5 
" style="stroke: #000000; stroke-width: 0.8"/>
      </defs>
      <g>
       <use xlink:href="#m207cf4a066" x="77.069062" y="213.32" style="stroke: #000000; stroke-width: 0.8"/>
      </g>
     </g>
     <g id="text_1">
      <!-- fasterrcnn -->
      <g transform="translate(74.989374 271.246562) rotate(-90) scale(0.1 -0.1)">
       <defs>
        <path id="DejaVuSans-66" d="M 2375 4863 
L 2375 4384 
L 1825 4384 
Q 1516 4384 1395 4259 
Q 1275 4134 1275 3809 
L 1275 3500 
L 2222 3500 
L 2222 3053 
L 1275 3053 
L 1275 0 
L 697 0 
L 697 3053 
L 147 3053 
L 147 3500 
L 697 3500 
L 697 3744 
Q 697 4328 969 4595 
Q 1241 4863 1831 4863 
L 2375 4863 
z
" transform="scale(0.015625)"/>
        <path id="DejaVuSans-61" d="M 2194 1759 
Q 1497 1759 1228 1600 
Q 959 1441 959 1056 
Q 959 750 1161 570 
Q 1363 391 1709 391 
Q 2188 391 2477 730 
Q 2766 1069 2766 1631 
L 2766 1759 
L 2194 1759 
z
M 3341 1997 
L 3341 0 
L 2766 0 
L 2766 531 
Q 2569 213 2275 61 
Q 1981 -91 1556 -91 
Q 1019 -91 701 211 
Q 384 513 384 1019 
Q 384 1609 779 1909 
Q 1175 2209 1959 2209 
L 2766 2209 
L 2766 2266 
Q 2766 2663 2505 2880 
Q 2244 3097 1772 3097 
Q 1472 3097 1187 3025 
Q 903 2953 641 2809 
L 641 3341 
Q 956 3463 1253 3523 
Q 1550 3584 1831 3584 
Q 2591 3584 2966 3190 
Q 3341 2797 3341 1997 
z
" transform="scale(0.015625)"/>
        <path id="DejaVuSans-73" d="M 2834 3397 
L 2834 2853 
Q 2591 2978 2328 3040 
Q 2066 3103 1784 3103 
Q 1356 3103 1142 2972 
Q 928 2841 928 2578 
Q 928 2378 1081 2264 
Q 1234 2150 1697 2047 
L 1894 2003 
Q 2506 1872 2764 1633 
Q 3022 1394 3022 966 
Q 3022 478 2636 193 
Q 2250 -91 1575 -91 
Q 1294 -91 989 -36 
Q 684 19 347 128 
L 347 722 
Q 666 556 975 473 
Q 1284 391 1588 391 
Q 1994 391 2212 530 
Q 2431 669 2431 922 
Q 2431 1156 2273 1281 
Q 2116 1406 1581 1522 
L 1381 1569 
Q 847 1681 609 1914 
Q 372 2147 372 2553 
Q 372 3047 722 3315 
Q 1072 3584 1716 3584 
Q 2034 3584 2315 3537 
Q 2597 3491 2834 3397 
z
" transform="scale(0.015625)"/>
        <path id="DejaVuSans-74" d="M 1172 4494 
L 1172 3500 
L 2356 3500 
L 2356 3053 
L 1172 3053 
L 1172 1153 
Q 1172 725 1289 603 
Q 1406 481 1766 481 
L 2356 481 
L 2356 0 
L 1766 0 
Q 1100 0 847 248 
Q 594 497 594 1153 
L 594 3053 
L 172 3053 
L 172 3500 
L 594 3500 
L 594 4494 
L 1172 4494 
z
" transform="scale(0.015625)"/>
        <path id="DejaVuSans-65" d="M 3597 1894 
L 3597 1613 
L 953 1613 
Q 991 1019 1311 708 
Q 1631 397 2203 397 
Q 2534 397 2845 478 
Q 3156 559 3463 722 
L 3463 178 
Q 3153 47 2828 -22 
Q 2503 -91 2169 -91 
Q 1331 -91 842 396 
Q 353 884 353 1716 
Q 353 2575 817 3079 
Q 1281 3584 2069 3584 
Q 2775 3584 3186 3129 
Q 3597 2675 3597 1894 
z
M 3022 2063 
Q 3016 2534 2758 2815 
Q 2500 3097 2075 3097 
Q 1594 3097 1305 2825 
Q 1016 2553 972 2059 
L 3022 2063 
z
" transform="scale(0.015625)"/>
        <path id="DejaVuSans-72" d="M 2631 2963 
Q 2534 3019 2420 3045 
Q 2306 3072 2169 3072 
Q 1681 3072 1420 2755 
Q 1159 2438 1159 1844 
L 1159 0 
L 581 0 
L 581 3500 
L 1159 3500 
L 1159 2956 
Q 1341 3275 1631 3429 
Q 1922 3584 2338 3584 
Q 2397 3584 2469 3576 
Q 2541 3569 2628 3553 
L 2631 2963 
z
" transform="scale(0.015625)"/>
        <path id="DejaVuSans-63" d="M 3122 3366 
L 3122 2828 
Q 2878 2963 2633 3030 
Q 2388 3097 2138 3097 
Q 1578 3097 1268 2742 
Q 959 2388 959 1747 
Q 959 1106 1268 751 
Q 1578 397 2138 397 
Q 2388 397 2633 464 
Q 2878 531 3122 666 
L 3122 134 
Q 2881 22 2623 -34 
Q 2366 -91 2075 -91 
Q 1284 -91 818 406 
Q 353 903 353 1747 
Q 353 2603 823 3093 
Q 1294 3584 2113 3584 
Q 2378 3584 2631 3529 
Q 2884 3475 3122 3366 
z
" transform="scale(0.015625)"/>
        <path id="DejaVuSans-6e" d="M 3513 2113 
L 3513 0 
L 2938 0 
L 2938 2094 
Q 2938 2591 2744 2837 
Q 2550 3084 2163 3084 
Q 1697 3084 1428 2787 
Q 1159 2491 1159 1978 
L 1159 0 
L 581 0 
L 581 3500 
L 1159 3500 
L 1159 2956 
Q 1366 3272 1645 3428 
Q 1925 3584 2291 3584 
Q 2894 3584 3203 3211 
Q 3513 2838 3513 2113 
z
" transform="scale(0.015625)"/>
       </defs>
       <use xlink:href="#DejaVuSans-66"/>
       <use xlink:href="#DejaVuSans-61" transform="translate(35.205078 0)"/>
       <use xlink:href="#DejaVuSans-73" transform="translate(96.484375 0)"/>
       <use xlink:href="#DejaVuSans-74" transform="translate(148.583984 0)"/>
       <use xlink:href="#DejaVuSans-65" transform="translate(187.792969 0)"/>
       <use xlink:href="#DejaVuSans-72" transform="translate(249.316406 0)"/>
       <use xlink:href="#DejaVuSans-72" transform="translate(288.679688 0)"/>
       <use xlink:href="#DejaVuSans-63" transform="translate(327.542969 0)"/>
       <use xlink:href="#DejaVuSans-6e" transform="translate(382.523438 0)"/>
       <use xlink:href="#DejaVuSans-6e" transform="translate(445.902344 0)"/>
      </g>
     </g>
    </g>
    <g id="xtick_2">
     <g id="line2d_2">
      <g>
       <use xlink:href="#m207cf4a066" x="96.351944" y="213.32" style="stroke: #000000; stroke-width: 0.8"/>
      </g>
     </g>
     <g id="text_2">
      <!-- fasterrcnn-pretrained -->
      <g transform="translate(94.272256 327.018438) rotate(-90) scale(0.1 -0.1)">
       <defs>
        <path id="DejaVuSans-2d" d="M 313 2009 
L 1997 2009 
L 1997 1497 
L 313 1497 
L 313 2009 
z
" transform="scale(0.015625)"/>
        <path id="DejaVuSans-70" d="M 1159 525 
L 1159 -1331 
L 581 -1331 
L 581 3500 
L 1159 3500 
L 1159 2969 
Q 1341 3281 1617 3432 
Q 1894 3584 2278 3584 
Q 2916 3584 3314 3078 
Q 3713 2572 3713 1747 
Q 3713 922 3314 415 
Q 2916 -91 2278 -91 
Q 1894 -91 1617 61 
Q 1341 213 1159 525 
z
M 3116 1747 
Q 3116 2381 2855 2742 
Q 2594 3103 2138 3103 
Q 1681 3103 1420 2742 
Q 1159 2381 1159 1747 
Q 1159 1113 1420 752 
Q 1681 391 2138 391 
Q 2594 391 2855 752 
Q 3116 1113 3116 1747 
z
" transform="scale(0.015625)"/>
        <path id="DejaVuSans-69" d="M 603 3500 
L 1178 3500 
L 1178 0 
L 603 0 
L 603 3500 
z
M 603 4863 
L 1178 4863 
L 1178 4134 
L 603 4134 
L 603 4863 
z
" transform="scale(0.015625)"/>
        <path id="DejaVuSans-64" d="M 2906 2969 
L 2906 4863 
L 3481 4863 
L 3481 0 
L 2906 0 
L 2906 525 
Q 2725 213 2448 61 
Q 2172 -91 1784 -91 
Q 1150 -91 751 415 
Q 353 922 353 1747 
Q 353 2572 751 3078 
Q 1150 3584 1784 3584 
Q 2172 3584 2448 3432 
Q 2725 3281 2906 2969 
z
M 947 1747 
Q 947 1113 1208 752 
Q 1469 391 1925 391 
Q 2381 391 2643 752 
Q 2906 1113 2906 1747 
Q 2906 2381 2643 2742 
Q 2381 3103 1925 3103 
Q 1469 3103 1208 2742 
Q 947 2381 947 1747 
z
" transform="scale(0.015625)"/>
       </defs>
       <use xlink:href="#DejaVuSans-66"/>
       <use xlink:href="#DejaVuSans-61" transform="translate(35.205078 0)"/>
       <use xlink:href="#DejaVuSans-73" transform="translate(96.484375 0)"/>
       <use xlink:href="#DejaVuSans-74" transform="translate(148.583984 0)"/>
       <use xlink:href="#DejaVuSans-65" transform="translate(187.792969 0)"/>
       <use xlink:href="#DejaVuSans-72" transform="translate(249.316406 0)"/>
       <use xlink:href="#DejaVuSans-72" transform="translate(288.679688 0)"/>
       <use xlink:href="#DejaVuSans-63" transform="translate(327.542969 0)"/>
       <use xlink:href="#DejaVuSans-6e" transform="translate(382.523438 0)"/>
       <use xlink:href="#DejaVuSans-6e" transform="translate(445.902344 0)"/>
       <use xlink:href="#DejaVuSans-2d" transform="translate(509.28125 0)"/>
       <use xlink:href="#DejaVuSans-70" transform="translate(545.365234 0)"/>
       <use xlink:href="#DejaVuSans-72" transform="translate(608.841797 0)"/>
       <use xlink:href="#DejaVuSans-65" transform="translate(647.705078 0)"/>
       <use xlink:href="#DejaVuSans-74" transform="translate(709.228516 0)"/>
       <use xlink:href="#DejaVuSans-72" transform="translate(748.4375 0)"/>
       <use xlink:href="#DejaVuSans-61" transform="translate(789.550781 0)"/>
       <use xlink:href="#DejaVuSans-69" transform="translate(850.830078 0)"/>
       <use xlink:href="#DejaVuSans-6e" transform="translate(878.613281 0)"/>
       <use xlink:href="#DejaVuSans-65" transform="translate(941.992188 0)"/>
       <use xlink:href="#DejaVuSans-64" transform="translate(1003.515625 0)"/>
      </g>
     </g>
    </g>
    <g id="xtick_3">
     <g id="line2d_3">
      <g>
       <use xlink:href="#m207cf4a066" x="115.634826" y="213.32" style="stroke: #000000; stroke-width: 0.8"/>
      </g>
     </g>
     <g id="text_3">
      <!-- gemini-2.0-flash -->
      <g transform="translate(113.555138 301.548125) rotate(-90) scale(0.1 -0.1)">
       <defs>
        <path id="DejaVuSans-67" d="M 2906 1791 
Q 2906 2416 2648 2759 
Q 2391 3103 1925 3103 
Q 1463 3103 1205 2759 
Q 947 2416 947 1791 
Q 947 1169 1205 825 
Q 1463 481 1925 481 
Q 2391 481 2648 825 
Q 2906 1169 2906 1791 
z
M 3481 434 
Q 3481 -459 3084 -895 
Q 2688 -1331 1869 -1331 
Q 1566 -1331 1297 -1286 
Q 1028 -1241 775 -1147 
L 775 -588 
Q 1028 -725 1275 -790 
Q 1522 -856 1778 -856 
Q 2344 -856 2625 -561 
Q 2906 -266 2906 331 
L 2906 616 
Q 2728 306 2450 153 
Q 2172 0 1784 0 
Q 1141 0 747 490 
Q 353 981 353 1791 
Q 353 2603 747 3093 
Q 1141 3584 1784 3584 
Q 2172 3584 2450 3431 
Q 2728 3278 2906 2969 
L 2906 3500 
L 3481 3500 
L 3481 434 
z
" transform="scale(0.015625)"/>
        <path id="DejaVuSans-6d" d="M 3328 2828 
Q 3544 3216 3844 3400 
Q 4144 3584 4550 3584 
Q 5097 3584 5394 3201 
Q 5691 2819 5691 2113 
L 5691 0 
L 5113 0 
L 5113 2094 
Q 5113 2597 4934 2840 
Q 4756 3084 4391 3084 
Q 3944 3084 3684 2787 
Q 3425 2491 3425 1978 
L 3425 0 
L 2847 0 
L 2847 2094 
Q 2847 2600 2669 2842 
Q 2491 3084 2119 3084 
Q 1678 3084 1418 2786 
Q 1159 2488 1159 1978 
L 1159 0 
L 581 0 
L 581 3500 
L 1159 3500 
L 1159 2956 
Q 1356 3278 1631 3431 
Q 1906 3584 2284 3584 
Q 2666 3584 2933 3390 
Q 3200 3197 3328 2828 
z
" transform="scale(0.015625)"/>
        <path id="DejaVuSans-32" d="M 1228 531 
L 3431 531 
L 3431 0 
L 469 0 
L 469 531 
Q 828 903 1448 1529 
Q 2069 2156 2228 2338 
Q 2531 2678 2651 2914 
Q 2772 3150 2772 3378 
Q 2772 3750 2511 3984 
Q 2250 4219 1831 4219 
Q 1534 4219 1204 4116 
Q 875 4013 500 3803 
L 500 4441 
Q 881 4594 1212 4672 
Q 1544 4750 1819 4750 
Q 2544 4750 2975 4387 
Q 3406 4025 3406 3419 
Q 3406 3131 3298 2873 
Q 3191 2616 2906 2266 
Q 2828 2175 2409 1742 
Q 1991 1309 1228 531 
z
" transform="scale(0.015625)"/>
        <path id="DejaVuSans-2e" d="M 684 794 
L 1344 794 
L 1344 0 
L 684 0 
L 684 794 
z
" transform="scale(0.015625)"/>
        <path id="DejaVuSans-30" d="M 2034 4250 
Q 1547 4250 1301 3770 
Q 1056 3291 1056 2328 
Q 1056 1369 1301 889 
Q 1547 409 2034 409 
Q 2525 409 2770 889 
Q 3016 1369 3016 2328 
Q 3016 3291 2770 3770 
Q 2525 4250 2034 4250 
z
M 2034 4750 
Q 2819 4750 3233 4129 
Q 3647 3509 3647 2328 
Q 3647 1150 3233 529 
Q 2819 -91 2034 -91 
Q 1250 -91 836 529 
Q 422 1150 422 2328 
Q 422 3509 836 4129 
Q 1250 4750 2034 4750 
z
" transform="scale(0.015625)"/>
        <path id="DejaVuSans-6c" d="M 603 4863 
L 1178 4863 
L 1178 0 
L 603 0 
L 603 4863 
z
" transform="scale(0.015625)"/>
        <path id="DejaVuSans-68" d="M 3513 2113 
L 3513 0 
L 2938 0 
L 2938 2094 
Q 2938 2591 2744 2837 
Q 2550 3084 2163 3084 
Q 1697 3084 1428 2787 
Q 1159 2491 1159 1978 
L 1159 0 
L 581 0 
L 581 4863 
L 1159 4863 
L 1159 2956 
Q 1366 3272 1645 3428 
Q 1925 3584 2291 3584 
Q 2894 3584 3203 3211 
Q 3513 2838 3513 2113 
z
" transform="scale(0.015625)"/>
       </defs>
       <use xlink:href="#DejaVuSans-67"/>
       <use xlink:href="#DejaVuSans-65" transform="translate(63.476562 0)"/>
       <use xlink:href="#DejaVuSans-6d" transform="translate(125 0)"/>
       <use xlink:href="#DejaVuSans-69" transform="translate(222.412109 0)"/>
       <use xlink:href="#DejaVuSans-6e" transform="translate(250.195312 0)"/>
       <use xlink:href="#DejaVuSans-69" transform="translate(313.574219 0)"/>
       <use xlink:href="#DejaVuSans-2d" transform="translate(341.357422 0)"/>
       <use xlink:href="#DejaVuSans-32" transform="translate(377.441406 0)"/>
       <use xlink:href="#DejaVuSans-2e" transform="translate(441.064453 0)"/>
       <use xlink:href="#DejaVuSans-30" transform="translate(472.851562 0)"/>
       <use xlink:href="#DejaVuSans-2d" transform="translate(536.474609 0)"/>
       <use xlink:href="#DejaVuSans-66" transform="translate(572.558594 0)"/>
       <use xlink:href="#DejaVuSans-6c" transform="translate(607.763672 0)"/>
       <use xlink:href="#DejaVuSans-61" transform="translate(635.546875 0)"/>
       <use xlink:href="#DejaVuSans-73" transform="translate(696.826172 0)"/>
       <use xlink:href="#DejaVuSans-68" transform="translate(748.925781 0)"/>
      </g>
     </g>
    </g>
    <g id="xtick_4">
     <g id="line2d_4">
      <g>
       <use xlink:href="#m207cf4a066" x="134.917708" y="213.32" style="stroke: #000000; stroke-width: 0.8"/>
      </g>
     </g>
     <g id="text_4">
      <!-- gemini-2.5-flash -->
      <g transform="translate(132.83802 301.548125) rotate(-90) scale(0.1 -0.1)">
       <defs>
        <path id="DejaVuSans-35" d="M 691 4666 
L 3169 4666 
L 3169 4134 
L 1269 4134 
L 1269 2991 
Q 1406 3038 1543 3061 
Q 1681 3084 1819 3084 
Q 2600 3084 3056 2656 
Q 3513 2228 3513 1497 
Q 3513 744 3044 326 
Q 2575 -91 1722 -91 
Q 1428 -91 1123 -41 
Q 819 9 494 109 
L 494 744 
Q 775 591 1075 516 
Q 1375 441 1709 441 
Q 2250 441 2565 725 
Q 2881 1009 2881 1497 
Q 2881 1984 2565 2268 
Q 2250 2553 1709 2553 
Q 1456 2553 1204 2497 
Q 953 2441 691 2322 
L 691 4666 
z
" transform="scale(0.015625)"/>
       </defs>
       <use xlink:href="#DejaVuSans-67"/>
       <use xlink:href="#DejaVuSans-65" transform="translate(63.476562 0)"/>
       <use xlink:href="#DejaVuSans-6d" transform="translate(125 0)"/>
       <use xlink:href="#DejaVuSans-69" transform="translate(222.412109 0)"/>
       <use xlink:href="#DejaVuSans-6e" transform="translate(250.195312 0)"/>
       <use xlink:href="#DejaVuSans-69" transform="translate(313.574219 0)"/>
       <use xlink:href="#DejaVuSans-2d" transform="translate(341.357422 0)"/>
       <use xlink:href="#DejaVuSans-32" transform="translate(377.441406 0)"/>
       <use xlink:href="#DejaVuSans-2e" transform="translate(441.064453 0)"/>
       <use xlink:href="#DejaVuSans-35" transform="translate(472.851562 0)"/>
       <use xlink:href="#DejaVuSans-2d" transform="translate(536.474609 0)"/>
       <use xlink:href="#DejaVuSans-66" transform="translate(572.558594 0)"/>
       <use xlink:href="#DejaVuSans-6c" transform="translate(607.763672 0)"/>
       <use xlink:href="#DejaVuSans-61" transform="translate(635.546875 0)"/>
       <use xlink:href="#DejaVuSans-73" transform="translate(696.826172 0)"/>
       <use xlink:href="#DejaVuSans-68" transform="translate(748.925781 0)"/>
      </g>
     </g>
    </g>
    <g id="xtick_5">
     <g id="line2d_5">
      <g>
       <use xlink:href="#m207cf4a066" x="154.20059" y="213.32" style="stroke: #000000; stroke-width: 0.8"/>
      </g>
     </g>
     <g id="text_5">
      <!-- gemini-2.5-pro -->
      <g transform="translate(152.120902 293.927813) rotate(-90) scale(0.1 -0.1)">
       <defs>
        <path id="DejaVuSans-6f" d="M 1959 3097 
Q 1497 3097 1228 2736 
Q 959 2375 959 1747 
Q 959 1119 1226 758 
Q 1494 397 1959 397 
Q 2419 397 2687 759 
Q 2956 1122 2956 1747 
Q 2956 2369 2687 2733 
Q 2419 3097 1959 3097 
z
M 1959 3584 
Q 2709 3584 3137 3096 
Q 3566 2609 3566 1747 
Q 3566 888 3137 398 
Q 2709 -91 1959 -91 
Q 1206 -91 779 398 
Q 353 888 353 1747 
Q 353 2609 779 3096 
Q 1206 3584 1959 3584 
z
" transform="scale(0.015625)"/>
       </defs>
       <use xlink:href="#DejaVuSans-67"/>
       <use xlink:href="#DejaVuSans-65" transform="translate(63.476562 0)"/>
       <use xlink:href="#DejaVuSans-6d" transform="translate(125 0)"/>
       <use xlink:href="#DejaVuSans-69" transform="translate(222.412109 0)"/>
       <use xlink:href="#DejaVuSans-6e" transform="translate(250.195312 0)"/>
       <use xlink:href="#DejaVuSans-69" transform="translate(313.574219 0)"/>
       <use xlink:href="#DejaVuSans-2d" transform="translate(341.357422 0)"/>
       <use xlink:href="#DejaVuSans-32" transform="translate(377.441406 0)"/>
       <use xlink:href="#DejaVuSans-2e" transform="translate(441.064453 0)"/>
       <use xlink:href="#DejaVuSans-35" transform="translate(472.851562 0)"/>
       <use xlink:href="#DejaVuSans-2d" transform="translate(536.474609 0)"/>
       <use xlink:href="#DejaVuSans-70" transform="translate(572.558594 0)"/>
       <use xlink:href="#DejaVuSans-72" transform="translate(636.035156 0)"/>
       <use xlink:href="#DejaVuSans-6f" transform="translate(674.898438 0)"/>
      </g>
     </g>
    </g>
    <g id="xtick_6">
     <g id="line2d_6">
      <g>
       <use xlink:href="#m207cf4a066" x="173.483472" y="213.32" style="stroke: #000000; stroke-width: 0.8"/>
      </g>
     </g>
     <g id="text_6">
      <!-- gemini-3-flash-preview -->
      <g transform="translate(171.403784 335.030937) rotate(-90) scale(0.1 -0.1)">
       <defs>
        <path id="DejaVuSans-33" d="M 2597 2516 
Q 3050 2419 3304 2112 
Q 3559 1806 3559 1356 
Q 3559 666 3084 287 
Q 2609 -91 1734 -91 
Q 1441 -91 1130 -33 
Q 819 25 488 141 
L 488 750 
Q 750 597 1062 519 
Q 1375 441 1716 441 
Q 2309 441 2620 675 
Q 2931 909 2931 1356 
Q 2931 1769 2642 2001 
Q 2353 2234 1838 2234 
L 1294 2234 
L 1294 2753 
L 1863 2753 
Q 2328 2753 2575 2939 
Q 2822 3125 2822 3475 
Q 2822 3834 2567 4026 
Q 2313 4219 1838 4219 
Q 1578 4219 1281 4162 
Q 984 4106 628 3988 
L 628 4550 
Q 988 4650 1302 4700 
Q 1616 4750 1894 4750 
Q 2613 4750 3031 4423 
Q 3450 4097 3450 3541 
Q 3450 3153 3228 2886 
Q 3006 2619 2597 2516 
z
" transform="scale(0.015625)"/>
        <path id="DejaVuSans-76" d="M 191 3500 
L 800 3500 
L 1894 563 
L 2988 3500 
L 3597 3500 
L 2284 0 
L 1503 0 
L 191 3500 
z
" transform="scale(0.015625)"/>
        <path id="DejaVuSans-77" d="M 269 3500 
L 844 3500 
L 1563 769 
L 2278 3500 
L 2956 3500 
L 3675 769 
L 4391 3500 
L 4966 3500 
L 4050 0 
L 3372 0 
L 2619 2869 
L 1863 0 
L 1184 0 
L 269 3500 
z
" transform="scale(0.015625)"/>
       </defs>
       <use xlink:href="#DejaVuSans-67"/>
       <use xlink:href="#DejaVuSans-65" transform="translate(63.476562 0)"/>
       <use xlink:href="#DejaVuSans-6d" transform="translate(125 0)"/>
       <use xlink:href="#DejaVuSans-69" transform="translate(222.412109 0)"/>
       <use xlink:href="#DejaVuSans-6e" transform="translate(250.195312 0)"/>
       <use xlink:href="#DejaVuSans-69" transform="translate(313.574219 0)"/>
       <use xlink:href="#DejaVuSans-2d" transform="translate(341.357422 0)"/>
       <use xlink:href="#DejaVuSans-33" transform="translate(377.441406 0)"/>
       <use xlink:href="#DejaVuSans-2d" transform="translate(441.064453 0)"/>
       <use xlink:href="#DejaVuSans-66" transform="translate(477.148438 0)"/>
       <use xlink:href="#DejaVuSans-6c" transform="translate(512.353516 0)"/>
       <use xlink:href="#DejaVuSans-61" transform="translate(540.136719 0)"/>
       <use xlink:href="#DejaVuSans-73" transform="translate(601.416016 0)"/>
       <use xlink:href="#DejaVuSans-68" transform="translate(653.515625 0)"/>
       <use xlink:href="#DejaVuSans-2d" transform="translate(716.894531 0)"/>
       <use xlink:href="#DejaVuSans-70" transform="translate(752.978516 0)"/>
       <use xlink:href="#DejaVuSans-72" transform="translate(816.455078 0)"/>
       <use xlink:href="#DejaVuSans-65" transform="translate(855.318359 0)"/>
       <use xlink:href="#DejaVuSans-76" transform="translate(916.841797 0)"/>
       <use xlink:href="#DejaVuSans-69" transform="translate(976.021484 0)"/>
       <use xlink:href="#DejaVuSans-65" transform="translate(1003.804688 0)"/>
       <use xlink:href="#DejaVuSans-77" transform="translate(1065.328125 0)"/>
      </g>
     </g>
    </g>
    <g id="xtick_7">
     <g id="line2d_7">
      <g>
       <use xlink:href="#m207cf4a066" x="192.766354" y="213.32" style="stroke: #000000; stroke-width: 0.8"/>
      </g>
     </g>
     <g id="text_7">
      <!-- gemini-3-pro-preview -->
      <g transform="translate(190.686666 327.598125) rotate(-90) scale(0.1 -0.1)">
       <use xlink:href="#DejaVuSans-67"/>
       <use xlink:href="#DejaVuSans-65" transform="translate(63.476562 0)"/>
       <use xlink:href="#DejaVuSans-6d" transform="translate(125 0)"/>
       <use xlink:href="#DejaVuSans-69" transform="translate(222.412109 0)"/>
       <use xlink:href="#DejaVuSans-6e" transform="translate(250.195312 0)"/>
       <use xlink:href="#DejaVuSans-69" transform="translate(313.574219 0)"/>
       <use xlink:href="#DejaVuSans-2d" transform="translate(341.357422 0)"/>
       <use xlink:href="#DejaVuSans-33" transform="translate(377.441406 0)"/>
       <use xlink:href="#DejaVuSans-2d" transform="translate(441.064453 0)"/>
       <use xlink:href="#DejaVuSans-70" transform="translate(477.148438 0)"/>
       <use xlink:href="#DejaVuSans-72" transform="translate(540.625 0)"/>
       <use xlink:href="#DejaVuSans-6f" transform="translate(579.488281 0)"/>
       <use xlink:href="#DejaVuSans-2d" transform="translate(642.544922 0)"/>
       <use xlink:href="#DejaVuSans-70" transform="translate(678.628906 0)"/>
       <use xlink:href="#DejaVuSans-72" transform="translate(742.105469 0)"/>
       <use xlink:href="#DejaVuSans-65" transform="translate(780.96875 0)"/>
       <use xlink:href="#DejaVuSans-76" transform="translate(842.492188 0)"/>
       <use xlink:href="#DejaVuSans-69" transform="translate(901.671875 0)"/>
       <use xlink:href="#DejaVuSans-65" transform="translate(929.455078 0)"/>
       <use xlink:href="#DejaVuSans-77" transform="translate(990.978516 0)"/>
      </g>
     </g>
    </g>
    <g id="xtick_8">
     <g id="line2d_8">
      <g>
       <use xlink:href="#m207cf4a066" x="212.049236" y="213.32" style="stroke: #000000; stroke-width: 0.8"/>
      </g>
     </g>
     <g id="text_8">
      <!-- maskrcnn -->
      <g transform="translate(209.969548 269.248125) rotate(-90) scale(0.1 -0.1)">
       <defs>
        <path id="DejaVuSans-6b" d="M 581 4863 
L 1159 4863 
L 1159 1991 
L 2875 3500 
L 3609 3500 
L 1753 1863 
L 3688 0 
L 2938 0 
L 1159 1709 
L 1159 0 
L 581 0 
L 581 4863 
z
" transform="scale(0.015625)"/>
       </defs>
       <use xlink:href="#DejaVuSans-6d"/>
       <use xlink:href="#DejaVuSans-61" transform="translate(97.412109 0)"/>
       <use xlink:href="#DejaVuSans-73" transform="translate(158.691406 0)"/>
       <use xlink:href="#DejaVuSans-6b" transform="translate(210.791016 0)"/>
       <use xlink:href="#DejaVuSans-72" transform="translate(268.701172 0)"/>
       <use xlink:href="#DejaVuSans-63" transform="translate(307.564453 0)"/>
       <use xlink:href="#DejaVuSans-6e" transform="translate(362.544922 0)"/>
       <use xlink:href="#DejaVuSans-6e" transform="translate(425.923828 0)"/>
      </g>
     </g>
    </g>
    <g id="xtick_9">
     <g id="line2d_9">
      <g>
       <use xlink:href="#m207cf4a066" x="231.332118" y="213.32" style="stroke: #000000; stroke-width: 0.8"/>
      </g>
     </g>
     <g id="text_9">
      <!-- maskrcnn-pretrained -->
      <g transform="translate(229.25243 325.02) rotate(-90) scale(0.1 -0.1)">
       <use xlink:href="#DejaVuSans-6d"/>
       <use xlink:href="#DejaVuSans-61" transform="translate(97.412109 0)"/>
       <use xlink:href="#DejaVuSans-73" transform="translate(158.691406 0)"/>
       <use xlink:href="#DejaVuSans-6b" transform="translate(210.791016 0)"/>
       <use xlink:href="#DejaVuSans-72" transform="translate(268.701172 0)"/>
       <use xlink:href="#DejaVuSans-63" transform="translate(307.564453 0)"/>
       <use xlink:href="#DejaVuSans-6e" transform="translate(362.544922 0)"/>
       <use xlink:href="#DejaVuSans-6e" transform="translate(425.923828 0)"/>
       <use xlink:href="#DejaVuSans-2d" transform="translate(489.302734 0)"/>
       <use xlink:href="#DejaVuSans-70" transform="translate(525.386719 0)"/>
       <use xlink:href="#DejaVuSans-72" transform="translate(588.863281 0)"/>
       <use xlink:href="#DejaVuSans-65" transform="translate(627.726562 0)"/>
       <use xlink:href="#DejaVuSans-74" transform="translate(689.25 0)"/>
       <use xlink:href="#DejaVuSans-72" transform="translate(728.458984 0)"/>
       <use xlink:href="#DejaVuSans-61" transform="translate(769.572266 0)"/>
       <use xlink:href="#DejaVuSans-69" transform="translate(830.851562 0)"/>
       <use xlink:href="#DejaVuSans-6e" transform="translate(858.634766 0)"/>
       <use xlink:href="#DejaVuSans-65" transform="translate(922.013672 0)"/>
       <use xlink:href="#DejaVuSans-64" transform="translate(983.537109 0)"/>
      </g>
     </g>
    </g>
    <g id="xtick_10">
     <g id="line2d_10">
      <g>
       <use xlink:href="#m207cf4a066" x="250.615" y="213.32" style="stroke: #000000; stroke-width: 0.8"/>
      </g>
     </g>
     <g id="text_10">
      <!-- retinanet -->
      <g transform="translate(248.535313 265.934062) rotate(-90) scale(0.1 -0.1)">
       <use xlink:href="#DejaVuSans-72"/>
       <use xlink:href="#DejaVuSans-65" transform="translate(38.863281 0)"/>
       <use xlink:href="#DejaVuSans-74" transform="translate(100.386719 0)"/>
       <use xlink:href="#DejaVuSans-69" transform="translate(139.595703 0)"/>
       <use xlink:href="#DejaVuSans-6e" transform="translate(167.378906 0)"/>
       <use xlink:href="#DejaVuSans-61" transform="translate(230.757812 0)"/>
       <use xlink:href="#DejaVuSans-6e" transform="translate(292.037109 0)"/>
       <use xlink:href="#DejaVuSans-65" transform="translate(355.416016 0)"/>
       <use xlink:href="#DejaVuSans-74" transform="translate(416.939453 0)"/>
      </g>
     </g>
    </g>
    <g id="xtick_11">
     <g id="line2d_11">
      <g>
       <use xlink:href="#m207cf4a066" x="269.897882" y="213.32" style="stroke: #000000; stroke-width: 0.8"/>
      </g>
     </g>
     <g id="text_11">
      <!-- retinanet-pretrained -->
      <g transform="translate(267.818195 321.705938) rotate(-90) scale(0.1 -0.1)">
       <use xlink:href="#DejaVuSans-72"/>
       <use xlink:href="#DejaVuSans-65" transform="translate(38.863281 0)"/>
       <use xlink:href="#DejaVuSans-74" transform="translate(100.386719 0)"/>
       <use xlink:href="#DejaVuSans-69" transform="translate(139.595703 0)"/>
       <use xlink:href="#DejaVuSans-6e" transform="translate(167.378906 0)"/>
       <use xlink:href="#DejaVuSans-61" transform="translate(230.757812 0)"/>
       <use xlink:href="#DejaVuSans-6e" transform="translate(292.037109 0)"/>
       <use xlink:href="#DejaVuSans-65" transform="translate(355.416016 0)"/>
       <use xlink:href="#DejaVuSans-74" transform="translate(416.939453 0)"/>
       <use xlink:href="#DejaVuSans-2d" transform="translate(456.148438 0)"/>
       <use xlink:href="#DejaVuSans-70" transform="translate(492.232422 0)"/>
       <use xlink:href="#DejaVuSans-72" transform="translate(555.708984 0)"/>
       <use xlink:href="#DejaVuSans-65" transform="translate(594.572266 0)"/>
       <use xlink:href="#DejaVuSans-74" transform="translate(656.095703 0)"/>
       <use xlink:href="#DejaVuSans-72" transform="translate(695.304688 0)"/>
       <use xlink:href="#DejaVuSans-61" transform="translate(736.417969 0)"/>
       <use xlink:href="#DejaVuSans-69" transform="translate(797.697266 0)"/>
       <use xlink:href="#DejaVuSans-6e" transform="translate(825.480469 0)"/>
       <use xlink:href="#DejaVuSans-65" transform="translate(888.859375 0)"/>
       <use xlink:href="#DejaVuSans-64" transform="translate(950.382812 0)"/>
      </g>
     </g>
    </g>
    <g id="xtick_12">
     <g id="line2d_12">
      <g>
       <use xlink:href="#m207cf4a066" x="289.180764" y="213.32" style="stroke: #000000; stroke-width: 0.8"/>
      </g>
     </g>
     <g id="text_12">
      <!-- yolo11l -->
      <g transform="translate(287.101077 256.7575) rotate(-90) scale(0.1 -0.1)">
       <defs>
        <path id="DejaVuSans-79" d="M 2059 -325 
Q 1816 -950 1584 -1140 
Q 1353 -1331 966 -1331 
L 506 -1331 
L 506 -850 
L 844 -850 
Q 1081 -850 1212 -737 
Q 1344 -625 1503 -206 
L 1606 56 
L 191 3500 
L 800 3500 
L 1894 763 
L 2988 3500 
L 3597 3500 
L 2059 -325 
z
" transform="scale(0.015625)"/>
        <path id="DejaVuSans-31" d="M 794 531 
L 1825 531 
L 1825 4091 
L 703 3866 
L 703 4441 
L 1819 4666 
L 2450 4666 
L 2450 531 
L 3481 531 
L 3481 0 
L 794 0 
L 794 531 
z
" transform="scale(0.015625)"/>
       </defs>
       <use xlink:href="#DejaVuSans-79"/>
       <use xlink:href="#DejaVuSans-6f" transform="translate(59.179688 0)"/>
       <use xlink:href="#DejaVuSans-6c" transform="translate(120.361328 0)"/>
       <use xlink:href="#DejaVuSans-6f" transform="translate(148.144531 0)"/>
       <use xlink:href="#DejaVuSans-31" transform="translate(209.326172 0)"/>
       <use xlink:href="#DejaVuSans-31" transform="translate(272.949219 0)"/>
       <use xlink:href="#DejaVuSans-6c" transform="translate(336.572266 0)"/>
      </g>
     </g>
    </g>
    <g id="xtick_13">
     <g id="line2d_13">
      <g>
       <use xlink:href="#m207cf4a066" x="308.463646" y="213.32" style="stroke: #000000; stroke-width: 0.8"/>
      </g>
     </g>
     <g id="text_13">
      <!-- yolo11l-pretrained -->
      <g transform="translate(306.383959 312.529375) rotate(-90) scale(0.1 -0.1)">
       <use xlink:href="#DejaVuSans-79"/>
       <use xlink:href="#DejaVuSans-6f" transform="translate(59.179688 0)"/>
       <use xlink:href="#DejaVuSans-6c" transform="translate(120.361328 0)"/>
       <use xlink:href="#DejaVuSans-6f" transform="translate(148.144531 0)"/>
       <use xlink:href="#DejaVuSans-31" transform="translate(209.326172 0)"/>
       <use xlink:href="#DejaVuSans-31" transform="translate(272.949219 0)"/>
       <use xlink:href="#DejaVuSans-6c" transform="translate(336.572266 0)"/>
       <use xlink:href="#DejaVuSans-2d" transform="translate(364.355469 0)"/>
       <use xlink:href="#DejaVuSans-70" transform="translate(400.439453 0)"/>
       <use xlink:href="#DejaVuSans-72" transform="translate(463.916016 0)"/>
       <use xlink:href="#DejaVuSans-65" transform="translate(502.779297 0)"/>
       <use xlink:href="#DejaVuSans-74" transform="translate(564.302734 0)"/>
       <use xlink:href="#DejaVuSans-72" transform="translate(603.511719 0)"/>
       <use xlink:href="#DejaVuSans-61" transform="translate(644.625 0)"/>
       <use xlink:href="#DejaVuSans-69" transform="translate(705.904297 0)"/>
       <use xlink:href="#DejaVuSans-6e" transform="translate(733.6875 0)"/>
       <use xlink:href="#DejaVuSans-65" transform="translate(797.066406 0)"/>
       <use xlink:href="#DejaVuSans-64" transform="translate(858.589844 0)"/>
      </g>
     </g>
    </g>
    <g id="xtick_14">
     <g id="line2d_14">
      <g>
       <use xlink:href="#m207cf4a066" x="327.746528" y="213.32" style="stroke: #000000; stroke-width: 0.8"/>
      </g>
     </g>
     <g id="text_14">
      <!-- yolo11m -->
      <g transform="translate(325.666841 263.72) rotate(-90) scale(0.1 -0.1)">
       <use xlink:href="#DejaVuSans-79"/>
       <use xlink:href="#DejaVuSans-6f" transform="translate(59.179688 0)"/>
       <use xlink:href="#DejaVuSans-6c" transform="translate(120.361328 0)"/>
       <use xlink:href="#DejaVuSans-6f" transform="translate(148.144531 0)"/>
       <use xlink:href="#DejaVuSans-31" transform="translate(209.326172 0)"/>
       <use xlink:href="#DejaVuSans-31" transform="translate(272.949219 0)"/>
       <use xlink:href="#DejaVuSans-6d" transform="translate(336.572266 0)"/>
      </g>
     </g>
    </g>
    <g id="xtick_15">
     <g id="line2d_15">
      <g>
       <use xlink:href="#m207cf4a066" x="347.02941" y="213.32" style="stroke: #000000; stroke-width: 0.8"/>
      </g>
     </g>
     <g id="text_15">
      <!-- yolo11m-pretrained -->
      <g transform="translate(344.949723 319.491875) rotate(-90) scale(0.1 -0.1)">
       <use xlink:href="#DejaVuSans-79"/>
       <use xlink:href="#DejaVuSans-6f" transform="translate(59.179688 0)"/>
       <use xlink:href="#DejaVuSans-6c" transform="translate(120.361328 0)"/>
       <use xlink:href="#DejaVuSans-6f" transform="translate(148.144531 0)"/>
       <use xlink:href="#DejaVuSans-31" transform="translate(209.326172 0)"/>
       <use xlink:href="#DejaVuSans-31" transform="translate(272.949219 0)"/>
       <use xlink:href="#DejaVuSans-6d" transform="translate(336.572266 0)"/>
       <use xlink:href="#DejaVuSans-2d" transform="translate(433.984375 0)"/>
       <use xlink:href="#DejaVuSans-70" transform="translate(470.068359 0)"/>
       <use xlink:href="#DejaVuSans-72" transform="translate(533.544922 0)"/>
       <use xlink:href="#DejaVuSans-65" transform="translate(572.408203 0)"/>
       <use xlink:href="#DejaVuSans-74" transform="translate(633.931641 0)"/>
       <use xlink:href="#DejaVuSans-72" transform="translate(673.140625 0)"/>
       <use xlink:href="#DejaVuSans-61" transform="translate(714.253906 0)"/>
       <use xlink:href="#DejaVuSans-69" transform="translate(775.533203 0)"/>
       <use xlink:href="#DejaVuSans-6e" transform="translate(803.316406 0)"/>
       <use xlink:href="#DejaVuSans-65" transform="translate(866.695312 0)"/>
       <use xlink:href="#DejaVuSans-64" transform="translate(928.21875 0)"/>
      </g>
     </g>
    </g>
    <g id="xtick_16">
     <g id="line2d_16">
      <g>
       <use xlink:href="#m207cf4a066" x="366.312292" y="213.32" style="stroke: #000000; stroke-width: 0.8"/>
      </g>
     </g>
     <g id="text_16">
      <!-- yolo11n -->
      <g transform="translate(364.232605 260.316875) rotate(-90) scale(0.1 -0.1)">
       <use xlink:href="#DejaVuSans-79"/>
       <use xlink:href="#DejaVuSans-6f" transform="translate(59.179688 0)"/>
       <use xlink:href="#DejaVuSans-6c" transform="translate(120.361328 0)"/>
       <use xlink:href="#DejaVuSans-6f" transform="translate(148.144531 0)"/>
       <use xlink:href="#DejaVuSans-31" transform="translate(209.326172 0)"/>
       <use xlink:href="#DejaVuSans-31" transform="translate(272.949219 0)"/>
       <use xlink:href="#DejaVuSans-6e" transform="translate(336.572266 0)"/>
      </g>
     </g>
    </g>
    <g id="xtick_17">
     <g id="line2d_17">
      <g>
       <use xlink:href="#m207cf4a066" x="385.595174" y="213.32" style="stroke: #000000; stroke-width: 0.8"/>
      </g>
     </g>
     <g id="text_17">
      <!-- yolo11n-pretrained -->
      <g transform="translate(383.515487 316.08875) rotate(-90) scale(0.1 -0.1)">
       <use xlink:href="#DejaVuSans-79"/>
       <use xlink:href="#DejaVuSans-6f" transform="translate(59.179688 0)"/>
       <use xlink:href="#DejaVuSans-6c" transform="translate(120.361328 0)"/>
       <use xlink:href="#DejaVuSans-6f" transform="translate(148.144531 0)"/>
       <use xlink:href="#DejaVuSans-31" transform="translate(209.326172 0)"/>
       <use xlink:href="#DejaVuSans-31" transform="translate(272.949219 0)"/>
       <use xlink:href="#DejaVuSans-6e" transform="translate(336.572266 0)"/>
       <use xlink:href="#DejaVuSans-2d" transform="translate(399.951172 0)"/>
       <use xlink:href="#DejaVuSans-70" transform="translate(436.035156 0)"/>
       <use xlink:href="#DejaVuSans-72" transform="translate(499.511719 0)"/>
       <use xlink:href="#DejaVuSans-65" transform="translate(538.375 0)"/>
       <use xlink:href="#DejaVuSans-74" transform="translate(599.898438 0)"/>
       <use xlink:href="#DejaVuSans-72" transform="translate(639.107422 0)"/>
       <use xlink:href="#DejaVuSans-61" transform="translate(680.220703 0)"/>
       <use xlink:href="#DejaVuSans-69" transform="translate(741.5 0)"/>
       <use xlink:href="#DejaVuSans-6e" transform="translate(769.283203 0)"/>
       <use xlink:href="#DejaVuSans-65" transform="translate(832.662109 0)"/>
       <use xlink:href="#DejaVuSans-64" transform="translate(894.185547 0)"/>
      </g>
     </g>
    </g>
    <g id="xtick_18">
     <g id="line2d_18">
      <g>
       <use xlink:href="#m207cf4a066" x="404.878056" y="213.32" style="stroke: #000000; stroke-width: 0.8"/>
      </g>
     </g>
     <g id="text_18">
      <!-- yolo11s -->
      <g transform="translate(402.798369 259.18875) rotate(-90) scale(0.1 -0.1)">
       <use xlink:href="#DejaVuSans-79"/>
       <use xlink:href="#DejaVuSans-6f" transform="translate(59.179688 0)"/>
       <use xlink:href="#DejaVuSans-6c" transform="translate(120.361328 0)"/>
       <use xlink:href="#DejaVuSans-6f" transform="translate(148.144531 0)"/>
       <use xlink:href="#DejaVuSans-31" transform="translate(209.326172 0)"/>
       <use xlink:href="#DejaVuSans-31" transform="translate(272.949219 0)"/>
       <use xlink:href="#DejaVuSans-73" transform="translate(336.572266 0)"/>
      </g>
     </g>
    </g>
    <g id="xtick_19">
     <g id="line2d_19">
      <g>
       <use xlink:href="#m207cf4a066" x="424.160938" y="213.32" style="stroke: #000000; stroke-width: 0.8"/>
      </g>
     </g>
     <g id="text_19">
      <!-- yolo11s-pretrained -->
      <g transform="translate(422.081251 314.960625) rotate(-90) scale(0.1 -0.1)">
       <use xlink:href="#DejaVuSans-79"/>
       <use xlink:href="#DejaVuSans-6f" transform="translate(59.179688 0)"/>
       <use xlink:href="#DejaVuSans-6c" transform="translate(120.361328 0)"/>
       <use xlink:href="#DejaVuSans-6f" transform="translate(148.144531 0)"/>
       <use xlink:href="#DejaVuSans-31" transform="translate(209.326172 0)"/>
       <use xlink:href="#DejaVuSans-31" transform="translate(272.949219 0)"/>
       <use xlink:href="#DejaVuSans-73" transform="translate(336.572266 0)"/>
       <use xlink:href="#DejaVuSans-2d" transform="translate(388.671875 0)"/>
       <use xlink:href="#DejaVuSans-70" transform="translate(424.755859 0)"/>
       <use xlink:href="#DejaVuSans-72" transform="translate(488.232422 0)"/>
       <use xlink:href="#DejaVuSans-65" transform="translate(527.095703 0)"/>
       <use xlink:href="#DejaVuSans-74" transform="translate(588.619141 0)"/>
       <use xlink:href="#DejaVuSans-72" transform="translate(627.828125 0)"/>
       <use xlink:href="#DejaVuSans-61" transform="translate(668.941406 0)"/>
       <use xlink:href="#DejaVuSans-69" transform="translate(730.220703 0)"/>
       <use xlink:href="#DejaVuSans-6e" transform="translate(758.003906 0)"/>
       <use xlink:href="#DejaVuSans-65" transform="translate(821.382812 0)"/>
       <use xlink:href="#DejaVuSans-64" transform="translate(882.90625 0)"/>
      </g>
     </g>
    </g>
   </g>
   <g id="matplotlib.axis_2">
    <g id="ytick_1">
     <g id="line2d_20">
      <path d="M 51.23 213.32 
L 450 213.32 
" clip-path="url(#p631d4ef438)" style="fill: none; stroke-dasharray: 1.85,0.8; stroke-dashoffset: 0; stroke: #808080; stroke-opacity: 0.7; stroke-width: 0.5"/>
     </g>
     <g id="line2d_21">
      <defs>
       <path id="m4ecbab5493" d="M 0 0 
L -3.5 0 
" style="stroke: #000000; stroke-width: 0.8"/>
      </defs>
      <g>
       <use xlink:href="#m4ecbab5493" x="51.23" y="213.32" style="stroke: #000000; stroke-width: 0.8"/>
      </g>
     </g>
     <g id="text_20">
      <!-- 0 -->
      <g transform="translate(37.8675 217.119219) scale(0.1 -0.1)">
       <use xlink:href="#DejaVuSans-30"/>
      </g>
     </g>
    </g>
    <g id="ytick_2">
     <g id="line2d_22">
      <path d="M 51.23 174.744762 
L 450 174.744762 
" clip-path="url(#p631d4ef438)" style="fill: none; stroke-dasharray: 1.85,0.8; stroke-dashoffset: 0; stroke: #808080; stroke-opacity: 0.7; stroke-width: 0.5"/>
     </g>
     <g id="line2d_23">
      <g>
       <use xlink:href="#m4ecbab5493" x="51.23" y="174.744762" style="stroke: #000000; stroke-width: 0.8"/>
      </g>
     </g>
     <g id="text_21">
      <!-- 20 -->
      <g transform="translate(31.505 178.543981) scale(0.1 -0.1)">
       <use xlink:href="#DejaVuSans-32"/>
       <use xlink:href="#DejaVuSans-30" transform="translate(63.623047 0)"/>
      </g>
     </g>
    </g>
    <g id="ytick_3">
     <g id="line2d_24">
      <path d="M 51.23 136.169524 
L 450 136.169524 
" clip-path="url(#p631d4ef438)" style="fill: none; stroke-dasharray: 1.85,0.8; stroke-dashoffset: 0; stroke: #808080; stroke-opacity: 0.7; stroke-width: 0.5"/>
     </g>
     <g id="line2d_25">
      <g>
       <use xlink:href="#m4ecbab5493" x="51.23" y="136.169524" style="stroke: #000000; stroke-width: 0.8"/>
      </g>
     </g>
     <g id="text_22">
      <!-- 40 -->
      <g transform="translate(31.505 139.968743) scale(0.1 -0.1)">
       <defs>
        <path id="DejaVuSans-34" d="M 2419 4116 
L 825 1625 
L 2419 1625 
L 2419 4116 
z
M 2253 4666 
L 3047 4666 
L 3047 1625 
L 3713 1625 
L 3713 1100 
L 3047 1100 
L 3047 0 
L 2419 0 
L 2419 1100 
L 313 1100 
L 313 1709 
L 2253 4666 
z
" transform="scale(0.015625)"/>
       </defs>
       <use xlink:href="#DejaVuSans-34"/>
       <use xlink:href="#DejaVuSans-30" transform="translate(63.623047 0)"/>
      </g>
     </g>
    </g>
    <g id="ytick_4">
     <g id="line2d_26">
      <path d="M 51.23 97.594286 
L 450 97.594286 
" clip-path="url(#p631d4ef438)" style="fill: none; stroke-dasharray: 1.85,0.8; stroke-dashoffset: 0; stroke: #808080; stroke-opacity: 0.7; stroke-width: 0.5"/>
     </g>
     <g id="line2d_27">
      <g>
       <use xlink:href="#m4ecbab5493" x="51.23" y="97.594286" style="stroke: #000000; stroke-width: 0.8"/>
      </g>
     </g>
     <g id="text_23">
      <!-- 60 -->
      <g transform="translate(31.505 101.393504) scale(0.1 -0.1)">
       <defs>
        <path id="DejaVuSans-36" d="M 2113 2584 
Q 1688 2584 1439 2293 
Q 1191 2003 1191 1497 
Q 1191 994 1439 701 
Q 1688 409 2113 409 
Q 2538 409 2786 701 
Q 3034 994 3034 1497 
Q 3034 2003 2786 2293 
Q 2538 2584 2113 2584 
z
M 3366 4563 
L 3366 3988 
Q 3128 4100 2886 4159 
Q 2644 4219 2406 4219 
Q 1781 4219 1451 3797 
Q 1122 3375 1075 2522 
Q 1259 2794 1537 2939 
Q 1816 3084 2150 3084 
Q 2853 3084 3261 2657 
Q 3669 2231 3669 1497 
Q 3669 778 3244 343 
Q 2819 -91 2113 -91 
Q 1303 -91 875 529 
Q 447 1150 447 2328 
Q 447 3434 972 4092 
Q 1497 4750 2381 4750 
Q 2619 4750 2861 4703 
Q 3103 4656 3366 4563 
z
" transform="scale(0.015625)"/>
       </defs>
       <use xlink:href="#DejaVuSans-36"/>
       <use xlink:href="#DejaVuSans-30" transform="translate(63.623047 0)"/>
      </g>
     </g>
    </g>
    <g id="ytick_5">
     <g id="line2d_28">
      <path d="M 51.23 59.019048 
L 450 59.019048 
" clip-path="url(#p631d4ef438)" style="fill: none; stroke-dasharray: 1.85,0.8; stroke-dashoffset: 0; stroke: #808080; stroke-opacity: 0.7; stroke-width: 0.5"/>
     </g>
     <g id="line2d_29">
      <g>
       <use xlink:href="#m4ecbab5493" x="51.23" y="59.019048" style="stroke: #000000; stroke-width: 0.8"/>
      </g>
     </g>
     <g id="text_24">
      <!-- 80 -->
      <g transform="translate(31.505 62.818266) scale(0.1 -0.1)">
       <defs>
        <path id="DejaVuSans-38" d="M 2034 2216 
Q 1584 2216 1326 1975 
Q 1069 1734 1069 1313 
Q 1069 891 1326 650 
Q 1584 409 2034 409 
Q 2484 409 2743 651 
Q 3003 894 3003 1313 
Q 3003 1734 2745 1975 
Q 2488 2216 2034 2216 
z
M 1403 2484 
Q 997 2584 770 2862 
Q 544 3141 544 3541 
Q 544 4100 942 4425 
Q 1341 4750 2034 4750 
Q 2731 4750 3128 4425 
Q 3525 4100 3525 3541 
Q 3525 3141 3298 2862 
Q 3072 2584 2669 2484 
Q 3125 2378 3379 2068 
Q 3634 1759 3634 1313 
Q 3634 634 3220 271 
Q 2806 -91 2034 -91 
Q 1263 -91 848 271 
Q 434 634 434 1313 
Q 434 1759 690 2068 
Q 947 2378 1403 2484 
z
M 1172 3481 
Q 1172 3119 1398 2916 
Q 1625 2713 2034 2713 
Q 2441 2713 2670 2916 
Q 2900 3119 2900 3481 
Q 2900 3844 2670 4047 
Q 2441 4250 2034 4250 
Q 1625 4250 1398 4047 
Q 1172 3844 1172 3481 
z
" transform="scale(0.015625)"/>
       </defs>
       <use xlink:href="#DejaVuSans-38"/>
       <use xlink:href="#DejaVuSans-30" transform="translate(63.623047 0)"/>
      </g>
     </g>
    </g>
    <g id="ytick_6">
     <g id="line2d_30">
      <path d="M 51.23 20.44381 
L 450 20.44381 
" clip-path="url(#p631d4ef438)" style="fill: none; stroke-dasharray: 1.85,0.8; stroke-dashoffset: 0; stroke: #808080; stroke-opacity: 0.7; stroke-width: 0.5"/>
     </g>
     <g id="line2d_31">
      <g>
       <use xlink:href="#m4ecbab5493" x="51.23" y="20.44381" style="stroke: #000000; stroke-width: 0.8"/>
      </g>
     </g>
     <g id="text_25">
      <!-- 100 -->
      <g transform="translate(25.1425 24.243028) scale(0.1 -0.1)">
       <use xlink:href="#DejaVuSans-31"/>
       <use xlink:href="#DejaVuSans-30" transform="translate(63.623047 0)"/>
       <use xlink:href="#DejaVuSans-30" transform="translate(127.246094 0)"/>
      </g>
     </g>
    </g>
    <g id="text_26">
     <!-- Počty dat -->
     <g transform="translate(19.062813 135.409219) rotate(-90) scale(0.1 -0.1)">
      <defs>
       <path id="DejaVuSans-50" d="M 1259 4147 
L 1259 2394 
L 2053 2394 
Q 2494 2394 2734 2622 
Q 2975 2850 2975 3272 
Q 2975 3691 2734 3919 
Q 2494 4147 2053 4147 
L 1259 4147 
z
M 628 4666 
L 2053 4666 
Q 2838 4666 3239 4311 
Q 3641 3956 3641 3272 
Q 3641 2581 3239 2228 
Q 2838 1875 2053 1875 
L 1259 1875 
L 1259 0 
L 628 0 
L 628 4666 
z
" transform="scale(0.015625)"/>
       <path id="DejaVuSans-10d" d="M 3122 3366 
L 3122 2828 
Q 2878 2963 2633 3030 
Q 2388 3097 2138 3097 
Q 1578 3097 1268 2742 
Q 959 2388 959 1747 
Q 959 1106 1268 751 
Q 1578 397 2138 397 
Q 2388 397 2633 464 
Q 2878 531 3122 666 
L 3122 134 
Q 2881 22 2623 -34 
Q 2366 -91 2075 -91 
Q 1284 -91 818 406 
Q 353 903 353 1747 
Q 353 2603 823 3093 
Q 1294 3584 2113 3584 
Q 2378 3584 2631 3529 
Q 2884 3475 3122 3366 
z
M 1801 3944 
L 1035 5119 
L 1470 5119 
L 2032 4353 
L 2595 5119 
L 3029 5119 
L 2263 3944 
L 1801 3944 
z
" transform="scale(0.015625)"/>
       <path id="DejaVuSans-20" transform="scale(0.015625)"/>
      </defs>
      <use xlink:href="#DejaVuSans-50"/>
      <use xlink:href="#DejaVuSans-6f" transform="translate(56.677734 0)"/>
      <use xlink:href="#DejaVuSans-10d" transform="translate(117.859375 0)"/>
      <use xlink:href="#DejaVuSans-74" transform="translate(172.839844 0)"/>
      <use xlink:href="#DejaVuSans-79" transform="translate(212.048828 0)"/>
      <use xlink:href="#DejaVuSans-20" transform="translate(271.228516 0)"/>
      <use xlink:href="#DejaVuSans-64" transform="translate(303.015625 0)"/>
      <use xlink:href="#DejaVuSans-61" transform="translate(366.492188 0)"/>
      <use xlink:href="#DejaVuSans-74" transform="translate(427.771484 0)"/>
     </g>
    </g>
   </g>
   <g id="patch_60">
    <path d="M 51.23 213.32 
L 51.23 10.8 
" style="fill: none; stroke: #000000; stroke-width: 0.8; stroke-linejoin: miter; stroke-linecap: square"/>
   </g>
   <g id="patch_61">
    <path d="M 450 213.32 
L 450 10.8 
" style="fill: none; stroke: #000000; stroke-width: 0.8; stroke-linejoin: miter; stroke-linecap: square"/>
   </g>
   <g id="patch_62">
    <path d="M 51.23 213.32 
L 450 213.32 
" style="fill: none; stroke: #000000; stroke-width: 0.8; stroke-linejoin: miter; stroke-linecap: square"/>
   </g>
   <g id="patch_63">
    <path d="M 51.23 10.8 
L 450 10.8 
" style="fill: none; stroke: #000000; stroke-width: 0.8; stroke-linejoin: miter; stroke-linecap: square"/>
   </g>
   <g id="legend_1">
    <g id="patch_64">
     <path d="M 58.23 64.496875 
L 189.734688 64.496875 
Q 191.734688 64.496875 191.734688 62.496875 
L 191.734688 17.8 
Q 191.734688 15.8 189.734688 15.8 
L 58.23 15.8 
Q 56.23 15.8 56.23 17.8 
L 56.23 62.496875 
Q 56.23 64.496875 58.23 64.496875 
z
" style="fill: #ffffff; opacity: 0.8; stroke: #cccccc; stroke-linejoin: miter"/>
    </g>
    <g id="patch_65">
     <path d="M 60.23 27.398438 
L 80.23 27.398438 
L 80.23 20.398438 
L 60.23 20.398438 
z
" style="fill: #0000ff"/>
    </g>
    <g id="text_27">
     <!-- Korektní data -->
     <g transform="translate(88.23 27.398438) scale(0.1 -0.1)">
      <defs>
       <path id="DejaVuSans-4b" d="M 628 4666 
L 1259 4666 
L 1259 2694 
L 3353 4666 
L 4166 4666 
L 1850 2491 
L 4331 0 
L 3500 0 
L 1259 2247 
L 1259 0 
L 628 0 
L 628 4666 
z
" transform="scale(0.015625)"/>
       <path id="DejaVuSans-ed" d="M 1322 5119 
L 1944 5119 
L 926 3944 
L 447 3944 
L 1322 5119 
z
M 603 3500 
L 1178 3500 
L 1178 0 
L 603 0 
L 603 3500 
z
M 891 3584 
L 891 3584 
z
" transform="scale(0.015625)"/>
      </defs>
      <use xlink:href="#DejaVuSans-4b"/>
      <use xlink:href="#DejaVuSans-6f" transform="translate(60.576172 0)"/>
      <use xlink:href="#DejaVuSans-72" transform="translate(121.757812 0)"/>
      <use xlink:href="#DejaVuSans-65" transform="translate(160.621094 0)"/>
      <use xlink:href="#DejaVuSans-6b" transform="translate(222.144531 0)"/>
      <use xlink:href="#DejaVuSans-74" transform="translate(280.054688 0)"/>
      <use xlink:href="#DejaVuSans-6e" transform="translate(319.263672 0)"/>
      <use xlink:href="#DejaVuSans-ed" transform="translate(382.642578 0)"/>
      <use xlink:href="#DejaVuSans-20" transform="translate(410.425781 0)"/>
      <use xlink:href="#DejaVuSans-64" transform="translate(442.212891 0)"/>
      <use xlink:href="#DejaVuSans-61" transform="translate(505.689453 0)"/>
      <use xlink:href="#DejaVuSans-74" transform="translate(566.96875 0)"/>
      <use xlink:href="#DejaVuSans-61" transform="translate(606.177734 0)"/>
     </g>
    </g>
    <g id="patch_66">
     <path d="M 60.23 42.076563 
L 80.23 42.076563 
L 80.23 35.076563 
L 60.23 35.076563 
z
" style="fill: #008000"/>
    </g>
    <g id="text_28">
     <!-- Objekty nenalezeny -->
     <g transform="translate(88.23 42.076563) scale(0.1 -0.1)">
      <defs>
       <path id="DejaVuSans-4f" d="M 2522 4238 
Q 1834 4238 1429 3725 
Q 1025 3213 1025 2328 
Q 1025 1447 1429 934 
Q 1834 422 2522 422 
Q 3209 422 3611 934 
Q 4013 1447 4013 2328 
Q 4013 3213 3611 3725 
Q 3209 4238 2522 4238 
z
M 2522 4750 
Q 3503 4750 4090 4092 
Q 4678 3434 4678 2328 
Q 4678 1225 4090 567 
Q 3503 -91 2522 -91 
Q 1538 -91 948 565 
Q 359 1222 359 2328 
Q 359 3434 948 4092 
Q 1538 4750 2522 4750 
z
" transform="scale(0.015625)"/>
       <path id="DejaVuSans-62" d="M 3116 1747 
Q 3116 2381 2855 2742 
Q 2594 3103 2138 3103 
Q 1681 3103 1420 2742 
Q 1159 2381 1159 1747 
Q 1159 1113 1420 752 
Q 1681 391 2138 391 
Q 2594 391 2855 752 
Q 3116 1113 3116 1747 
z
M 1159 2969 
Q 1341 3281 1617 3432 
Q 1894 3584 2278 3584 
Q 2916 3584 3314 3078 
Q 3713 2572 3713 1747 
Q 3713 922 3314 415 
Q 2916 -91 2278 -91 
Q 1894 -91 1617 61 
Q 1341 213 1159 525 
L 1159 0 
L 581 0 
L 581 4863 
L 1159 4863 
L 1159 2969 
z
" transform="scale(0.015625)"/>
       <path id="DejaVuSans-6a" d="M 603 3500 
L 1178 3500 
L 1178 -63 
Q 1178 -731 923 -1031 
Q 669 -1331 103 -1331 
L -116 -1331 
L -116 -844 
L 38 -844 
Q 366 -844 484 -692 
Q 603 -541 603 -63 
L 603 3500 
z
M 603 4863 
L 1178 4863 
L 1178 4134 
L 603 4134 
L 603 4863 
z
" transform="scale(0.015625)"/>
       <path id="DejaVuSans-7a" d="M 353 3500 
L 3084 3500 
L 3084 2975 
L 922 459 
L 3084 459 
L 3084 0 
L 275 0 
L 275 525 
L 2438 3041 
L 353 3041 
L 353 3500 
z
" transform="scale(0.015625)"/>
      </defs>
      <use xlink:href="#DejaVuSans-4f"/>
      <use xlink:href="#DejaVuSans-62" transform="translate(78.710938 0)"/>
      <use xlink:href="#DejaVuSans-6a" transform="translate(142.1875 0)"/>
      <use xlink:href="#DejaVuSans-65" transform="translate(169.970703 0)"/>
      <use xlink:href="#DejaVuSans-6b" transform="translate(231.494141 0)"/>
      <use xlink:href="#DejaVuSans-74" transform="translate(289.404297 0)"/>
      <use xlink:href="#DejaVuSans-79" transform="translate(328.613281 0)"/>
      <use xlink:href="#DejaVuSans-20" transform="translate(387.792969 0)"/>
      <use xlink:href="#DejaVuSans-6e" transform="translate(419.580078 0)"/>
      <use xlink:href="#DejaVuSans-65" transform="translate(482.958984 0)"/>
      <use xlink:href="#DejaVuSans-6e" transform="translate(544.482422 0)"/>
      <use xlink:href="#DejaVuSans-61" transform="translate(607.861328 0)"/>
      <use xlink:href="#DejaVuSans-6c" transform="translate(669.140625 0)"/>
      <use xlink:href="#DejaVuSans-65" transform="translate(696.923828 0)"/>
      <use xlink:href="#DejaVuSans-7a" transform="translate(758.447266 0)"/>
      <use xlink:href="#DejaVuSans-65" transform="translate(810.9375 0)"/>
      <use xlink:href="#DejaVuSans-6e" transform="translate(872.460938 0)"/>
      <use xlink:href="#DejaVuSans-79" transform="translate(935.839844 0)"/>
     </g>
    </g>
    <g id="patch_67">
     <path d="M 60.23 58.417188 
L 80.23 58.417188 
L 80.23 51.417188 
L 60.23 51.417188 
z
" style="fill: #ff0000"/>
    </g>
    <g id="text_29">
     <!-- Špatná data -->
     <g transform="translate(88.23 58.417188) scale(0.1 -0.1)">
      <defs>
       <path id="DejaVuSans-160" d="M 3425 4513 
L 3425 3897 
Q 3066 4069 2747 4153 
Q 2428 4238 2131 4238 
Q 1616 4238 1336 4038 
Q 1056 3838 1056 3469 
Q 1056 3159 1242 3001 
Q 1428 2844 1947 2747 
L 2328 2669 
Q 3034 2534 3370 2195 
Q 3706 1856 3706 1288 
Q 3706 609 3251 259 
Q 2797 -91 1919 -91 
Q 1588 -91 1214 -16 
Q 841 59 441 206 
L 441 856 
Q 825 641 1194 531 
Q 1563 422 1919 422 
Q 2459 422 2753 634 
Q 3047 847 3047 1241 
Q 3047 1584 2836 1778 
Q 2625 1972 2144 2069 
L 1759 2144 
Q 1053 2284 737 2584 
Q 422 2884 422 3419 
Q 422 4038 858 4394 
Q 1294 4750 2059 4750 
Q 2388 4750 2728 4690 
Q 3069 4631 3425 4513 
z
M 1738 5096 
L 1079 5927 
L 1513 5927 
L 2032 5371 
L 2551 5927 
L 2985 5927 
L 2326 5096 
L 1738 5096 
z
" transform="scale(0.015625)"/>
       <path id="DejaVuSans-e1" d="M 2194 1759 
Q 1497 1759 1228 1600 
Q 959 1441 959 1056 
Q 959 750 1161 570 
Q 1363 391 1709 391 
Q 2188 391 2477 730 
Q 2766 1069 2766 1631 
L 2766 1759 
L 2194 1759 
z
M 3341 1997 
L 3341 0 
L 2766 0 
L 2766 531 
Q 2569 213 2275 61 
Q 1981 -91 1556 -91 
Q 1019 -91 701 211 
Q 384 513 384 1019 
Q 384 1609 779 1909 
Q 1175 2209 1959 2209 
L 2766 2209 
L 2766 2266 
Q 2766 2663 2505 2880 
Q 2244 3097 1772 3097 
Q 1472 3097 1187 3025 
Q 903 2953 641 2809 
L 641 3341 
Q 956 3463 1253 3523 
Q 1550 3584 1831 3584 
Q 2591 3584 2966 3190 
Q 3341 2797 3341 1997 
z
M 2290 5119 
L 2912 5119 
L 1894 3944 
L 1415 3944 
L 2290 5119 
z
" transform="scale(0.015625)"/>
      </defs>
      <use xlink:href="#DejaVuSans-160"/>
      <use xlink:href="#DejaVuSans-70" transform="translate(63.476562 0)"/>
      <use xlink:href="#DejaVuSans-61" transform="translate(126.953125 0)"/>
      <use xlink:href="#DejaVuSans-74" transform="translate(188.232422 0)"/>
      <use xlink:href="#DejaVuSans-6e" transform="translate(227.441406 0)"/>
      <use xlink:href="#DejaVuSans-e1" transform="translate(290.820312 0)"/>
      <use xlink:href="#DejaVuSans-20" transform="translate(352.099609 0)"/>
      <use xlink:href="#DejaVuSans-64" transform="translate(383.886719 0)"/>
      <use xlink:href="#DejaVuSans-61" transform="translate(447.363281 0)"/>
      <use xlink:href="#DejaVuSans-74" transform="translate(508.642578 0)"/>
      <use xlink:href="#DejaVuSans-61" transform="translate(547.851562 0)"/>
     </g>
    </g>
   </g>
  </g>
 </g>
 <defs>
  <clipPath id="p631d4ef438">
   <rect x="51.23" y="10.8" width="398.77" height="202.52"/>
  </clipPath>
 </defs>
</svg>
