<?xml version="1.0" encoding="utf-8" standalone="no"?>
<!DOCTYPE svg PUBLIC "-//W3C//DTD SVG 1.1//EN"
  "http://www.w3.org/Graphics/SVG/1.1/DTD/svg11.dtd">
<svg xmlns:xlink="http://www.w3.org/1999/xlink" width="460.8pt" height="345.6pt" viewBox="0 0 460.8 345.6" xmlns="http://www.w3.org/2000/svg" version="1.1">
 <metadata>
  <rdf:RDF xmlns:dc="http://purl.org/dc/elements/1.1/" xmlns:cc="http://creativecommons.org/ns#" xmlns:rdf="http://www.w3.org/1999/02/22-rdf-syntax-ns#">
   <cc:Work>
    <dc:type rdf:resource="http://purl.org/dc/dcmitype/StillImage"/>
    <dc:date>2026-02-11T22:29:50.241889</dc:date>
    <dc:format>image/svg+xml</dc:format>
    <dc:creator>
     <cc:Agent>
      <dc:title>Matplotlib v3.10.8, https://matplotlib.org/</dc:title>
     </cc:Agent>
    </dc:creator>
   </cc:Work>
  </rdf:RDF>
 </metadata>
 <defs>
  <style type="text/css">*{stroke-linejoin: round; stroke-linecap: butt}</style>
 </defs>
 <g id="figure_1">
  <g id="patch_1">
   <path d="M 0 345.6 
L 460.8 345.6 
L 460.8 0 
L 0 0 
z
" style="fill: #ffffff"/>
  </g>
  <g id="axes_1">
   <g id="patch_2">
    <path d="M 47.855 198.475 
L 450 198.475 
L 450 10.8 
L 47.855 10.8 
z
" style="fill: #ffffff"/>
   </g>
   <g id="patch_3">
    <path d="M 66.134318 198.475 
L 68.110461 198.475 
L 68.110461 22.42613 
L 66.134318 22.42613 
z
" clip-path="url(#p543e3464da)" style="fill: #0000ff"/>
   </g>
   <g id="patch_4">
    <path d="M 90.8361 198.475 
L 92.812242 198.475 
L 92.812242 194.573293 
L 90.8361 194.573293 
z
" clip-path="url(#p543e3464da)" style="fill: #0000ff"/>
   </g>
   <g id="patch_5">
    <path d="M 115.537881 198.475 
L 117.514023 198.475 
L 117.514023 189.028533 
L 115.537881 189.028533 
z
" clip-path="url(#p543e3464da)" style="fill: #0000ff"/>
   </g>
   <g id="patch_6">
    <path d="M 140.239662 198.475 
L 142.215805 198.475 
L 142.215805 198.475 
L 140.239662 198.475 
z
" clip-path="url(#p543e3464da)" style="fill: #0000ff"/>
   </g>
   <g id="patch_7">
    <path d="M 164.941443 198.475 
L 166.917586 198.475 
L 166.917586 189.021326 
L 164.941443 189.021326 
z
" clip-path="url(#p543e3464da)" style="fill: #0000ff"/>
   </g>
   <g id="patch_8">
    <path d="M 189.643225 198.475 
L 191.619367 198.475 
L 191.619367 196.150944 
L 189.643225 196.150944 
z
" clip-path="url(#p543e3464da)" style="fill: #0000ff"/>
   </g>
   <g id="patch_9">
    <path d="M 214.345006 198.475 
L 216.321149 198.475 
L 216.321149 185.329745 
L 214.345006 185.329745 
z
" clip-path="url(#p543e3464da)" style="fill: #0000ff"/>
   </g>
   <g id="patch_10">
    <path d="M 239.046787 198.475 
L 241.02293 198.475 
L 241.02293 198.475 
L 239.046787 198.475 
z
" clip-path="url(#p543e3464da)" style="fill: #0000ff"/>
   </g>
   <g id="patch_11">
    <path d="M 263.748569 198.475 
L 265.724711 198.475 
L 265.724711 198.287343 
L 263.748569 198.287343 
z
" clip-path="url(#p543e3464da)" style="fill: #0000ff"/>
   </g>
   <g id="patch_12">
    <path d="M 288.45035 198.475 
L 290.426493 198.475 
L 290.426493 19.736905 
L 288.45035 19.736905 
z
" clip-path="url(#p543e3464da)" style="fill: #0000ff"/>
   </g>
   <g id="patch_13">
    <path d="M 313.152131 198.475 
L 315.128274 198.475 
L 315.128274 21.023066 
L 313.152131 21.023066 
z
" clip-path="url(#p543e3464da)" style="fill: #0000ff"/>
   </g>
   <g id="patch_14">
    <path d="M 337.853913 198.475 
L 339.830055 198.475 
L 339.830055 66.711231 
L 337.853913 66.711231 
z
" clip-path="url(#p543e3464da)" style="fill: #0000ff"/>
   </g>
   <g id="patch_15">
    <path d="M 362.555694 198.475 
L 364.531837 198.475 
L 364.531837 57.873257 
L 362.555694 57.873257 
z
" clip-path="url(#p543e3464da)" style="fill: #0000ff"/>
   </g>
   <g id="patch_16">
    <path d="M 387.257475 198.475 
L 389.233618 198.475 
L 389.233618 75.73515 
L 387.257475 75.73515 
z
" clip-path="url(#p543e3464da)" style="fill: #0000ff"/>
   </g>
   <g id="patch_17">
    <path d="M 411.959257 198.475 
L 413.935399 198.475 
L 413.935399 69.393807 
L 411.959257 69.393807 
z
" clip-path="url(#p543e3464da)" style="fill: #0000ff"/>
   </g>
   <g id="patch_18">
    <path d="M 68.110461 198.475 
L 70.086603 198.475 
L 70.086603 22.42613 
L 68.110461 22.42613 
z
" clip-path="url(#p543e3464da)" style="fill: #008000"/>
   </g>
   <g id="patch_19">
    <path d="M 92.812242 198.475 
L 94.788385 198.475 
L 94.788385 194.573293 
L 92.812242 194.573293 
z
" clip-path="url(#p543e3464da)" style="fill: #008000"/>
   </g>
   <g id="patch_20">
    <path d="M 117.514023 198.475 
L 119.490166 198.475 
L 119.490166 189.028533 
L 117.514023 189.028533 
z
" clip-path="url(#p543e3464da)" style="fill: #008000"/>
   </g>
   <g id="patch_21">
    <path d="M 142.215805 198.475 
L 144.191947 198.475 
L 144.191947 198.475 
L 142.215805 198.475 
z
" clip-path="url(#p543e3464da)" style="fill: #008000"/>
   </g>
   <g id="patch_22">
    <path d="M 166.917586 198.475 
L 168.893729 198.475 
L 168.893729 189.021326 
L 166.917586 189.021326 
z
" clip-path="url(#p543e3464da)" style="fill: #008000"/>
   </g>
   <g id="patch_23">
    <path d="M 191.619367 198.475 
L 193.59551 198.475 
L 193.59551 196.150944 
L 191.619367 196.150944 
z
" clip-path="url(#p543e3464da)" style="fill: #008000"/>
   </g>
   <g id="patch_24">
    <path d="M 216.321149 198.475 
L 218.297291 198.475 
L 218.297291 185.329745 
L 216.321149 185.329745 
z
" clip-path="url(#p543e3464da)" style="fill: #008000"/>
   </g>
   <g id="patch_25">
    <path d="M 241.02293 198.475 
L 242.999072 198.475 
L 242.999072 198.475 
L 241.02293 198.475 
z
" clip-path="url(#p543e3464da)" style="fill: #008000"/>
   </g>
   <g id="patch_26">
    <path d="M 265.724711 198.475 
L 267.700854 198.475 
L 267.700854 198.287343 
L 265.724711 198.287343 
z
" clip-path="url(#p543e3464da)" style="fill: #008000"/>
   </g>
   <g id="patch_27">
    <path d="M 290.426493 198.475 
L 292.402635 198.475 
L 292.402635 19.736905 
L 290.426493 19.736905 
z
" clip-path="url(#p543e3464da)" style="fill: #008000"/>
   </g>
   <g id="patch_28">
    <path d="M 315.128274 198.475 
L 317.104416 198.475 
L 317.104416 21.006749 
L 315.128274 21.006749 
z
" clip-path="url(#p543e3464da)" style="fill: #008000"/>
   </g>
   <g id="patch_29">
    <path d="M 339.830055 198.475 
L 341.806198 198.475 
L 341.806198 66.711231 
L 339.830055 66.711231 
z
" clip-path="url(#p543e3464da)" style="fill: #008000"/>
   </g>
   <g id="patch_30">
    <path d="M 364.531837 198.475 
L 366.507979 198.475 
L 366.507979 57.873257 
L 364.531837 57.873257 
z
" clip-path="url(#p543e3464da)" style="fill: #008000"/>
   </g>
   <g id="patch_31">
    <path d="M 389.233618 198.475 
L 391.20976 198.475 
L 391.20976 75.73515 
L 389.233618 75.73515 
z
" clip-path="url(#p543e3464da)" style="fill: #008000"/>
   </g>
   <g id="patch_32">
    <path d="M 413.935399 198.475 
L 415.911542 198.475 
L 415.911542 69.393807 
L 413.935399 69.393807 
z
" clip-path="url(#p543e3464da)" style="fill: #008000"/>
   </g>
   <g id="patch_33">
    <path d="M 70.086603 198.475 
L 72.062746 198.475 
L 72.062746 22.42613 
L 70.086603 22.42613 
z
" clip-path="url(#p543e3464da)" style="fill: #ff0000"/>
   </g>
   <g id="patch_34">
    <path d="M 94.788385 198.475 
L 96.764527 198.475 
L 96.764527 194.573293 
L 94.788385 194.573293 
z
" clip-path="url(#p543e3464da)" style="fill: #ff0000"/>
   </g>
   <g id="patch_35">
    <path d="M 119.490166 198.475 
L 121.466308 198.475 
L 121.466308 189.028533 
L 119.490166 189.028533 
z
" clip-path="url(#p543e3464da)" style="fill: #ff0000"/>
   </g>
   <g id="patch_36">
    <path d="M 144.191947 198.475 
L 146.16809 198.475 
L 146.16809 198.475 
L 144.191947 198.475 
z
" clip-path="url(#p543e3464da)" style="fill: #ff0000"/>
   </g>
   <g id="patch_37">
    <path d="M 168.893729 198.475 
L 170.869871 198.475 
L 170.869871 189.021326 
L 168.893729 189.021326 
z
" clip-path="url(#p543e3464da)" style="fill: #ff0000"/>
   </g>
   <g id="patch_38">
    <path d="M 193.59551 198.475 
L 195.571652 198.475 
L 195.571652 196.150944 
L 193.59551 196.150944 
z
" clip-path="url(#p543e3464da)" style="fill: #ff0000"/>
   </g>
   <g id="patch_39">
    <path d="M 218.297291 198.475 
L 220.273434 198.475 
L 220.273434 185.329745 
L 218.297291 185.329745 
z
" clip-path="url(#p543e3464da)" style="fill: #ff0000"/>
   </g>
   <g id="patch_40">
    <path d="M 242.999072 198.475 
L 244.975215 198.475 
L 244.975215 198.475 
L 242.999072 198.475 
z
" clip-path="url(#p543e3464da)" style="fill: #ff0000"/>
   </g>
   <g id="patch_41">
    <path d="M 267.700854 198.475 
L 269.676996 198.475 
L 269.676996 198.287343 
L 267.700854 198.287343 
z
" clip-path="url(#p543e3464da)" style="fill: #ff0000"/>
   </g>
   <g id="patch_42">
    <path d="M 292.402635 198.475 
L 294.378778 198.475 
L 294.378778 19.736905 
L 292.402635 19.736905 
z
" clip-path="url(#p543e3464da)" style="fill: #ff0000"/>
   </g>
   <g id="patch_43">
    <path d="M 317.104416 198.475 
L 319.080559 198.475 
L 319.080559 21.006749 
L 317.104416 21.006749 
z
" clip-path="url(#p543e3464da)" style="fill: #ff0000"/>
   </g>
   <g id="patch_44">
    <path d="M 341.806198 198.475 
L 343.78234 198.475 
L 343.78234 66.711231 
L 341.806198 66.711231 
z
" clip-path="url(#p543e3464da)" style="fill: #ff0000"/>
   </g>
   <g id="patch_45">
    <path d="M 366.507979 198.475 
L 368.484122 198.475 
L 368.484122 57.873257 
L 366.507979 57.873257 
z
" clip-path="url(#p543e3464da)" style="fill: #ff0000"/>
   </g>
   <g id="patch_46">
    <path d="M 391.20976 198.475 
L 393.185903 198.475 
L 393.185903 75.73515 
L 391.20976 75.73515 
z
" clip-path="url(#p543e3464da)" style="fill: #ff0000"/>
   </g>
   <g id="patch_47">
    <path d="M 415.911542 198.475 
L 417.887684 198.475 
L 417.887684 69.393807 
L 415.911542 69.393807 
z
" clip-path="url(#p543e3464da)" style="fill: #ff0000"/>
   </g>
   <g id="patch_48">
    <path d="M 72.062746 198.475 
L 74.038888 198.475 
L 74.038888 22.42613 
L 72.062746 22.42613 
z
" clip-path="url(#p543e3464da)" style="fill: #800080"/>
   </g>
   <g id="patch_49">
    <path d="M 96.764527 198.475 
L 98.74067 198.475 
L 98.74067 194.573293 
L 96.764527 194.573293 
z
" clip-path="url(#p543e3464da)" style="fill: #800080"/>
   </g>
   <g id="patch_50">
    <path d="M 121.466308 198.475 
L 123.442451 198.475 
L 123.442451 189.028533 
L 121.466308 189.028533 
z
" clip-path="url(#p543e3464da)" style="fill: #800080"/>
   </g>
   <g id="patch_51">
    <path d="M 146.16809 198.475 
L 148.144232 198.475 
L 148.144232 198.475 
L 146.16809 198.475 
z
" clip-path="url(#p543e3464da)" style="fill: #800080"/>
   </g>
   <g id="patch_52">
    <path d="M 170.869871 198.475 
L 172.846014 198.475 
L 172.846014 189.021326 
L 170.869871 189.021326 
z
" clip-path="url(#p543e3464da)" style="fill: #800080"/>
   </g>
   <g id="patch_53">
    <path d="M 195.571652 198.475 
L 197.547795 198.475 
L 197.547795 196.150944 
L 195.571652 196.150944 
z
" clip-path="url(#p543e3464da)" style="fill: #800080"/>
   </g>
   <g id="patch_54">
    <path d="M 220.273434 198.475 
L 222.249576 198.475 
L 222.249576 185.329745 
L 220.273434 185.329745 
z
" clip-path="url(#p543e3464da)" style="fill: #800080"/>
   </g>
   <g id="patch_55">
    <path d="M 244.975215 198.475 
L 246.951357 198.475 
L 246.951357 198.475 
L 244.975215 198.475 
z
" clip-path="url(#p543e3464da)" style="fill: #800080"/>
   </g>
   <g id="patch_56">
    <path d="M 269.676996 198.475 
L 271.653139 198.475 
L 271.653139 198.287343 
L 269.676996 198.287343 
z
" clip-path="url(#p543e3464da)" style="fill: #800080"/>
   </g>
   <g id="patch_57">
    <path d="M 294.378778 198.475 
L 296.35492 198.475 
L 296.35492 19.736905 
L 294.378778 19.736905 
z
" clip-path="url(#p543e3464da)" style="fill: #800080"/>
   </g>
   <g id="patch_58">
    <path d="M 319.080559 198.475 
L 321.056701 198.475 
L 321.056701 21.006749 
L 319.080559 21.006749 
z
" clip-path="url(#p543e3464da)" style="fill: #800080"/>
   </g>
   <g id="patch_59">
    <path d="M 343.78234 198.475 
L 345.758483 198.475 
L 345.758483 66.711231 
L 343.78234 66.711231 
z
" clip-path="url(#p543e3464da)" style="fill: #800080"/>
   </g>
   <g id="patch_60">
    <path d="M 368.484122 198.475 
L 370.460264 198.475 
L 370.460264 57.873257 
L 368.484122 57.873257 
z
" clip-path="url(#p543e3464da)" style="fill: #800080"/>
   </g>
   <g id="patch_61">
    <path d="M 393.185903 198.475 
L 395.162045 198.475 
L 395.162045 75.73515 
L 393.185903 75.73515 
z
" clip-path="url(#p543e3464da)" style="fill: #800080"/>
   </g>
   <g id="patch_62">
    <path d="M 417.887684 198.475 
L 419.863827 198.475 
L 419.863827 69.393807 
L 417.887684 69.393807 
z
" clip-path="url(#p543e3464da)" style="fill: #800080"/>
   </g>
   <g id="patch_63">
    <path d="M 74.038888 198.475 
L 76.015031 198.475 
L 76.015031 22.42613 
L 74.038888 22.42613 
z
" clip-path="url(#p543e3464da)" style="fill: #a52a2a"/>
   </g>
   <g id="patch_64">
    <path d="M 98.74067 198.475 
L 100.716812 198.475 
L 100.716812 194.573293 
L 98.74067 194.573293 
z
" clip-path="url(#p543e3464da)" style="fill: #a52a2a"/>
   </g>
   <g id="patch_65">
    <path d="M 123.442451 198.475 
L 125.418593 198.475 
L 125.418593 189.028533 
L 123.442451 189.028533 
z
" clip-path="url(#p543e3464da)" style="fill: #a52a2a"/>
   </g>
   <g id="patch_66">
    <path d="M 148.144232 198.475 
L 150.120375 198.475 
L 150.120375 198.475 
L 148.144232 198.475 
z
" clip-path="url(#p543e3464da)" style="fill: #a52a2a"/>
   </g>
   <g id="patch_67">
    <path d="M 172.846014 198.475 
L 174.822156 198.475 
L 174.822156 189.021326 
L 172.846014 189.021326 
z
" clip-path="url(#p543e3464da)" style="fill: #a52a2a"/>
   </g>
   <g id="patch_68">
    <path d="M 197.547795 198.475 
L 199.523937 198.475 
L 199.523937 196.150944 
L 197.547795 196.150944 
z
" clip-path="url(#p543e3464da)" style="fill: #a52a2a"/>
   </g>
   <g id="patch_69">
    <path d="M 222.249576 198.475 
L 224.225719 198.475 
L 224.225719 185.329745 
L 222.249576 185.329745 
z
" clip-path="url(#p543e3464da)" style="fill: #a52a2a"/>
   </g>
   <g id="patch_70">
    <path d="M 246.951357 198.475 
L 248.9275 198.475 
L 248.9275 198.475 
L 246.951357 198.475 
z
" clip-path="url(#p543e3464da)" style="fill: #a52a2a"/>
   </g>
   <g id="patch_71">
    <path d="M 271.653139 198.475 
L 273.629281 198.475 
L 273.629281 198.287343 
L 271.653139 198.287343 
z
" clip-path="url(#p543e3464da)" style="fill: #a52a2a"/>
   </g>
   <g id="patch_72">
    <path d="M 296.35492 198.475 
L 298.331063 198.475 
L 298.331063 19.736905 
L 296.35492 19.736905 
z
" clip-path="url(#p543e3464da)" style="fill: #a52a2a"/>
   </g>
   <g id="patch_73">
    <path d="M 321.056701 198.475 
L 323.032844 198.475 
L 323.032844 21.006749 
L 321.056701 21.006749 
z
" clip-path="url(#p543e3464da)" style="fill: #a52a2a"/>
   </g>
   <g id="patch_74">
    <path d="M 345.758483 198.475 
L 347.734625 198.475 
L 347.734625 66.711231 
L 345.758483 66.711231 
z
" clip-path="url(#p543e3464da)" style="fill: #a52a2a"/>
   </g>
   <g id="patch_75">
    <path d="M 370.460264 198.475 
L 372.436407 198.475 
L 372.436407 57.873257 
L 370.460264 57.873257 
z
" clip-path="url(#p543e3464da)" style="fill: #a52a2a"/>
   </g>
   <g id="patch_76">
    <path d="M 395.162045 198.475 
L 397.138188 198.475 
L 397.138188 75.73515 
L 395.162045 75.73515 
z
" clip-path="url(#p543e3464da)" style="fill: #a52a2a"/>
   </g>
   <g id="patch_77">
    <path d="M 419.863827 198.475 
L 421.839969 198.475 
L 421.839969 69.393807 
L 419.863827 69.393807 
z
" clip-path="url(#p543e3464da)" style="fill: #a52a2a"/>
   </g>
   <g id="patch_78">
    <path d="M 76.015031 198.475 
L 77.991173 198.475 
L 77.991173 22.42613 
L 76.015031 22.42613 
z
" clip-path="url(#p543e3464da)" style="fill: #ffc0cb"/>
   </g>
   <g id="patch_79">
    <path d="M 100.716812 198.475 
L 102.692955 198.475 
L 102.692955 194.573293 
L 100.716812 194.573293 
z
" clip-path="url(#p543e3464da)" style="fill: #ffc0cb"/>
   </g>
   <g id="patch_80">
    <path d="M 125.418593 198.475 
L 127.394736 198.475 
L 127.394736 189.028533 
L 125.418593 189.028533 
z
" clip-path="url(#p543e3464da)" style="fill: #ffc0cb"/>
   </g>
   <g id="patch_81">
    <path d="M 150.120375 198.475 
L 152.096517 198.475 
L 152.096517 198.475 
L 150.120375 198.475 
z
" clip-path="url(#p543e3464da)" style="fill: #ffc0cb"/>
   </g>
   <g id="patch_82">
    <path d="M 174.822156 198.475 
L 176.798299 198.475 
L 176.798299 189.021326 
L 174.822156 189.021326 
z
" clip-path="url(#p543e3464da)" style="fill: #ffc0cb"/>
   </g>
   <g id="patch_83">
    <path d="M 199.523937 198.475 
L 201.50008 198.475 
L 201.50008 196.150944 
L 199.523937 196.150944 
z
" clip-path="url(#p543e3464da)" style="fill: #ffc0cb"/>
   </g>
   <g id="patch_84">
    <path d="M 224.225719 198.475 
L 226.201861 198.475 
L 226.201861 185.329745 
L 224.225719 185.329745 
z
" clip-path="url(#p543e3464da)" style="fill: #ffc0cb"/>
   </g>
   <g id="patch_85">
    <path d="M 248.9275 198.475 
L 250.903643 198.475 
L 250.903643 198.475 
L 248.9275 198.475 
z
" clip-path="url(#p543e3464da)" style="fill: #ffc0cb"/>
   </g>
   <g id="patch_86">
    <path d="M 273.629281 198.475 
L 275.605424 198.475 
L 275.605424 198.287343 
L 273.629281 198.287343 
z
" clip-path="url(#p543e3464da)" style="fill: #ffc0cb"/>
   </g>
   <g id="patch_87">
    <path d="M 298.331063 198.475 
L 300.307205 198.475 
L 300.307205 19.736905 
L 298.331063 19.736905 
z
" clip-path="url(#p543e3464da)" style="fill: #ffc0cb"/>
   </g>
   <g id="patch_88">
    <path d="M 323.032844 198.475 
L 325.008986 198.475 
L 325.008986 21.006749 
L 323.032844 21.006749 
z
" clip-path="url(#p543e3464da)" style="fill: #ffc0cb"/>
   </g>
   <g id="patch_89">
    <path d="M 347.734625 198.475 
L 349.710768 198.475 
L 349.710768 66.711231 
L 347.734625 66.711231 
z
" clip-path="url(#p543e3464da)" style="fill: #ffc0cb"/>
   </g>
   <g id="patch_90">
    <path d="M 372.436407 198.475 
L 374.412549 198.475 
L 374.412549 57.873257 
L 372.436407 57.873257 
z
" clip-path="url(#p543e3464da)" style="fill: #ffc0cb"/>
   </g>
   <g id="patch_91">
    <path d="M 397.138188 198.475 
L 399.11433 198.475 
L 399.11433 75.73515 
L 397.138188 75.73515 
z
" clip-path="url(#p543e3464da)" style="fill: #ffc0cb"/>
   </g>
   <g id="patch_92">
    <path d="M 421.839969 198.475 
L 423.816112 198.475 
L 423.816112 69.393807 
L 421.839969 69.393807 
z
" clip-path="url(#p543e3464da)" style="fill: #ffc0cb"/>
   </g>
   <g id="patch_93">
    <path d="M 77.991173 198.475 
L 79.967316 198.475 
L 79.967316 22.718891 
L 77.991173 22.718891 
z
" clip-path="url(#p543e3464da)" style="fill: #808080"/>
   </g>
   <g id="patch_94">
    <path d="M 102.692955 198.475 
L 104.669097 198.475 
L 104.669097 195.512653 
L 102.692955 195.512653 
z
" clip-path="url(#p543e3464da)" style="fill: #808080"/>
   </g>
   <g id="patch_95">
    <path d="M 127.394736 198.475 
L 129.370878 198.475 
L 129.370878 191.808861 
L 127.394736 191.808861 
z
" clip-path="url(#p543e3464da)" style="fill: #808080"/>
   </g>
   <g id="patch_96">
    <path d="M 152.096517 198.475 
L 154.07266 198.475 
L 154.07266 198.475 
L 152.096517 198.475 
z
" clip-path="url(#p543e3464da)" style="fill: #808080"/>
   </g>
   <g id="patch_97">
    <path d="M 176.798299 198.475 
L 178.774441 198.475 
L 178.774441 191.473436 
L 176.798299 191.473436 
z
" clip-path="url(#p543e3464da)" style="fill: #808080"/>
   </g>
   <g id="patch_98">
    <path d="M 201.50008 198.475 
L 203.476222 198.475 
L 203.476222 196.927583 
L 201.50008 196.927583 
z
" clip-path="url(#p543e3464da)" style="fill: #808080"/>
   </g>
   <g id="patch_99">
    <path d="M 226.201861 198.475 
L 228.178004 198.475 
L 228.178004 188.714954 
L 226.201861 188.714954 
z
" clip-path="url(#p543e3464da)" style="fill: #808080"/>
   </g>
   <g id="patch_100">
    <path d="M 250.903643 198.475 
L 252.879785 198.475 
L 252.879785 198.475 
L 250.903643 198.475 
z
" clip-path="url(#p543e3464da)" style="fill: #808080"/>
   </g>
   <g id="patch_101">
    <path d="M 275.605424 198.475 
L 277.581566 198.475 
L 277.581566 198.352615 
L 275.605424 198.352615 
z
" clip-path="url(#p543e3464da)" style="fill: #808080"/>
   </g>
   <g id="patch_102">
    <path d="M 300.307205 198.475 
L 302.283348 198.475 
L 302.283348 20.08737 
L 300.307205 20.08737 
z
" clip-path="url(#p543e3464da)" style="fill: #808080"/>
   </g>
   <g id="patch_103">
    <path d="M 325.008986 198.475 
L 326.985129 198.475 
L 326.985129 21.407745 
L 325.008986 21.407745 
z
" clip-path="url(#p543e3464da)" style="fill: #808080"/>
   </g>
   <g id="patch_104">
    <path d="M 349.710768 198.475 
L 351.68691 198.475 
L 351.68691 66.932301 
L 349.710768 66.932301 
z
" clip-path="url(#p543e3464da)" style="fill: #808080"/>
   </g>
   <g id="patch_105">
    <path d="M 374.412549 198.475 
L 376.388692 198.475 
L 376.388692 58.191458 
L 374.412549 58.191458 
z
" clip-path="url(#p543e3464da)" style="fill: #808080"/>
   </g>
   <g id="patch_106">
    <path d="M 399.11433 198.475 
L 401.090473 198.475 
L 401.090473 76.093969 
L 399.11433 76.093969 
z
" clip-path="url(#p543e3464da)" style="fill: #808080"/>
   </g>
   <g id="patch_107">
    <path d="M 423.816112 198.475 
L 425.792254 198.475 
L 425.792254 69.570245 
L 423.816112 69.570245 
z
" clip-path="url(#p543e3464da)" style="fill: #808080"/>
   </g>
   <g id="patch_108">
    <path d="M 79.967316 198.475 
L 81.943458 198.475 
L 81.943458 25.435658 
L 79.967316 25.435658 
z
" clip-path="url(#p543e3464da)" style="fill: #808000"/>
   </g>
   <g id="patch_109">
    <path d="M 104.669097 198.475 
L 106.64524 198.475 
L 106.64524 197.029871 
L 104.669097 197.029871 
z
" clip-path="url(#p543e3464da)" style="fill: #808000"/>
   </g>
   <g id="patch_110">
    <path d="M 129.370878 198.475 
L 131.347021 198.475 
L 131.347021 194.391438 
L 129.370878 194.391438 
z
" clip-path="url(#p543e3464da)" style="fill: #808000"/>
   </g>
   <g id="patch_111">
    <path d="M 154.07266 198.475 
L 156.048802 198.475 
L 156.048802 198.475 
L 154.07266 198.475 
z
" clip-path="url(#p543e3464da)" style="fill: #808000"/>
   </g>
   <g id="patch_112">
    <path d="M 178.774441 198.475 
L 180.750584 198.475 
L 180.750584 195.137941 
L 178.774441 195.137941 
z
" clip-path="url(#p543e3464da)" style="fill: #808000"/>
   </g>
   <g id="patch_113">
    <path d="M 203.476222 198.475 
L 205.452365 198.475 
L 205.452365 197.615834 
L 203.476222 197.615834 
z
" clip-path="url(#p543e3464da)" style="fill: #808000"/>
   </g>
   <g id="patch_114">
    <path d="M 228.178004 198.475 
L 230.154146 198.475 
L 230.154146 193.279806 
L 228.178004 193.279806 
z
" clip-path="url(#p543e3464da)" style="fill: #808000"/>
   </g>
   <g id="patch_115">
    <path d="M 252.879785 198.475 
L 254.855928 198.475 
L 254.855928 198.475 
L 252.879785 198.475 
z
" clip-path="url(#p543e3464da)" style="fill: #808000"/>
   </g>
   <g id="patch_116">
    <path d="M 277.581566 198.475 
L 279.557709 198.475 
L 279.557709 198.475 
L 277.581566 198.475 
z
" clip-path="url(#p543e3464da)" style="fill: #808000"/>
   </g>
   <g id="patch_117">
    <path d="M 302.283348 198.475 
L 304.25949 198.475 
L 304.25949 22.745568 
L 302.283348 22.745568 
z
" clip-path="url(#p543e3464da)" style="fill: #808000"/>
   </g>
   <g id="patch_118">
    <path d="M 326.985129 198.475 
L 328.961271 198.475 
L 328.961271 25.116686 
L 326.985129 25.116686 
z
" clip-path="url(#p543e3464da)" style="fill: #808000"/>
   </g>
   <g id="patch_119">
    <path d="M 351.68691 198.475 
L 353.663053 198.475 
L 353.663053 68.723215 
L 351.68691 68.723215 
z
" clip-path="url(#p543e3464da)" style="fill: #808000"/>
   </g>
   <g id="patch_120">
    <path d="M 376.388692 198.475 
L 378.364834 198.475 
L 378.364834 60.687604 
L 376.388692 60.687604 
z
" clip-path="url(#p543e3464da)" style="fill: #808000"/>
   </g>
   <g id="patch_121">
    <path d="M 401.090473 198.475 
L 403.066615 198.475 
L 403.066615 78.445614 
L 401.090473 78.445614 
z
" clip-path="url(#p543e3464da)" style="fill: #808000"/>
   </g>
   <g id="patch_122">
    <path d="M 425.792254 198.475 
L 427.768397 198.475 
L 427.768397 72.336278 
L 425.792254 72.336278 
z
" clip-path="url(#p543e3464da)" style="fill: #808000"/>
   </g>
   <g id="patch_123">
    <path d="M 81.943458 198.475 
L 83.919601 198.475 
L 83.919601 45.757546 
L 81.943458 45.757546 
z
" clip-path="url(#p543e3464da)" style="fill: #00ffff"/>
   </g>
   <g id="patch_124">
    <path d="M 106.64524 198.475 
L 108.621382 198.475 
L 108.621382 198.033673 
L 106.64524 198.033673 
z
" clip-path="url(#p543e3464da)" style="fill: #00ffff"/>
   </g>
   <g id="patch_125">
    <path d="M 131.347021 198.475 
L 133.323163 198.475 
L 133.323163 197.403454 
L 131.347021 197.403454 
z
" clip-path="url(#p543e3464da)" style="fill: #00ffff"/>
   </g>
   <g id="patch_126">
    <path d="M 156.048802 198.475 
L 158.024945 198.475 
L 158.024945 198.475 
L 156.048802 198.475 
z
" clip-path="url(#p543e3464da)" style="fill: #00ffff"/>
   </g>
   <g id="patch_127">
    <path d="M 180.750584 198.475 
L 182.726726 198.475 
L 182.726726 197.839588 
L 180.750584 197.839588 
z
" clip-path="url(#p543e3464da)" style="fill: #00ffff"/>
   </g>
   <g id="patch_128">
    <path d="M 205.452365 198.475 
L 207.428507 198.475 
L 207.428507 198.284624 
L 205.452365 198.284624 
z
" clip-path="url(#p543e3464da)" style="fill: #00ffff"/>
   </g>
   <g id="patch_129">
    <path d="M 230.154146 198.475 
L 232.130289 198.475 
L 232.130289 196.799793 
L 230.154146 196.799793 
z
" clip-path="url(#p543e3464da)" style="fill: #00ffff"/>
   </g>
   <g id="patch_130">
    <path d="M 254.855928 198.475 
L 256.83207 198.475 
L 256.83207 198.475 
L 254.855928 198.475 
z
" clip-path="url(#p543e3464da)" style="fill: #00ffff"/>
   </g>
   <g id="patch_131">
    <path d="M 279.557709 198.475 
L 281.533851 198.475 
L 281.533851 198.475 
L 279.557709 198.475 
z
" clip-path="url(#p543e3464da)" style="fill: #00ffff"/>
   </g>
   <g id="patch_132">
    <path d="M 304.25949 198.475 
L 306.235633 198.475 
L 306.235633 41.72524 
L 304.25949 41.72524 
z
" clip-path="url(#p543e3464da)" style="fill: #00ffff"/>
   </g>
   <g id="patch_133">
    <path d="M 328.961271 198.475 
L 330.937414 198.475 
L 330.937414 50.750066 
L 328.961271 50.750066 
z
" clip-path="url(#p543e3464da)" style="fill: #00ffff"/>
   </g>
   <g id="patch_134">
    <path d="M 353.663053 198.475 
L 355.639195 198.475 
L 355.639195 87.819413 
L 353.663053 87.819413 
z
" clip-path="url(#p543e3464da)" style="fill: #00ffff"/>
   </g>
   <g id="patch_135">
    <path d="M 378.364834 198.475 
L 380.340977 198.475 
L 380.340977 78.84027 
L 378.364834 78.84027 
z
" clip-path="url(#p543e3464da)" style="fill: #00ffff"/>
   </g>
   <g id="patch_136">
    <path d="M 403.066615 198.475 
L 405.042758 198.475 
L 405.042758 96.899847 
L 403.066615 96.899847 
z
" clip-path="url(#p543e3464da)" style="fill: #00ffff"/>
   </g>
   <g id="patch_137">
    <path d="M 427.768397 198.475 
L 429.744539 198.475 
L 429.744539 88.09253 
L 427.768397 88.09253 
z
" clip-path="url(#p543e3464da)" style="fill: #00ffff"/>
   </g>
   <g id="patch_138">
    <path d="M 83.919601 198.475 
L 85.895743 198.475 
L 85.895743 135.84676 
L 83.919601 135.84676 
z
" clip-path="url(#p543e3464da)" style="fill: #800000"/>
   </g>
   <g id="patch_139">
    <path d="M 108.621382 198.475 
L 110.597525 198.475 
L 110.597525 198.475 
L 108.621382 198.475 
z
" clip-path="url(#p543e3464da)" style="fill: #800000"/>
   </g>
   <g id="patch_140">
    <path d="M 133.323163 198.475 
L 135.299306 198.475 
L 135.299306 198.230231 
L 133.323163 198.230231 
z
" clip-path="url(#p543e3464da)" style="fill: #800000"/>
   </g>
   <g id="patch_141">
    <path d="M 158.024945 198.475 
L 160.001087 198.475 
L 160.001087 198.475 
L 158.024945 198.475 
z
" clip-path="url(#p543e3464da)" style="fill: #800000"/>
   </g>
   <g id="patch_142">
    <path d="M 182.726726 198.475 
L 184.702869 198.475 
L 184.702869 198.274734 
L 182.726726 198.274734 
z
" clip-path="url(#p543e3464da)" style="fill: #800000"/>
   </g>
   <g id="patch_143">
    <path d="M 207.428507 198.475 
L 209.40465 198.475 
L 209.40465 198.475 
L 207.428507 198.475 
z
" clip-path="url(#p543e3464da)" style="fill: #800000"/>
   </g>
   <g id="patch_144">
    <path d="M 232.130289 198.475 
L 234.106431 198.475 
L 234.106431 198.475 
L 232.130289 198.475 
z
" clip-path="url(#p543e3464da)" style="fill: #800000"/>
   </g>
   <g id="patch_145">
    <path d="M 256.83207 198.475 
L 258.808213 198.475 
L 258.808213 198.475 
L 256.83207 198.475 
z
" clip-path="url(#p543e3464da)" style="fill: #800000"/>
   </g>
   <g id="patch_146">
    <path d="M 281.533851 198.475 
L 283.509994 198.475 
L 283.509994 198.475 
L 281.533851 198.475 
z
" clip-path="url(#p543e3464da)" style="fill: #800000"/>
   </g>
   <g id="patch_147">
    <path d="M 306.235633 198.475 
L 308.211775 198.475 
L 308.211775 136.553555 
L 306.235633 136.553555 
z
" clip-path="url(#p543e3464da)" style="fill: #800000"/>
   </g>
   <g id="patch_148">
    <path d="M 330.937414 198.475 
L 332.913557 198.475 
L 332.913557 138.707172 
L 330.937414 138.707172 
z
" clip-path="url(#p543e3464da)" style="fill: #800000"/>
   </g>
   <g id="patch_149">
    <path d="M 355.639195 198.475 
L 357.615338 198.475 
L 357.615338 157.712639 
L 355.639195 157.712639 
z
" clip-path="url(#p543e3464da)" style="fill: #800000"/>
   </g>
   <g id="patch_150">
    <path d="M 380.340977 198.475 
L 382.317119 198.475 
L 382.317119 150.111337 
L 380.340977 150.111337 
z
" clip-path="url(#p543e3464da)" style="fill: #800000"/>
   </g>
   <g id="patch_151">
    <path d="M 405.042758 198.475 
L 407.0189 198.475 
L 407.0189 160.457899 
L 405.042758 160.457899 
z
" clip-path="url(#p543e3464da)" style="fill: #800000"/>
   </g>
   <g id="patch_152">
    <path d="M 429.744539 198.475 
L 431.720682 198.475 
L 431.720682 158.30364 
L 429.744539 158.30364 
z
" clip-path="url(#p543e3464da)" style="fill: #800000"/>
   </g>
   <g id="matplotlib.axis_1">
    <g id="xtick_1">
     <g id="line2d_1">
      <defs>
       <path id="mfd9231b22f" d="M 0 0 
L 0 3.5 
" style="stroke: #000000; stroke-width: 0.8"/>
      </defs>
      <g>
       <use xlink:href="#mfd9231b22f" x="76.015031" y="198.475" style="stroke: #000000; stroke-width: 0.8"/>
      </g>
     </g>
     <g id="text_1">
      <!-- fasterrcnn -->
      <g transform="translate(73.935343 256.401563) rotate(-90) scale(0.1 -0.1)">
       <defs>
        <path id="DejaVuSans-66" d="M 2375 4863 
L 2375 4384 
L 1825 4384 
Q 1516 4384 1395 4259 
Q 1275 4134 1275 3809 
L 1275 3500 
L 2222 3500 
L 2222 3053 
L 1275 3053 
L 1275 0 
L 697 0 
L 697 3053 
L 147 3053 
L 147 3500 
L 697 3500 
L 697 3744 
Q 697 4328 969 4595 
Q 1241 4863 1831 4863 
L 2375 4863 
z
" transform="scale(0.015625)"/>
        <path id="DejaVuSans-61" d="M 2194 1759 
Q 1497 1759 1228 1600 
Q 959 1441 959 1056 
Q 959 750 1161 570 
Q 1363 391 1709 391 
Q 2188 391 2477 730 
Q 2766 1069 2766 1631 
L 2766 1759 
L 2194 1759 
z
M 3341 1997 
L 3341 0 
L 2766 0 
L 2766 531 
Q 2569 213 2275 61 
Q 1981 -91 1556 -91 
Q 1019 -91 701 211 
Q 384 513 384 1019 
Q 384 1609 779 1909 
Q 1175 2209 1959 2209 
L 2766 2209 
L 2766 2266 
Q 2766 2663 2505 2880 
Q 2244 3097 1772 3097 
Q 1472 3097 1187 3025 
Q 903 2953 641 2809 
L 641 3341 
Q 956 3463 1253 3523 
Q 1550 3584 1831 3584 
Q 2591 3584 2966 3190 
Q 3341 2797 3341 1997 
z
" transform="scale(0.015625)"/>
        <path id="DejaVuSans-73" d="M 2834 3397 
L 2834 2853 
Q 2591 2978 2328 3040 
Q 2066 3103 1784 3103 
Q 1356 3103 1142 2972 
Q 928 2841 928 2578 
Q 928 2378 1081 2264 
Q 1234 2150 1697 2047 
L 1894 2003 
Q 2506 1872 2764 1633 
Q 3022 1394 3022 966 
Q 3022 478 2636 193 
Q 2250 -91 1575 -91 
Q 1294 -91 989 -36 
Q 684 19 347 128 
L 347 722 
Q 666 556 975 473 
Q 1284 391 1588 391 
Q 1994 391 2212 530 
Q 2431 669 2431 922 
Q 2431 1156 2273 1281 
Q 2116 1406 1581 1522 
L 1381 1569 
Q 847 1681 609 1914 
Q 372 2147 372 2553 
Q 372 3047 722 3315 
Q 1072 3584 1716 3584 
Q 2034 3584 2315 3537 
Q 2597 3491 2834 3397 
z
" transform="scale(0.015625)"/>
        <path id="DejaVuSans-74" d="M 1172 4494 
L 1172 3500 
L 2356 3500 
L 2356 3053 
L 1172 3053 
L 1172 1153 
Q 1172 725 1289 603 
Q 1406 481 1766 481 
L 2356 481 
L 2356 0 
L 1766 0 
Q 1100 0 847 248 
Q 594 497 594 1153 
L 594 3053 
L 172 3053 
L 172 3500 
L 594 3500 
L 594 4494 
L 1172 4494 
z
" transform="scale(0.015625)"/>
        <path id="DejaVuSans-65" d="M 3597 1894 
L 3597 1613 
L 953 1613 
Q 991 1019 1311 708 
Q 1631 397 2203 397 
Q 2534 397 2845 478 
Q 3156 559 3463 722 
L 3463 178 
Q 3153 47 2828 -22 
Q 2503 -91 2169 -91 
Q 1331 -91 842 396 
Q 353 884 353 1716 
Q 353 2575 817 3079 
Q 1281 3584 2069 3584 
Q 2775 3584 3186 3129 
Q 3597 2675 3597 1894 
z
M 3022 2063 
Q 3016 2534 2758 2815 
Q 2500 3097 2075 3097 
Q 1594 3097 1305 2825 
Q 1016 2553 972 2059 
L 3022 2063 
z
" transform="scale(0.015625)"/>
        <path id="DejaVuSans-72" d="M 2631 2963 
Q 2534 3019 2420 3045 
Q 2306 3072 2169 3072 
Q 1681 3072 1420 2755 
Q 1159 2438 1159 1844 
L 1159 0 
L 581 0 
L 581 3500 
L 1159 3500 
L 1159 2956 
Q 1341 3275 1631 3429 
Q 1922 3584 2338 3584 
Q 2397 3584 2469 3576 
Q 2541 3569 2628 3553 
L 2631 2963 
z
" transform="scale(0.015625)"/>
        <path id="DejaVuSans-63" d="M 3122 3366 
L 3122 2828 
Q 2878 2963 2633 3030 
Q 2388 3097 2138 3097 
Q 1578 3097 1268 2742 
Q 959 2388 959 1747 
Q 959 1106 1268 751 
Q 1578 397 2138 397 
Q 2388 397 2633 464 
Q 2878 531 3122 666 
L 3122 134 
Q 2881 22 2623 -34 
Q 2366 -91 2075 -91 
Q 1284 -91 818 406 
Q 353 903 353 1747 
Q 353 2603 823 3093 
Q 1294 3584 2113 3584 
Q 2378 3584 2631 3529 
Q 2884 3475 3122 3366 
z
" transform="scale(0.015625)"/>
        <path id="DejaVuSans-6e" d="M 3513 2113 
L 3513 0 
L 2938 0 
L 2938 2094 
Q 2938 2591 2744 2837 
Q 2550 3084 2163 3084 
Q 1697 3084 1428 2787 
Q 1159 2491 1159 1978 
L 1159 0 
L 581 0 
L 581 3500 
L 1159 3500 
L 1159 2956 
Q 1366 3272 1645 3428 
Q 1925 3584 2291 3584 
Q 2894 3584 3203 3211 
Q 3513 2838 3513 2113 
z
" transform="scale(0.015625)"/>
       </defs>
       <use xlink:href="#DejaVuSans-66"/>
       <use xlink:href="#DejaVuSans-61" transform="translate(35.205078 0)"/>
       <use xlink:href="#DejaVuSans-73" transform="translate(96.484375 0)"/>
       <use xlink:href="#DejaVuSans-74" transform="translate(148.583984 0)"/>
       <use xlink:href="#DejaVuSans-65" transform="translate(187.792969 0)"/>
       <use xlink:href="#DejaVuSans-72" transform="translate(249.316406 0)"/>
       <use xlink:href="#DejaVuSans-72" transform="translate(288.679688 0)"/>
       <use xlink:href="#DejaVuSans-63" transform="translate(327.542969 0)"/>
       <use xlink:href="#DejaVuSans-6e" transform="translate(382.523438 0)"/>
       <use xlink:href="#DejaVuSans-6e" transform="translate(445.902344 0)"/>
      </g>
     </g>
    </g>
    <g id="xtick_2">
     <g id="line2d_2">
      <g>
       <use xlink:href="#mfd9231b22f" x="100.716812" y="198.475" style="stroke: #000000; stroke-width: 0.8"/>
      </g>
     </g>
     <g id="text_2">
      <!-- gemini-2.0-flash -->
      <g transform="translate(98.637125 286.703125) rotate(-90) scale(0.1 -0.1)">
       <defs>
        <path id="DejaVuSans-67" d="M 2906 1791 
Q 2906 2416 2648 2759 
Q 2391 3103 1925 3103 
Q 1463 3103 1205 2759 
Q 947 2416 947 1791 
Q 947 1169 1205 825 
Q 1463 481 1925 481 
Q 2391 481 2648 825 
Q 2906 1169 2906 1791 
z
M 3481 434 
Q 3481 -459 3084 -895 
Q 2688 -1331 1869 -1331 
Q 1566 -1331 1297 -1286 
Q 1028 -1241 775 -1147 
L 775 -588 
Q 1028 -725 1275 -790 
Q 1522 -856 1778 -856 
Q 2344 -856 2625 -561 
Q 2906 -266 2906 331 
L 2906 616 
Q 2728 306 2450 153 
Q 2172 0 1784 0 
Q 1141 0 747 490 
Q 353 981 353 1791 
Q 353 2603 747 3093 
Q 1141 3584 1784 3584 
Q 2172 3584 2450 3431 
Q 2728 3278 2906 2969 
L 2906 3500 
L 3481 3500 
L 3481 434 
z
" transform="scale(0.015625)"/>
        <path id="DejaVuSans-6d" d="M 3328 2828 
Q 3544 3216 3844 3400 
Q 4144 3584 4550 3584 
Q 5097 3584 5394 3201 
Q 5691 2819 5691 2113 
L 5691 0 
L 5113 0 
L 5113 2094 
Q 5113 2597 4934 2840 
Q 4756 3084 4391 3084 
Q 3944 3084 3684 2787 
Q 3425 2491 3425 1978 
L 3425 0 
L 2847 0 
L 2847 2094 
Q 2847 2600 2669 2842 
Q 2491 3084 2119 3084 
Q 1678 3084 1418 2786 
Q 1159 2488 1159 1978 
L 1159 0 
L 581 0 
L 581 3500 
L 1159 3500 
L 1159 2956 
Q 1356 3278 1631 3431 
Q 1906 3584 2284 3584 
Q 2666 3584 2933 3390 
Q 3200 3197 3328 2828 
z
" transform="scale(0.015625)"/>
        <path id="DejaVuSans-69" d="M 603 3500 
L 1178 3500 
L 1178 0 
L 603 0 
L 603 3500 
z
M 603 4863 
L 1178 4863 
L 1178 4134 
L 603 4134 
L 603 4863 
z
" transform="scale(0.015625)"/>
        <path id="DejaVuSans-2d" d="M 313 2009 
L 1997 2009 
L 1997 1497 
L 313 1497 
L 313 2009 
z
" transform="scale(0.015625)"/>
        <path id="DejaVuSans-32" d="M 1228 531 
L 3431 531 
L 3431 0 
L 469 0 
L 469 531 
Q 828 903 1448 1529 
Q 2069 2156 2228 2338 
Q 2531 2678 2651 2914 
Q 2772 3150 2772 3378 
Q 2772 3750 2511 3984 
Q 2250 4219 1831 4219 
Q 1534 4219 1204 4116 
Q 875 4013 500 3803 
L 500 4441 
Q 881 4594 1212 4672 
Q 1544 4750 1819 4750 
Q 2544 4750 2975 4387 
Q 3406 4025 3406 3419 
Q 3406 3131 3298 2873 
Q 3191 2616 2906 2266 
Q 2828 2175 2409 1742 
Q 1991 1309 1228 531 
z
" transform="scale(0.015625)"/>
        <path id="DejaVuSans-2e" d="M 684 794 
L 1344 794 
L 1344 0 
L 684 0 
L 684 794 
z
" transform="scale(0.015625)"/>
        <path id="DejaVuSans-30" d="M 2034 4250 
Q 1547 4250 1301 3770 
Q 1056 3291 1056 2328 
Q 1056 1369 1301 889 
Q 1547 409 2034 409 
Q 2525 409 2770 889 
Q 3016 1369 3016 2328 
Q 3016 3291 2770 3770 
Q 2525 4250 2034 4250 
z
M 2034 4750 
Q 2819 4750 3233 4129 
Q 3647 3509 3647 2328 
Q 3647 1150 3233 529 
Q 2819 -91 2034 -91 
Q 1250 -91 836 529 
Q 422 1150 422 2328 
Q 422 3509 836 4129 
Q 1250 4750 2034 4750 
z
" transform="scale(0.015625)"/>
        <path id="DejaVuSans-6c" d="M 603 4863 
L 1178 4863 
L 1178 0 
L 603 0 
L 603 4863 
z
" transform="scale(0.015625)"/>
        <path id="DejaVuSans-68" d="M 3513 2113 
L 3513 0 
L 2938 0 
L 2938 2094 
Q 2938 2591 2744 2837 
Q 2550 3084 2163 3084 
Q 1697 3084 1428 2787 
Q 1159 2491 1159 1978 
L 1159 0 
L 581 0 
L 581 4863 
L 1159 4863 
L 1159 2956 
Q 1366 3272 1645 3428 
Q 1925 3584 2291 3584 
Q 2894 3584 3203 3211 
Q 3513 2838 3513 2113 
z
" transform="scale(0.015625)"/>
       </defs>
       <use xlink:href="#DejaVuSans-67"/>
       <use xlink:href="#DejaVuSans-65" transform="translate(63.476562 0)"/>
       <use xlink:href="#DejaVuSans-6d" transform="translate(125 0)"/>
       <use xlink:href="#DejaVuSans-69" transform="translate(222.412109 0)"/>
       <use xlink:href="#DejaVuSans-6e" transform="translate(250.195312 0)"/>
       <use xlink:href="#DejaVuSans-69" transform="translate(313.574219 0)"/>
       <use xlink:href="#DejaVuSans-2d" transform="translate(341.357422 0)"/>
       <use xlink:href="#DejaVuSans-32" transform="translate(377.441406 0)"/>
       <use xlink:href="#DejaVuSans-2e" transform="translate(441.064453 0)"/>
       <use xlink:href="#DejaVuSans-30" transform="translate(472.851562 0)"/>
       <use xlink:href="#DejaVuSans-2d" transform="translate(536.474609 0)"/>
       <use xlink:href="#DejaVuSans-66" transform="translate(572.558594 0)"/>
       <use xlink:href="#DejaVuSans-6c" transform="translate(607.763672 0)"/>
       <use xlink:href="#DejaVuSans-61" transform="translate(635.546875 0)"/>
       <use xlink:href="#DejaVuSans-73" transform="translate(696.826172 0)"/>
       <use xlink:href="#DejaVuSans-68" transform="translate(748.925781 0)"/>
      </g>
     </g>
    </g>
    <g id="xtick_3">
     <g id="line2d_3">
      <g>
       <use xlink:href="#mfd9231b22f" x="125.418593" y="198.475" style="stroke: #000000; stroke-width: 0.8"/>
      </g>
     </g>
     <g id="text_3">
      <!-- gemini-2.5-flash -->
      <g transform="translate(123.338906 286.703125) rotate(-90) scale(0.1 -0.1)">
       <defs>
        <path id="DejaVuSans-35" d="M 691 4666 
L 3169 4666 
L 3169 4134 
L 1269 4134 
L 1269 2991 
Q 1406 3038 1543 3061 
Q 1681 3084 1819 3084 
Q 2600 3084 3056 2656 
Q 3513 2228 3513 1497 
Q 3513 744 3044 326 
Q 2575 -91 1722 -91 
Q 1428 -91 1123 -41 
Q 819 9 494 109 
L 494 744 
Q 775 591 1075 516 
Q 1375 441 1709 441 
Q 2250 441 2565 725 
Q 2881 1009 2881 1497 
Q 2881 1984 2565 2268 
Q 2250 2553 1709 2553 
Q 1456 2553 1204 2497 
Q 953 2441 691 2322 
L 691 4666 
z
" transform="scale(0.015625)"/>
       </defs>
       <use xlink:href="#DejaVuSans-67"/>
       <use xlink:href="#DejaVuSans-65" transform="translate(63.476562 0)"/>
       <use xlink:href="#DejaVuSans-6d" transform="translate(125 0)"/>
       <use xlink:href="#DejaVuSans-69" transform="translate(222.412109 0)"/>
       <use xlink:href="#DejaVuSans-6e" transform="translate(250.195312 0)"/>
       <use xlink:href="#DejaVuSans-69" transform="translate(313.574219 0)"/>
       <use xlink:href="#DejaVuSans-2d" transform="translate(341.357422 0)"/>
       <use xlink:href="#DejaVuSans-32" transform="translate(377.441406 0)"/>
       <use xlink:href="#DejaVuSans-2e" transform="translate(441.064453 0)"/>
       <use xlink:href="#DejaVuSans-35" transform="translate(472.851562 0)"/>
       <use xlink:href="#DejaVuSans-2d" transform="translate(536.474609 0)"/>
       <use xlink:href="#DejaVuSans-66" transform="translate(572.558594 0)"/>
       <use xlink:href="#DejaVuSans-6c" transform="translate(607.763672 0)"/>
       <use xlink:href="#DejaVuSans-61" transform="translate(635.546875 0)"/>
       <use xlink:href="#DejaVuSans-73" transform="translate(696.826172 0)"/>
       <use xlink:href="#DejaVuSans-68" transform="translate(748.925781 0)"/>
      </g>
     </g>
    </g>
    <g id="xtick_4">
     <g id="line2d_4">
      <g>
       <use xlink:href="#mfd9231b22f" x="150.120375" y="198.475" style="stroke: #000000; stroke-width: 0.8"/>
      </g>
     </g>
     <g id="text_4">
      <!-- gemini-2.5-flash-lite -->
      <g transform="translate(148.040687 305.940625) rotate(-90) scale(0.1 -0.1)">
       <use xlink:href="#DejaVuSans-67"/>
       <use xlink:href="#DejaVuSans-65" transform="translate(63.476562 0)"/>
       <use xlink:href="#DejaVuSans-6d" transform="translate(125 0)"/>
       <use xlink:href="#DejaVuSans-69" transform="translate(222.412109 0)"/>
       <use xlink:href="#DejaVuSans-6e" transform="translate(250.195312 0)"/>
       <use xlink:href="#DejaVuSans-69" transform="translate(313.574219 0)"/>
       <use xlink:href="#DejaVuSans-2d" transform="translate(341.357422 0)"/>
       <use xlink:href="#DejaVuSans-32" transform="translate(377.441406 0)"/>
       <use xlink:href="#DejaVuSans-2e" transform="translate(441.064453 0)"/>
       <use xlink:href="#DejaVuSans-35" transform="translate(472.851562 0)"/>
       <use xlink:href="#DejaVuSans-2d" transform="translate(536.474609 0)"/>
       <use xlink:href="#DejaVuSans-66" transform="translate(572.558594 0)"/>
       <use xlink:href="#DejaVuSans-6c" transform="translate(607.763672 0)"/>
       <use xlink:href="#DejaVuSans-61" transform="translate(635.546875 0)"/>
       <use xlink:href="#DejaVuSans-73" transform="translate(696.826172 0)"/>
       <use xlink:href="#DejaVuSans-68" transform="translate(748.925781 0)"/>
       <use xlink:href="#DejaVuSans-2d" transform="translate(812.304688 0)"/>
       <use xlink:href="#DejaVuSans-6c" transform="translate(848.388672 0)"/>
       <use xlink:href="#DejaVuSans-69" transform="translate(876.171875 0)"/>
       <use xlink:href="#DejaVuSans-74" transform="translate(903.955078 0)"/>
       <use xlink:href="#DejaVuSans-65" transform="translate(943.164062 0)"/>
      </g>
     </g>
    </g>
    <g id="xtick_5">
     <g id="line2d_5">
      <g>
       <use xlink:href="#mfd9231b22f" x="174.822156" y="198.475" style="stroke: #000000; stroke-width: 0.8"/>
      </g>
     </g>
     <g id="text_5">
      <!-- gemini-2.5-pro -->
      <g transform="translate(172.742469 279.082812) rotate(-90) scale(0.1 -0.1)">
       <defs>
        <path id="DejaVuSans-70" d="M 1159 525 
L 1159 -1331 
L 581 -1331 
L 581 3500 
L 1159 3500 
L 1159 2969 
Q 1341 3281 1617 3432 
Q 1894 3584 2278 3584 
Q 2916 3584 3314 3078 
Q 3713 2572 3713 1747 
Q 3713 922 3314 415 
Q 2916 -91 2278 -91 
Q 1894 -91 1617 61 
Q 1341 213 1159 525 
z
M 3116 1747 
Q 3116 2381 2855 2742 
Q 2594 3103 2138 3103 
Q 1681 3103 1420 2742 
Q 1159 2381 1159 1747 
Q 1159 1113 1420 752 
Q 1681 391 2138 391 
Q 2594 391 2855 752 
Q 3116 1113 3116 1747 
z
" transform="scale(0.015625)"/>
        <path id="DejaVuSans-6f" d="M 1959 3097 
Q 1497 3097 1228 2736 
Q 959 2375 959 1747 
Q 959 1119 1226 758 
Q 1494 397 1959 397 
Q 2419 397 2687 759 
Q 2956 1122 2956 1747 
Q 2956 2369 2687 2733 
Q 2419 3097 1959 3097 
z
M 1959 3584 
Q 2709 3584 3137 3096 
Q 3566 2609 3566 1747 
Q 3566 888 3137 398 
Q 2709 -91 1959 -91 
Q 1206 -91 779 398 
Q 353 888 353 1747 
Q 353 2609 779 3096 
Q 1206 3584 1959 3584 
z
" transform="scale(0.015625)"/>
       </defs>
       <use xlink:href="#DejaVuSans-67"/>
       <use xlink:href="#DejaVuSans-65" transform="translate(63.476562 0)"/>
       <use xlink:href="#DejaVuSans-6d" transform="translate(125 0)"/>
       <use xlink:href="#DejaVuSans-69" transform="translate(222.412109 0)"/>
       <use xlink:href="#DejaVuSans-6e" transform="translate(250.195312 0)"/>
       <use xlink:href="#DejaVuSans-69" transform="translate(313.574219 0)"/>
       <use xlink:href="#DejaVuSans-2d" transform="translate(341.357422 0)"/>
       <use xlink:href="#DejaVuSans-32" transform="translate(377.441406 0)"/>
       <use xlink:href="#DejaVuSans-2e" transform="translate(441.064453 0)"/>
       <use xlink:href="#DejaVuSans-35" transform="translate(472.851562 0)"/>
       <use xlink:href="#DejaVuSans-2d" transform="translate(536.474609 0)"/>
       <use xlink:href="#DejaVuSans-70" transform="translate(572.558594 0)"/>
       <use xlink:href="#DejaVuSans-72" transform="translate(636.035156 0)"/>
       <use xlink:href="#DejaVuSans-6f" transform="translate(674.898438 0)"/>
      </g>
     </g>
    </g>
    <g id="xtick_6">
     <g id="line2d_6">
      <g>
       <use xlink:href="#mfd9231b22f" x="199.523937" y="198.475" style="stroke: #000000; stroke-width: 0.8"/>
      </g>
     </g>
     <g id="text_6">
      <!-- gemini-3-flash-preview -->
      <g transform="translate(197.44425 320.185938) rotate(-90) scale(0.1 -0.1)">
       <defs>
        <path id="DejaVuSans-33" d="M 2597 2516 
Q 3050 2419 3304 2112 
Q 3559 1806 3559 1356 
Q 3559 666 3084 287 
Q 2609 -91 1734 -91 
Q 1441 -91 1130 -33 
Q 819 25 488 141 
L 488 750 
Q 750 597 1062 519 
Q 1375 441 1716 441 
Q 2309 441 2620 675 
Q 2931 909 2931 1356 
Q 2931 1769 2642 2001 
Q 2353 2234 1838 2234 
L 1294 2234 
L 1294 2753 
L 1863 2753 
Q 2328 2753 2575 2939 
Q 2822 3125 2822 3475 
Q 2822 3834 2567 4026 
Q 2313 4219 1838 4219 
Q 1578 4219 1281 4162 
Q 984 4106 628 3988 
L 628 4550 
Q 988 4650 1302 4700 
Q 1616 4750 1894 4750 
Q 2613 4750 3031 4423 
Q 3450 4097 3450 3541 
Q 3450 3153 3228 2886 
Q 3006 2619 2597 2516 
z
" transform="scale(0.015625)"/>
        <path id="DejaVuSans-76" d="M 191 3500 
L 800 3500 
L 1894 563 
L 2988 3500 
L 3597 3500 
L 2284 0 
L 1503 0 
L 191 3500 
z
" transform="scale(0.015625)"/>
        <path id="DejaVuSans-77" d="M 269 3500 
L 844 3500 
L 1563 769 
L 2278 3500 
L 2956 3500 
L 3675 769 
L 4391 3500 
L 4966 3500 
L 4050 0 
L 3372 0 
L 2619 2869 
L 1863 0 
L 1184 0 
L 269 3500 
z
" transform="scale(0.015625)"/>
       </defs>
       <use xlink:href="#DejaVuSans-67"/>
       <use xlink:href="#DejaVuSans-65" transform="translate(63.476562 0)"/>
       <use xlink:href="#DejaVuSans-6d" transform="translate(125 0)"/>
       <use xlink:href="#DejaVuSans-69" transform="translate(222.412109 0)"/>
       <use xlink:href="#DejaVuSans-6e" transform="translate(250.195312 0)"/>
       <use xlink:href="#DejaVuSans-69" transform="translate(313.574219 0)"/>
       <use xlink:href="#DejaVuSans-2d" transform="translate(341.357422 0)"/>
       <use xlink:href="#DejaVuSans-33" transform="translate(377.441406 0)"/>
       <use xlink:href="#DejaVuSans-2d" transform="translate(441.064453 0)"/>
       <use xlink:href="#DejaVuSans-66" transform="translate(477.148438 0)"/>
       <use xlink:href="#DejaVuSans-6c" transform="translate(512.353516 0)"/>
       <use xlink:href="#DejaVuSans-61" transform="translate(540.136719 0)"/>
       <use xlink:href="#DejaVuSans-73" transform="translate(601.416016 0)"/>
       <use xlink:href="#DejaVuSans-68" transform="translate(653.515625 0)"/>
       <use xlink:href="#DejaVuSans-2d" transform="translate(716.894531 0)"/>
       <use xlink:href="#DejaVuSans-70" transform="translate(752.978516 0)"/>
       <use xlink:href="#DejaVuSans-72" transform="translate(816.455078 0)"/>
       <use xlink:href="#DejaVuSans-65" transform="translate(855.318359 0)"/>
       <use xlink:href="#DejaVuSans-76" transform="translate(916.841797 0)"/>
       <use xlink:href="#DejaVuSans-69" transform="translate(976.021484 0)"/>
       <use xlink:href="#DejaVuSans-65" transform="translate(1003.804688 0)"/>
       <use xlink:href="#DejaVuSans-77" transform="translate(1065.328125 0)"/>
      </g>
     </g>
    </g>
    <g id="xtick_7">
     <g id="line2d_7">
      <g>
       <use xlink:href="#mfd9231b22f" x="224.225719" y="198.475" style="stroke: #000000; stroke-width: 0.8"/>
      </g>
     </g>
     <g id="text_7">
      <!-- gemini-3-pro-preview -->
      <g transform="translate(222.146031 312.753125) rotate(-90) scale(0.1 -0.1)">
       <use xlink:href="#DejaVuSans-67"/>
       <use xlink:href="#DejaVuSans-65" transform="translate(63.476562 0)"/>
       <use xlink:href="#DejaVuSans-6d" transform="translate(125 0)"/>
       <use xlink:href="#DejaVuSans-69" transform="translate(222.412109 0)"/>
       <use xlink:href="#DejaVuSans-6e" transform="translate(250.195312 0)"/>
       <use xlink:href="#DejaVuSans-69" transform="translate(313.574219 0)"/>
       <use xlink:href="#DejaVuSans-2d" transform="translate(341.357422 0)"/>
       <use xlink:href="#DejaVuSans-33" transform="translate(377.441406 0)"/>
       <use xlink:href="#DejaVuSans-2d" transform="translate(441.064453 0)"/>
       <use xlink:href="#DejaVuSans-70" transform="translate(477.148438 0)"/>
       <use xlink:href="#DejaVuSans-72" transform="translate(540.625 0)"/>
       <use xlink:href="#DejaVuSans-6f" transform="translate(579.488281 0)"/>
       <use xlink:href="#DejaVuSans-2d" transform="translate(642.544922 0)"/>
       <use xlink:href="#DejaVuSans-70" transform="translate(678.628906 0)"/>
       <use xlink:href="#DejaVuSans-72" transform="translate(742.105469 0)"/>
       <use xlink:href="#DejaVuSans-65" transform="translate(780.96875 0)"/>
       <use xlink:href="#DejaVuSans-76" transform="translate(842.492188 0)"/>
       <use xlink:href="#DejaVuSans-69" transform="translate(901.671875 0)"/>
       <use xlink:href="#DejaVuSans-65" transform="translate(929.455078 0)"/>
       <use xlink:href="#DejaVuSans-77" transform="translate(990.978516 0)"/>
      </g>
     </g>
    </g>
    <g id="xtick_8">
     <g id="line2d_8">
      <g>
       <use xlink:href="#mfd9231b22f" x="248.9275" y="198.475" style="stroke: #000000; stroke-width: 0.8"/>
      </g>
     </g>
     <g id="text_8">
      <!-- gemma3-12b -->
      <g transform="translate(246.847812 272.629687) rotate(-90) scale(0.1 -0.1)">
       <defs>
        <path id="DejaVuSans-31" d="M 794 531 
L 1825 531 
L 1825 4091 
L 703 3866 
L 703 4441 
L 1819 4666 
L 2450 4666 
L 2450 531 
L 3481 531 
L 3481 0 
L 794 0 
L 794 531 
z
" transform="scale(0.015625)"/>
        <path id="DejaVuSans-62" d="M 3116 1747 
Q 3116 2381 2855 2742 
Q 2594 3103 2138 3103 
Q 1681 3103 1420 2742 
Q 1159 2381 1159 1747 
Q 1159 1113 1420 752 
Q 1681 391 2138 391 
Q 2594 391 2855 752 
Q 3116 1113 3116 1747 
z
M 1159 2969 
Q 1341 3281 1617 3432 
Q 1894 3584 2278 3584 
Q 2916 3584 3314 3078 
Q 3713 2572 3713 1747 
Q 3713 922 3314 415 
Q 2916 -91 2278 -91 
Q 1894 -91 1617 61 
Q 1341 213 1159 525 
L 1159 0 
L 581 0 
L 581 4863 
L 1159 4863 
L 1159 2969 
z
" transform="scale(0.015625)"/>
       </defs>
       <use xlink:href="#DejaVuSans-67"/>
       <use xlink:href="#DejaVuSans-65" transform="translate(63.476562 0)"/>
       <use xlink:href="#DejaVuSans-6d" transform="translate(125 0)"/>
       <use xlink:href="#DejaVuSans-6d" transform="translate(222.412109 0)"/>
       <use xlink:href="#DejaVuSans-61" transform="translate(319.824219 0)"/>
       <use xlink:href="#DejaVuSans-33" transform="translate(381.103516 0)"/>
       <use xlink:href="#DejaVuSans-2d" transform="translate(444.726562 0)"/>
       <use xlink:href="#DejaVuSans-31" transform="translate(480.810547 0)"/>
       <use xlink:href="#DejaVuSans-32" transform="translate(544.433594 0)"/>
       <use xlink:href="#DejaVuSans-62" transform="translate(608.056641 0)"/>
      </g>
     </g>
    </g>
    <g id="xtick_9">
     <g id="line2d_9">
      <g>
       <use xlink:href="#mfd9231b22f" x="273.629281" y="198.475" style="stroke: #000000; stroke-width: 0.8"/>
      </g>
     </g>
     <g id="text_9">
      <!-- gemma3-4b -->
      <g transform="translate(271.549594 266.267187) rotate(-90) scale(0.1 -0.1)">
       <defs>
        <path id="DejaVuSans-34" d="M 2419 4116 
L 825 1625 
L 2419 1625 
L 2419 4116 
z
M 2253 4666 
L 3047 4666 
L 3047 1625 
L 3713 1625 
L 3713 1100 
L 3047 1100 
L 3047 0 
L 2419 0 
L 2419 1100 
L 313 1100 
L 313 1709 
L 2253 4666 
z
" transform="scale(0.015625)"/>
       </defs>
       <use xlink:href="#DejaVuSans-67"/>
       <use xlink:href="#DejaVuSans-65" transform="translate(63.476562 0)"/>
       <use xlink:href="#DejaVuSans-6d" transform="translate(125 0)"/>
       <use xlink:href="#DejaVuSans-6d" transform="translate(222.412109 0)"/>
       <use xlink:href="#DejaVuSans-61" transform="translate(319.824219 0)"/>
       <use xlink:href="#DejaVuSans-33" transform="translate(381.103516 0)"/>
       <use xlink:href="#DejaVuSans-2d" transform="translate(444.726562 0)"/>
       <use xlink:href="#DejaVuSans-34" transform="translate(480.810547 0)"/>
       <use xlink:href="#DejaVuSans-62" transform="translate(544.433594 0)"/>
      </g>
     </g>
    </g>
    <g id="xtick_10">
     <g id="line2d_10">
      <g>
       <use xlink:href="#mfd9231b22f" x="298.331063" y="198.475" style="stroke: #000000; stroke-width: 0.8"/>
      </g>
     </g>
     <g id="text_10">
      <!-- maskrcnn -->
      <g transform="translate(296.251375 254.403125) rotate(-90) scale(0.1 -0.1)">
       <defs>
        <path id="DejaVuSans-6b" d="M 581 4863 
L 1159 4863 
L 1159 1991 
L 2875 3500 
L 3609 3500 
L 1753 1863 
L 3688 0 
L 2938 0 
L 1159 1709 
L 1159 0 
L 581 0 
L 581 4863 
z
" transform="scale(0.015625)"/>
       </defs>
       <use xlink:href="#DejaVuSans-6d"/>
       <use xlink:href="#DejaVuSans-61" transform="translate(97.412109 0)"/>
       <use xlink:href="#DejaVuSans-73" transform="translate(158.691406 0)"/>
       <use xlink:href="#DejaVuSans-6b" transform="translate(210.791016 0)"/>
       <use xlink:href="#DejaVuSans-72" transform="translate(268.701172 0)"/>
       <use xlink:href="#DejaVuSans-63" transform="translate(307.564453 0)"/>
       <use xlink:href="#DejaVuSans-6e" transform="translate(362.544922 0)"/>
       <use xlink:href="#DejaVuSans-6e" transform="translate(425.923828 0)"/>
      </g>
     </g>
    </g>
    <g id="xtick_11">
     <g id="line2d_11">
      <g>
       <use xlink:href="#mfd9231b22f" x="323.032844" y="198.475" style="stroke: #000000; stroke-width: 0.8"/>
      </g>
     </g>
     <g id="text_11">
      <!-- retinanet -->
      <g transform="translate(320.953156 251.089063) rotate(-90) scale(0.1 -0.1)">
       <use xlink:href="#DejaVuSans-72"/>
       <use xlink:href="#DejaVuSans-65" transform="translate(38.863281 0)"/>
       <use xlink:href="#DejaVuSans-74" transform="translate(100.386719 0)"/>
       <use xlink:href="#DejaVuSans-69" transform="translate(139.595703 0)"/>
       <use xlink:href="#DejaVuSans-6e" transform="translate(167.378906 0)"/>
       <use xlink:href="#DejaVuSans-61" transform="translate(230.757812 0)"/>
       <use xlink:href="#DejaVuSans-6e" transform="translate(292.037109 0)"/>
       <use xlink:href="#DejaVuSans-65" transform="translate(355.416016 0)"/>
       <use xlink:href="#DejaVuSans-74" transform="translate(416.939453 0)"/>
      </g>
     </g>
    </g>
    <g id="xtick_12">
     <g id="line2d_12">
      <g>
       <use xlink:href="#mfd9231b22f" x="347.734625" y="198.475" style="stroke: #000000; stroke-width: 0.8"/>
      </g>
     </g>
     <g id="text_12">
      <!-- yolo11l -->
      <g transform="translate(345.654938 241.9125) rotate(-90) scale(0.1 -0.1)">
       <defs>
        <path id="DejaVuSans-79" d="M 2059 -325 
Q 1816 -950 1584 -1140 
Q 1353 -1331 966 -1331 
L 506 -1331 
L 506 -850 
L 844 -850 
Q 1081 -850 1212 -737 
Q 1344 -625 1503 -206 
L 1606 56 
L 191 3500 
L 800 3500 
L 1894 763 
L 2988 3500 
L 3597 3500 
L 2059 -325 
z
" transform="scale(0.015625)"/>
       </defs>
       <use xlink:href="#DejaVuSans-79"/>
       <use xlink:href="#DejaVuSans-6f" transform="translate(59.179688 0)"/>
       <use xlink:href="#DejaVuSans-6c" transform="translate(120.361328 0)"/>
       <use xlink:href="#DejaVuSans-6f" transform="translate(148.144531 0)"/>
       <use xlink:href="#DejaVuSans-31" transform="translate(209.326172 0)"/>
       <use xlink:href="#DejaVuSans-31" transform="translate(272.949219 0)"/>
       <use xlink:href="#DejaVuSans-6c" transform="translate(336.572266 0)"/>
      </g>
     </g>
    </g>
    <g id="xtick_13">
     <g id="line2d_13">
      <g>
       <use xlink:href="#mfd9231b22f" x="372.436407" y="198.475" style="stroke: #000000; stroke-width: 0.8"/>
      </g>
     </g>
     <g id="text_13">
      <!-- yolo11m -->
      <g transform="translate(370.356719 248.875) rotate(-90) scale(0.1 -0.1)">
       <use xlink:href="#DejaVuSans-79"/>
       <use xlink:href="#DejaVuSans-6f" transform="translate(59.179688 0)"/>
       <use xlink:href="#DejaVuSans-6c" transform="translate(120.361328 0)"/>
       <use xlink:href="#DejaVuSans-6f" transform="translate(148.144531 0)"/>
       <use xlink:href="#DejaVuSans-31" transform="translate(209.326172 0)"/>
       <use xlink:href="#DejaVuSans-31" transform="translate(272.949219 0)"/>
       <use xlink:href="#DejaVuSans-6d" transform="translate(336.572266 0)"/>
      </g>
     </g>
    </g>
    <g id="xtick_14">
     <g id="line2d_14">
      <g>
       <use xlink:href="#mfd9231b22f" x="397.138188" y="198.475" style="stroke: #000000; stroke-width: 0.8"/>
      </g>
     </g>
     <g id="text_14">
      <!-- yolo11n -->
      <g transform="translate(395.0585 245.471875) rotate(-90) scale(0.1 -0.1)">
       <use xlink:href="#DejaVuSans-79"/>
       <use xlink:href="#DejaVuSans-6f" transform="translate(59.179688 0)"/>
       <use xlink:href="#DejaVuSans-6c" transform="translate(120.361328 0)"/>
       <use xlink:href="#DejaVuSans-6f" transform="translate(148.144531 0)"/>
       <use xlink:href="#DejaVuSans-31" transform="translate(209.326172 0)"/>
       <use xlink:href="#DejaVuSans-31" transform="translate(272.949219 0)"/>
       <use xlink:href="#DejaVuSans-6e" transform="translate(336.572266 0)"/>
      </g>
     </g>
    </g>
    <g id="xtick_15">
     <g id="line2d_15">
      <g>
       <use xlink:href="#mfd9231b22f" x="421.839969" y="198.475" style="stroke: #000000; stroke-width: 0.8"/>
      </g>
     </g>
     <g id="text_15">
      <!-- yolo11s -->
      <g transform="translate(419.760282 244.34375) rotate(-90) scale(0.1 -0.1)">
       <use xlink:href="#DejaVuSans-79"/>
       <use xlink:href="#DejaVuSans-6f" transform="translate(59.179688 0)"/>
       <use xlink:href="#DejaVuSans-6c" transform="translate(120.361328 0)"/>
       <use xlink:href="#DejaVuSans-6f" transform="translate(148.144531 0)"/>
       <use xlink:href="#DejaVuSans-31" transform="translate(209.326172 0)"/>
       <use xlink:href="#DejaVuSans-31" transform="translate(272.949219 0)"/>
       <use xlink:href="#DejaVuSans-73" transform="translate(336.572266 0)"/>
      </g>
     </g>
    </g>
    <g id="text_16">
     <!-- Vstupn textov zadn -->
     <g transform="translate(191.415 332.184375) scale(0.1 -0.1)">
      <defs>
       <path id="DejaVuSans-56" d="M 1831 0 
L 50 4666 
L 709 4666 
L 2188 738 
L 3669 4666 
L 4325 4666 
L 2547 0 
L 1831 0 
z
" transform="scale(0.015625)"/>
       <path id="DejaVuSans-75" d="M 544 1381 
L 544 3500 
L 1119 3500 
L 1119 1403 
Q 1119 906 1312 657 
Q 1506 409 1894 409 
Q 2359 409 2629 706 
Q 2900 1003 2900 1516 
L 2900 3500 
L 3475 3500 
L 3475 0 
L 2900 0 
L 2900 538 
Q 2691 219 2414 64 
Q 2138 -91 1772 -91 
Q 1169 -91 856 284 
Q 544 659 544 1381 
z
M 1991 3584 
L 1991 3584 
z
" transform="scale(0.015625)"/>
       <path id="DejaVuSans-ed" d="M 1322 5119 
L 1944 5119 
L 926 3944 
L 447 3944 
L 1322 5119 
z
M 603 3500 
L 1178 3500 
L 1178 0 
L 603 0 
L 603 3500 
z
M 891 3584 
L 891 3584 
z
" transform="scale(0.015625)"/>
       <path id="DejaVuSans-20" transform="scale(0.015625)"/>
       <path id="DejaVuSans-78" d="M 3513 3500 
L 2247 1797 
L 3578 0 
L 2900 0 
L 1881 1375 
L 863 0 
L 184 0 
L 1544 1831 
L 300 3500 
L 978 3500 
L 1906 2253 
L 2834 3500 
L 3513 3500 
z
" transform="scale(0.015625)"/>
       <path id="DejaVuSans-e9" d="M 3597 1894 
L 3597 1613 
L 953 1613 
Q 991 1019 1311 708 
Q 1631 397 2203 397 
Q 2534 397 2845 478 
Q 3156 559 3463 722 
L 3463 178 
Q 3153 47 2828 -22 
Q 2503 -91 2169 -91 
Q 1331 -91 842 396 
Q 353 884 353 1716 
Q 353 2575 817 3079 
Q 1281 3584 2069 3584 
Q 2775 3584 3186 3129 
Q 3597 2675 3597 1894 
z
M 3022 2063 
Q 3016 2534 2758 2815 
Q 2500 3097 2075 3097 
Q 1594 3097 1305 2825 
Q 1016 2553 972 2059 
L 3022 2063 
z
M 2466 5119 
L 3088 5119 
L 2070 3944 
L 1591 3944 
L 2466 5119 
z
" transform="scale(0.015625)"/>
       <path id="DejaVuSans-7a" d="M 353 3500 
L 3084 3500 
L 3084 2975 
L 922 459 
L 3084 459 
L 3084 0 
L 275 0 
L 275 525 
L 2438 3041 
L 353 3041 
L 353 3500 
z
" transform="scale(0.015625)"/>
       <path id="DejaVuSans-64" d="M 2906 2969 
L 2906 4863 
L 3481 4863 
L 3481 0 
L 2906 0 
L 2906 525 
Q 2725 213 2448 61 
Q 2172 -91 1784 -91 
Q 1150 -91 751 415 
Q 353 922 353 1747 
Q 353 2572 751 3078 
Q 1150 3584 1784 3584 
Q 2172 3584 2448 3432 
Q 2725 3281 2906 2969 
z
M 947 1747 
Q 947 1113 1208 752 
Q 1469 391 1925 391 
Q 2381 391 2643 752 
Q 2906 1113 2906 1747 
Q 2906 2381 2643 2742 
Q 2381 3103 1925 3103 
Q 1469 3103 1208 2742 
Q 947 2381 947 1747 
z
" transform="scale(0.015625)"/>
       <path id="DejaVuSans-e1" d="M 2194 1759 
Q 1497 1759 1228 1600 
Q 959 1441 959 1056 
Q 959 750 1161 570 
Q 1363 391 1709 391 
Q 2188 391 2477 730 
Q 2766 1069 2766 1631 
L 2766 1759 
L 2194 1759 
z
M 3341 1997 
L 3341 0 
L 2766 0 
L 2766 531 
Q 2569 213 2275 61 
Q 1981 -91 1556 -91 
Q 1019 -91 701 211 
Q 384 513 384 1019 
Q 384 1609 779 1909 
Q 1175 2209 1959 2209 
L 2766 2209 
L 2766 2266 
Q 2766 2663 2505 2880 
Q 2244 3097 1772 3097 
Q 1472 3097 1187 3025 
Q 903 2953 641 2809 
L 641 3341 
Q 956 3463 1253 3523 
Q 1550 3584 1831 3584 
Q 2591 3584 2966 3190 
Q 3341 2797 3341 1997 
z
M 2290 5119 
L 2912 5119 
L 1894 3944 
L 1415 3944 
L 2290 5119 
z
" transform="scale(0.015625)"/>
      </defs>
      <use xlink:href="#DejaVuSans-56"/>
      <use xlink:href="#DejaVuSans-73" transform="translate(68.408203 0)"/>
      <use xlink:href="#DejaVuSans-74" transform="translate(120.507812 0)"/>
      <use xlink:href="#DejaVuSans-75" transform="translate(159.716797 0)"/>
      <use xlink:href="#DejaVuSans-70" transform="translate(223.095703 0)"/>
      <use xlink:href="#DejaVuSans-6e" transform="translate(286.572266 0)"/>
      <use xlink:href="#DejaVuSans-ed" transform="translate(349.951172 0)"/>
      <use xlink:href="#DejaVuSans-20" transform="translate(377.734375 0)"/>
      <use xlink:href="#DejaVuSans-74" transform="translate(409.521484 0)"/>
      <use xlink:href="#DejaVuSans-65" transform="translate(448.730469 0)"/>
      <use xlink:href="#DejaVuSans-78" transform="translate(508.503906 0)"/>
      <use xlink:href="#DejaVuSans-74" transform="translate(567.683594 0)"/>
      <use xlink:href="#DejaVuSans-6f" transform="translate(606.892578 0)"/>
      <use xlink:href="#DejaVuSans-76" transform="translate(668.074219 0)"/>
      <use xlink:href="#DejaVuSans-e9" transform="translate(727.253906 0)"/>
      <use xlink:href="#DejaVuSans-20" transform="translate(788.777344 0)"/>
      <use xlink:href="#DejaVuSans-7a" transform="translate(820.564453 0)"/>
      <use xlink:href="#DejaVuSans-61" transform="translate(873.054688 0)"/>
      <use xlink:href="#DejaVuSans-64" transform="translate(934.333984 0)"/>
      <use xlink:href="#DejaVuSans-e1" transform="translate(997.810547 0)"/>
      <use xlink:href="#DejaVuSans-6e" transform="translate(1059.089844 0)"/>
      <use xlink:href="#DejaVuSans-ed" transform="translate(1122.46875 0)"/>
     </g>
    </g>
   </g>
   <g id="matplotlib.axis_2">
    <g id="ytick_1">
     <g id="line2d_16">
      <path d="M 47.855 198.475 
L 450 198.475 
" clip-path="url(#p543e3464da)" style="fill: none; stroke-dasharray: 1.85,0.8; stroke-dashoffset: 0; stroke: #808080; stroke-opacity: 0.7; stroke-width: 0.5"/>
     </g>
     <g id="line2d_17">
      <defs>
       <path id="m6849a814ea" d="M 0 0 
L -3.5 0 
" style="stroke: #000000; stroke-width: 0.8"/>
      </defs>
      <g>
       <use xlink:href="#m6849a814ea" x="47.855" y="198.475" style="stroke: #000000; stroke-width: 0.8"/>
      </g>
     </g>
     <g id="text_17">
      <!-- 0.0 -->
      <g transform="translate(24.951875 202.274219) scale(0.1 -0.1)">
       <use xlink:href="#DejaVuSans-30"/>
       <use xlink:href="#DejaVuSans-2e" transform="translate(63.623047 0)"/>
       <use xlink:href="#DejaVuSans-30" transform="translate(95.410156 0)"/>
      </g>
     </g>
    </g>
    <g id="ytick_2">
     <g id="line2d_18">
      <path d="M 47.855 173.998051 
L 450 173.998051 
" clip-path="url(#p543e3464da)" style="fill: none; stroke-dasharray: 1.85,0.8; stroke-dashoffset: 0; stroke: #808080; stroke-opacity: 0.7; stroke-width: 0.5"/>
     </g>
     <g id="line2d_19">
      <g>
       <use xlink:href="#m6849a814ea" x="47.855" y="173.998051" style="stroke: #000000; stroke-width: 0.8"/>
      </g>
     </g>
     <g id="text_18">
      <!-- 0.1 -->
      <g transform="translate(24.951875 177.79727) scale(0.1 -0.1)">
       <use xlink:href="#DejaVuSans-30"/>
       <use xlink:href="#DejaVuSans-2e" transform="translate(63.623047 0)"/>
       <use xlink:href="#DejaVuSans-31" transform="translate(95.410156 0)"/>
      </g>
     </g>
    </g>
    <g id="ytick_3">
     <g id="line2d_20">
      <path d="M 47.855 149.521102 
L 450 149.521102 
" clip-path="url(#p543e3464da)" style="fill: none; stroke-dasharray: 1.85,0.8; stroke-dashoffset: 0; stroke: #808080; stroke-opacity: 0.7; stroke-width: 0.5"/>
     </g>
     <g id="line2d_21">
      <g>
       <use xlink:href="#m6849a814ea" x="47.855" y="149.521102" style="stroke: #000000; stroke-width: 0.8"/>
      </g>
     </g>
     <g id="text_19">
      <!-- 0.2 -->
      <g transform="translate(24.951875 153.32032) scale(0.1 -0.1)">
       <use xlink:href="#DejaVuSans-30"/>
       <use xlink:href="#DejaVuSans-2e" transform="translate(63.623047 0)"/>
       <use xlink:href="#DejaVuSans-32" transform="translate(95.410156 0)"/>
      </g>
     </g>
    </g>
    <g id="ytick_4">
     <g id="line2d_22">
      <path d="M 47.855 125.044152 
L 450 125.044152 
" clip-path="url(#p543e3464da)" style="fill: none; stroke-dasharray: 1.85,0.8; stroke-dashoffset: 0; stroke: #808080; stroke-opacity: 0.7; stroke-width: 0.5"/>
     </g>
     <g id="line2d_23">
      <g>
       <use xlink:href="#m6849a814ea" x="47.855" y="125.044152" style="stroke: #000000; stroke-width: 0.8"/>
      </g>
     </g>
     <g id="text_20">
      <!-- 0.3 -->
      <g transform="translate(24.951875 128.843371) scale(0.1 -0.1)">
       <use xlink:href="#DejaVuSans-30"/>
       <use xlink:href="#DejaVuSans-2e" transform="translate(63.623047 0)"/>
       <use xlink:href="#DejaVuSans-33" transform="translate(95.410156 0)"/>
      </g>
     </g>
    </g>
    <g id="ytick_5">
     <g id="line2d_24">
      <path d="M 47.855 100.567203 
L 450 100.567203 
" clip-path="url(#p543e3464da)" style="fill: none; stroke-dasharray: 1.85,0.8; stroke-dashoffset: 0; stroke: #808080; stroke-opacity: 0.7; stroke-width: 0.5"/>
     </g>
     <g id="line2d_25">
      <g>
       <use xlink:href="#m6849a814ea" x="47.855" y="100.567203" style="stroke: #000000; stroke-width: 0.8"/>
      </g>
     </g>
     <g id="text_21">
      <!-- 0.4 -->
      <g transform="translate(24.951875 104.366422) scale(0.1 -0.1)">
       <use xlink:href="#DejaVuSans-30"/>
       <use xlink:href="#DejaVuSans-2e" transform="translate(63.623047 0)"/>
       <use xlink:href="#DejaVuSans-34" transform="translate(95.410156 0)"/>
      </g>
     </g>
    </g>
    <g id="ytick_6">
     <g id="line2d_26">
      <path d="M 47.855 76.090254 
L 450 76.090254 
" clip-path="url(#p543e3464da)" style="fill: none; stroke-dasharray: 1.85,0.8; stroke-dashoffset: 0; stroke: #808080; stroke-opacity: 0.7; stroke-width: 0.5"/>
     </g>
     <g id="line2d_27">
      <g>
       <use xlink:href="#m6849a814ea" x="47.855" y="76.090254" style="stroke: #000000; stroke-width: 0.8"/>
      </g>
     </g>
     <g id="text_22">
      <!-- 0.5 -->
      <g transform="translate(24.951875 79.889473) scale(0.1 -0.1)">
       <use xlink:href="#DejaVuSans-30"/>
       <use xlink:href="#DejaVuSans-2e" transform="translate(63.623047 0)"/>
       <use xlink:href="#DejaVuSans-35" transform="translate(95.410156 0)"/>
      </g>
     </g>
    </g>
    <g id="ytick_7">
     <g id="line2d_28">
      <path d="M 47.855 51.613305 
L 450 51.613305 
" clip-path="url(#p543e3464da)" style="fill: none; stroke-dasharray: 1.85,0.8; stroke-dashoffset: 0; stroke: #808080; stroke-opacity: 0.7; stroke-width: 0.5"/>
     </g>
     <g id="line2d_29">
      <g>
       <use xlink:href="#m6849a814ea" x="47.855" y="51.613305" style="stroke: #000000; stroke-width: 0.8"/>
      </g>
     </g>
     <g id="text_23">
      <!-- 0.6 -->
      <g transform="translate(24.951875 55.412524) scale(0.1 -0.1)">
       <defs>
        <path id="DejaVuSans-36" d="M 2113 2584 
Q 1688 2584 1439 2293 
Q 1191 2003 1191 1497 
Q 1191 994 1439 701 
Q 1688 409 2113 409 
Q 2538 409 2786 701 
Q 3034 994 3034 1497 
Q 3034 2003 2786 2293 
Q 2538 2584 2113 2584 
z
M 3366 4563 
L 3366 3988 
Q 3128 4100 2886 4159 
Q 2644 4219 2406 4219 
Q 1781 4219 1451 3797 
Q 1122 3375 1075 2522 
Q 1259 2794 1537 2939 
Q 1816 3084 2150 3084 
Q 2853 3084 3261 2657 
Q 3669 2231 3669 1497 
Q 3669 778 3244 343 
Q 2819 -91 2113 -91 
Q 1303 -91 875 529 
Q 447 1150 447 2328 
Q 447 3434 972 4092 
Q 1497 4750 2381 4750 
Q 2619 4750 2861 4703 
Q 3103 4656 3366 4563 
z
" transform="scale(0.015625)"/>
       </defs>
       <use xlink:href="#DejaVuSans-30"/>
       <use xlink:href="#DejaVuSans-2e" transform="translate(63.623047 0)"/>
       <use xlink:href="#DejaVuSans-36" transform="translate(95.410156 0)"/>
      </g>
     </g>
    </g>
    <g id="ytick_8">
     <g id="line2d_30">
      <path d="M 47.855 27.136356 
L 450 27.136356 
" clip-path="url(#p543e3464da)" style="fill: none; stroke-dasharray: 1.85,0.8; stroke-dashoffset: 0; stroke: #808080; stroke-opacity: 0.7; stroke-width: 0.5"/>
     </g>
     <g id="line2d_31">
      <g>
       <use xlink:href="#m6849a814ea" x="47.855" y="27.136356" style="stroke: #000000; stroke-width: 0.8"/>
      </g>
     </g>
     <g id="text_24">
      <!-- 0.7 -->
      <g transform="translate(24.951875 30.935574) scale(0.1 -0.1)">
       <defs>
        <path id="DejaVuSans-37" d="M 525 4666 
L 3525 4666 
L 3525 4397 
L 1831 0 
L 1172 0 
L 2766 4134 
L 525 4134 
L 525 4666 
z
" transform="scale(0.015625)"/>
       </defs>
       <use xlink:href="#DejaVuSans-30"/>
       <use xlink:href="#DejaVuSans-2e" transform="translate(63.623047 0)"/>
       <use xlink:href="#DejaVuSans-37" transform="translate(95.410156 0)"/>
      </g>
     </g>
    </g>
    <g id="text_25">
     <!-- MAR@100 -->
     <g transform="translate(18.872188 130.389844) rotate(-90) scale(0.1 -0.1)">
      <defs>
       <path id="DejaVuSans-4d" d="M 628 4666 
L 1569 4666 
L 2759 1491 
L 3956 4666 
L 4897 4666 
L 4897 0 
L 4281 0 
L 4281 4097 
L 3078 897 
L 2444 897 
L 1241 4097 
L 1241 0 
L 628 0 
L 628 4666 
z
" transform="scale(0.015625)"/>
       <path id="DejaVuSans-41" d="M 2188 4044 
L 1331 1722 
L 3047 1722 
L 2188 4044 
z
M 1831 4666 
L 2547 4666 
L 4325 0 
L 3669 0 
L 3244 1197 
L 1141 1197 
L 716 0 
L 50 0 
L 1831 4666 
z
" transform="scale(0.015625)"/>
       <path id="DejaVuSans-52" d="M 2841 2188 
Q 3044 2119 3236 1894 
Q 3428 1669 3622 1275 
L 4263 0 
L 3584 0 
L 2988 1197 
Q 2756 1666 2539 1819 
Q 2322 1972 1947 1972 
L 1259 1972 
L 1259 0 
L 628 0 
L 628 4666 
L 2053 4666 
Q 2853 4666 3247 4331 
Q 3641 3997 3641 3322 
Q 3641 2881 3436 2590 
Q 3231 2300 2841 2188 
z
M 1259 4147 
L 1259 2491 
L 2053 2491 
Q 2509 2491 2742 2702 
Q 2975 2913 2975 3322 
Q 2975 3731 2742 3939 
Q 2509 4147 2053 4147 
L 1259 4147 
z
" transform="scale(0.015625)"/>
       <path id="DejaVuSans-40" d="M 2381 1678 
Q 2381 1231 2603 976 
Q 2825 722 3213 722 
Q 3597 722 3817 978 
Q 4038 1234 4038 1678 
Q 4038 2116 3813 2373 
Q 3588 2631 3206 2631 
Q 2828 2631 2604 2375 
Q 2381 2119 2381 1678 
z
M 4084 744 
Q 3897 503 3655 389 
Q 3413 275 3091 275 
Q 2553 275 2217 664 
Q 1881 1053 1881 1678 
Q 1881 2303 2218 2693 
Q 2556 3084 3091 3084 
Q 3413 3084 3656 2967 
Q 3900 2850 4084 2613 
L 4084 3022 
L 4531 3022 
L 4531 722 
Q 4988 791 5245 1139 
Q 5503 1488 5503 2041 
Q 5503 2375 5404 2669 
Q 5306 2963 5106 3213 
Q 4781 3622 4314 3839 
Q 3847 4056 3297 4056 
Q 2913 4056 2559 3954 
Q 2206 3853 1906 3653 
Q 1416 3334 1139 2817 
Q 863 2300 863 1697 
Q 863 1200 1042 765 
Q 1222 331 1563 0 
Q 1891 -325 2322 -495 
Q 2753 -666 3244 -666 
Q 3647 -666 4036 -530 
Q 4425 -394 4750 -141 
L 5031 -488 
Q 4641 -791 4180 -952 
Q 3719 -1113 3244 -1113 
Q 2666 -1113 2153 -908 
Q 1641 -703 1241 -313 
Q 841 78 631 592 
Q 422 1106 422 1697 
Q 422 2266 634 2781 
Q 847 3297 1241 3688 
Q 1644 4084 2172 4295 
Q 2700 4506 3291 4506 
Q 3953 4506 4520 4234 
Q 5088 3963 5472 3463 
Q 5706 3156 5829 2797 
Q 5953 2438 5953 2053 
Q 5953 1231 5456 756 
Q 4959 281 4084 263 
L 4084 744 
z
" transform="scale(0.015625)"/>
      </defs>
      <use xlink:href="#DejaVuSans-4d"/>
      <use xlink:href="#DejaVuSans-41" transform="translate(86.279297 0)"/>
      <use xlink:href="#DejaVuSans-52" transform="translate(154.6875 0)"/>
      <use xlink:href="#DejaVuSans-40" transform="translate(224.169922 0)"/>
      <use xlink:href="#DejaVuSans-31" transform="translate(324.169922 0)"/>
      <use xlink:href="#DejaVuSans-30" transform="translate(387.792969 0)"/>
      <use xlink:href="#DejaVuSans-30" transform="translate(451.416016 0)"/>
     </g>
    </g>
   </g>
   <g id="patch_153">
    <path d="M 47.855 198.475 
L 47.855 10.8 
" style="fill: none; stroke: #000000; stroke-width: 0.8; stroke-linejoin: miter; stroke-linecap: square"/>
   </g>
   <g id="patch_154">
    <path d="M 450 198.475 
L 450 10.8 
" style="fill: none; stroke: #000000; stroke-width: 0.8; stroke-linejoin: miter; stroke-linecap: square"/>
   </g>
   <g id="patch_155">
    <path d="M 47.855 198.475 
L 450 198.475 
" style="fill: none; stroke: #000000; stroke-width: 0.8; stroke-linejoin: miter; stroke-linecap: square"/>
   </g>
   <g id="patch_156">
    <path d="M 47.855 10.8 
L 450 10.8 
" style="fill: none; stroke: #000000; stroke-width: 0.8; stroke-linejoin: miter; stroke-linecap: square"/>
   </g>
   <g id="legend_1">
    <g id="patch_157">
     <path d="M 224.975938 165.58125 
L 272.879063 165.58125 
Q 274.879063 165.58125 274.879063 163.58125 
L 274.879063 17.8 
Q 274.879063 15.8 272.879063 15.8 
L 224.975938 15.8 
Q 222.975938 15.8 222.975938 17.8 
L 222.975938 163.58125 
Q 222.975938 165.58125 224.975938 165.58125 
z
" style="fill: #ffffff; opacity: 0.8; stroke: #cccccc; stroke-linejoin: miter"/>
    </g>
    <g id="patch_158">
     <path d="M 226.975938 27.398438 
L 246.975938 27.398438 
L 246.975938 20.398438 
L 226.975938 20.398438 
z
" style="fill: #0000ff"/>
    </g>
    <g id="text_26">
     <!-- 0.0 -->
     <g transform="translate(254.975938 27.398438) scale(0.1 -0.1)">
      <use xlink:href="#DejaVuSans-30"/>
      <use xlink:href="#DejaVuSans-2e" transform="translate(63.623047 0)"/>
      <use xlink:href="#DejaVuSans-30" transform="translate(95.410156 0)"/>
     </g>
    </g>
    <g id="patch_159">
     <path d="M 226.975938 42.076563 
L 246.975938 42.076563 
L 246.975938 35.076563 
L 226.975938 35.076563 
z
" style="fill: #008000"/>
    </g>
    <g id="text_27">
     <!-- 0.1 -->
     <g transform="translate(254.975938 42.076563) scale(0.1 -0.1)">
      <use xlink:href="#DejaVuSans-30"/>
      <use xlink:href="#DejaVuSans-2e" transform="translate(63.623047 0)"/>
      <use xlink:href="#DejaVuSans-31" transform="translate(95.410156 0)"/>
     </g>
    </g>
    <g id="patch_160">
     <path d="M 226.975938 56.754687 
L 246.975938 56.754687 
L 246.975938 49.754687 
L 226.975938 49.754687 
z
" style="fill: #ff0000"/>
    </g>
    <g id="text_28">
     <!-- 0.2 -->
     <g transform="translate(254.975938 56.754687) scale(0.1 -0.1)">
      <use xlink:href="#DejaVuSans-30"/>
      <use xlink:href="#DejaVuSans-2e" transform="translate(63.623047 0)"/>
      <use xlink:href="#DejaVuSans-32" transform="translate(95.410156 0)"/>
     </g>
    </g>
    <g id="patch_161">
     <path d="M 226.975938 71.432813 
L 246.975938 71.432813 
L 246.975938 64.432813 
L 226.975938 64.432813 
z
" style="fill: #800080"/>
    </g>
    <g id="text_29">
     <!-- 0.3 -->
     <g transform="translate(254.975938 71.432813) scale(0.1 -0.1)">
      <use xlink:href="#DejaVuSans-30"/>
      <use xlink:href="#DejaVuSans-2e" transform="translate(63.623047 0)"/>
      <use xlink:href="#DejaVuSans-33" transform="translate(95.410156 0)"/>
     </g>
    </g>
    <g id="patch_162">
     <path d="M 226.975938 86.110938 
L 246.975938 86.110938 
L 246.975938 79.110938 
L 226.975938 79.110938 
z
" style="fill: #a52a2a"/>
    </g>
    <g id="text_30">
     <!-- 0.4 -->
     <g transform="translate(254.975938 86.110938) scale(0.1 -0.1)">
      <use xlink:href="#DejaVuSans-30"/>
      <use xlink:href="#DejaVuSans-2e" transform="translate(63.623047 0)"/>
      <use xlink:href="#DejaVuSans-34" transform="translate(95.410156 0)"/>
     </g>
    </g>
    <g id="patch_163">
     <path d="M 226.975938 100.789062 
L 246.975938 100.789062 
L 246.975938 93.789062 
L 226.975938 93.789062 
z
" style="fill: #ffc0cb"/>
    </g>
    <g id="text_31">
     <!-- 0.5 -->
     <g transform="translate(254.975938 100.789062) scale(0.1 -0.1)">
      <use xlink:href="#DejaVuSans-30"/>
      <use xlink:href="#DejaVuSans-2e" transform="translate(63.623047 0)"/>
      <use xlink:href="#DejaVuSans-35" transform="translate(95.410156 0)"/>
     </g>
    </g>
    <g id="patch_164">
     <path d="M 226.975938 115.467188 
L 246.975938 115.467188 
L 246.975938 108.467188 
L 226.975938 108.467188 
z
" style="fill: #808080"/>
    </g>
    <g id="text_32">
     <!-- 0.6 -->
     <g transform="translate(254.975938 115.467188) scale(0.1 -0.1)">
      <use xlink:href="#DejaVuSans-30"/>
      <use xlink:href="#DejaVuSans-2e" transform="translate(63.623047 0)"/>
      <use xlink:href="#DejaVuSans-36" transform="translate(95.410156 0)"/>
     </g>
    </g>
    <g id="patch_165">
     <path d="M 226.975938 130.145312 
L 246.975938 130.145312 
L 246.975938 123.145312 
L 226.975938 123.145312 
z
" style="fill: #808000"/>
    </g>
    <g id="text_33">
     <!-- 0.7 -->
     <g transform="translate(254.975938 130.145312) scale(0.1 -0.1)">
      <use xlink:href="#DejaVuSans-30"/>
      <use xlink:href="#DejaVuSans-2e" transform="translate(63.623047 0)"/>
      <use xlink:href="#DejaVuSans-37" transform="translate(95.410156 0)"/>
     </g>
    </g>
    <g id="patch_166">
     <path d="M 226.975938 144.823438 
L 246.975938 144.823438 
L 246.975938 137.823438 
L 226.975938 137.823438 
z
" style="fill: #00ffff"/>
    </g>
    <g id="text_34">
     <!-- 0.8 -->
     <g transform="translate(254.975938 144.823438) scale(0.1 -0.1)">
      <defs>
       <path id="DejaVuSans-38" d="M 2034 2216 
Q 1584 2216 1326 1975 
Q 1069 1734 1069 1313 
Q 1069 891 1326 650 
Q 1584 409 2034 409 
Q 2484 409 2743 651 
Q 3003 894 3003 1313 
Q 3003 1734 2745 1975 
Q 2488 2216 2034 2216 
z
M 1403 2484 
Q 997 2584 770 2862 
Q 544 3141 544 3541 
Q 544 4100 942 4425 
Q 1341 4750 2034 4750 
Q 2731 4750 3128 4425 
Q 3525 4100 3525 3541 
Q 3525 3141 3298 2862 
Q 3072 2584 2669 2484 
Q 3125 2378 3379 2068 
Q 3634 1759 3634 1313 
Q 3634 634 3220 271 
Q 2806 -91 2034 -91 
Q 1263 -91 848 271 
Q 434 634 434 1313 
Q 434 1759 690 2068 
Q 947 2378 1403 2484 
z
M 1172 3481 
Q 1172 3119 1398 2916 
Q 1625 2713 2034 2713 
Q 2441 2713 2670 2916 
Q 2900 3119 2900 3481 
Q 2900 3844 2670 4047 
Q 2441 4250 2034 4250 
Q 1625 4250 1398 4047 
Q 1172 3844 1172 3481 
z
" transform="scale(0.015625)"/>
      </defs>
      <use xlink:href="#DejaVuSans-30"/>
      <use xlink:href="#DejaVuSans-2e" transform="translate(63.623047 0)"/>
      <use xlink:href="#DejaVuSans-38" transform="translate(95.410156 0)"/>
     </g>
    </g>
    <g id="patch_167">
     <path d="M 226.975938 159.501562 
L 246.975938 159.501562 
L 246.975938 152.501562 
L 226.975938 152.501562 
z
" style="fill: #800000"/>
    </g>
    <g id="text_35">
     <!-- 0.9 -->
     <g transform="translate(254.975938 159.501562) scale(0.1 -0.1)">
      <defs>
       <path id="DejaVuSans-39" d="M 703 97 
L 703 672 
Q 941 559 1184 500 
Q 1428 441 1663 441 
Q 2288 441 2617 861 
Q 2947 1281 2994 2138 
Q 2813 1869 2534 1725 
Q 2256 1581 1919 1581 
Q 1219 1581 811 2004 
Q 403 2428 403 3163 
Q 403 3881 828 4315 
Q 1253 4750 1959 4750 
Q 2769 4750 3195 4129 
Q 3622 3509 3622 2328 
Q 3622 1225 3098 567 
Q 2575 -91 1691 -91 
Q 1453 -91 1209 -44 
Q 966 3 703 97 
z
M 1959 2075 
Q 2384 2075 2632 2365 
Q 2881 2656 2881 3163 
Q 2881 3666 2632 3958 
Q 2384 4250 1959 4250 
Q 1534 4250 1286 3958 
Q 1038 3666 1038 3163 
Q 1038 2656 1286 2365 
Q 1534 2075 1959 2075 
z
" transform="scale(0.015625)"/>
      </defs>
      <use xlink:href="#DejaVuSans-30"/>
      <use xlink:href="#DejaVuSans-2e" transform="translate(63.623047 0)"/>
      <use xlink:href="#DejaVuSans-39" transform="translate(95.410156 0)"/>
     </g>
    </g>
   </g>
  </g>
 </g>
 <defs>
  <clipPath id="p543e3464da">
   <rect x="47.855" y="10.8" width="402.145" height="187.675"/>
  </clipPath>
 </defs>
</svg>
