<?xml version="1.0" encoding="utf-8" standalone="no"?>
<!DOCTYPE svg PUBLIC "-//W3C//DTD SVG 1.1//EN"
  "http://www.w3.org/Graphics/SVG/1.1/DTD/svg11.dtd">
<svg xmlns:xlink="http://www.w3.org/1999/xlink" width="460.8pt" height="345.6pt" viewBox="0 0 460.8 345.6" xmlns="http://www.w3.org/2000/svg" version="1.1">
 <metadata>
  <rdf:RDF xmlns:dc="http://purl.org/dc/elements/1.1/" xmlns:cc="http://creativecommons.org/ns#" xmlns:rdf="http://www.w3.org/1999/02/22-rdf-syntax-ns#">
   <cc:Work>
    <dc:type rdf:resource="http://purl.org/dc/dcmitype/StillImage"/>
    <dc:date>2026-04-19T11:55:33.225661</dc:date>
    <dc:format>image/svg+xml</dc:format>
    <dc:creator>
     <cc:Agent>
      <dc:title>Matplotlib v3.10.8, https://matplotlib.org/</dc:title>
     </cc:Agent>
    </dc:creator>
   </cc:Work>
  </rdf:RDF>
 </metadata>
 <defs>
  <style type="text/css">*{stroke-linejoin: round; stroke-linecap: butt}</style>
 </defs>
 <g id="figure_1">
  <g id="patch_1">
   <path d="M 0 345.6 
L 460.8 345.6 
L 460.8 0 
L 0 0 
z
" style="fill: #ffffff"/>
  </g>
  <g id="axes_1">
   <g id="patch_2">
    <path d="M 47.72 213.32 
L 450 213.32 
L 450 10.8 
L 47.72 10.8 
z
" style="fill: #ffffff"/>
   </g>
   <g id="patch_3">
    <path d="M 66.005455 213.32 
L 73.786499 213.32 
L 73.786499 23.442227 
L 66.005455 23.442227 
z
" clip-path="url(#pfe0d4d24b0)" style="fill: #0000ff"/>
   </g>
   <g id="patch_4">
    <path d="M 85.458066 213.32 
L 93.23911 213.32 
L 93.23911 52.441847 
L 85.458066 52.441847 
z
" clip-path="url(#pfe0d4d24b0)" style="fill: #0000ff"/>
   </g>
   <g id="patch_5">
    <path d="M 104.910677 213.32 
L 112.691721 213.32 
L 112.691721 210.262721 
L 104.910677 210.262721 
z
" clip-path="url(#pfe0d4d24b0)" style="fill: #0000ff"/>
   </g>
   <g id="patch_6">
    <path d="M 124.363288 213.32 
L 132.144333 213.32 
L 132.144333 200.437876 
L 124.363288 200.437876 
z
" clip-path="url(#pfe0d4d24b0)" style="fill: #0000ff"/>
   </g>
   <g id="patch_7">
    <path d="M 143.815899 213.32 
L 151.596944 213.32 
L 151.596944 206.938303 
L 143.815899 206.938303 
z
" clip-path="url(#pfe0d4d24b0)" style="fill: #0000ff"/>
   </g>
   <g id="patch_8">
    <path d="M 163.268511 213.32 
L 171.049555 213.32 
L 171.049555 212.132707 
L 163.268511 212.132707 
z
" clip-path="url(#pfe0d4d24b0)" style="fill: #0000ff"/>
   </g>
   <g id="patch_9">
    <path d="M 182.721122 213.32 
L 190.502166 213.32 
L 190.502166 205.840057 
L 182.721122 205.840057 
z
" clip-path="url(#pfe0d4d24b0)" style="fill: #0000ff"/>
   </g>
   <g id="patch_10">
    <path d="M 202.173733 213.32 
L 209.954778 213.32 
L 209.954778 21.037966 
L 202.173733 21.037966 
z
" clip-path="url(#pfe0d4d24b0)" style="fill: #0000ff"/>
   </g>
   <g id="patch_11">
    <path d="M 221.626344 213.32 
L 229.407389 213.32 
L 229.407389 51.788844 
L 221.626344 51.788844 
z
" clip-path="url(#pfe0d4d24b0)" style="fill: #0000ff"/>
   </g>
   <g id="patch_12">
    <path d="M 241.078956 213.32 
L 248.86 213.32 
L 248.86 20.503689 
L 241.078956 20.503689 
z
" clip-path="url(#pfe0d4d24b0)" style="fill: #0000ff"/>
   </g>
   <g id="patch_13">
    <path d="M 260.531567 213.32 
L 268.312611 213.32 
L 268.312611 51.848215 
L 260.531567 51.848215 
z
" clip-path="url(#pfe0d4d24b0)" style="fill: #0000ff"/>
   </g>
   <g id="patch_14">
    <path d="M 279.984178 213.32 
L 287.765222 213.32 
L 287.765222 71.735362 
L 279.984178 71.735362 
z
" clip-path="url(#pfe0d4d24b0)" style="fill: #0000ff"/>
   </g>
   <g id="patch_15">
    <path d="M 299.436789 213.32 
L 307.217834 213.32 
L 307.217834 49.206484 
L 299.436789 49.206484 
z
" clip-path="url(#pfe0d4d24b0)" style="fill: #0000ff"/>
   </g>
   <g id="patch_16">
    <path d="M 318.8894 213.32 
L 326.670445 213.32 
L 326.670445 65.145878 
L 318.8894 65.145878 
z
" clip-path="url(#pfe0d4d24b0)" style="fill: #0000ff"/>
   </g>
   <g id="patch_17">
    <path d="M 338.342012 213.32 
L 346.123056 213.32 
L 346.123056 48.583151 
L 338.342012 48.583151 
z
" clip-path="url(#pfe0d4d24b0)" style="fill: #0000ff"/>
   </g>
   <g id="patch_18">
    <path d="M 357.794623 213.32 
L 365.575667 213.32 
L 365.575667 87.259205 
L 357.794623 87.259205 
z
" clip-path="url(#pfe0d4d24b0)" style="fill: #0000ff"/>
   </g>
   <g id="patch_19">
    <path d="M 377.247234 213.32 
L 385.028279 213.32 
L 385.028279 56.152148 
L 377.247234 56.152148 
z
" clip-path="url(#pfe0d4d24b0)" style="fill: #0000ff"/>
   </g>
   <g id="patch_20">
    <path d="M 396.699845 213.32 
L 404.48089 213.32 
L 404.48089 79.096576 
L 396.699845 79.096576 
z
" clip-path="url(#pfe0d4d24b0)" style="fill: #0000ff"/>
   </g>
   <g id="patch_21">
    <path d="M 416.152456 213.32 
L 423.933501 213.32 
L 423.933501 50.74996 
L 416.152456 50.74996 
z
" clip-path="url(#pfe0d4d24b0)" style="fill: #0000ff"/>
   </g>
   <g id="patch_22">
    <path d="M 73.786499 213.32 
L 81.567544 213.32 
L 81.567544 23.236967 
L 73.786499 23.236967 
z
" clip-path="url(#pfe0d4d24b0)" style="fill: #008000"/>
   </g>
   <g id="patch_23">
    <path d="M 93.23911 213.32 
L 101.020155 213.32 
L 101.020155 52.267927 
L 93.23911 52.267927 
z
" clip-path="url(#pfe0d4d24b0)" style="fill: #008000"/>
   </g>
   <g id="patch_24">
    <path d="M 112.691721 213.32 
L 120.472766 213.32 
L 120.472766 210.259416 
L 112.691721 210.259416 
z
" clip-path="url(#pfe0d4d24b0)" style="fill: #008000"/>
   </g>
   <g id="patch_25">
    <path d="M 132.144333 213.32 
L 139.925377 213.32 
L 139.925377 200.423949 
L 132.144333 200.423949 
z
" clip-path="url(#pfe0d4d24b0)" style="fill: #008000"/>
   </g>
   <g id="patch_26">
    <path d="M 151.596944 213.32 
L 159.377988 213.32 
L 159.377988 206.931403 
L 151.596944 206.931403 
z
" clip-path="url(#pfe0d4d24b0)" style="fill: #008000"/>
   </g>
   <g id="patch_27">
    <path d="M 171.049555 213.32 
L 178.8306 213.32 
L 178.8306 212.131424 
L 171.049555 212.131424 
z
" clip-path="url(#pfe0d4d24b0)" style="fill: #008000"/>
   </g>
   <g id="patch_28">
    <path d="M 190.502166 213.32 
L 198.283211 213.32 
L 198.283211 205.83197 
L 190.502166 205.83197 
z
" clip-path="url(#pfe0d4d24b0)" style="fill: #008000"/>
   </g>
   <g id="patch_29">
    <path d="M 209.954778 213.32 
L 217.735822 213.32 
L 217.735822 20.8301 
L 209.954778 20.8301 
z
" clip-path="url(#pfe0d4d24b0)" style="fill: #008000"/>
   </g>
   <g id="patch_30">
    <path d="M 229.407389 213.32 
L 237.188433 213.32 
L 237.188433 51.614219 
L 229.407389 51.614219 
z
" clip-path="url(#pfe0d4d24b0)" style="fill: #008000"/>
   </g>
   <g id="patch_31">
    <path d="M 248.86 213.32 
L 256.641044 213.32 
L 256.641044 20.44381 
L 248.86 20.44381 
z
" clip-path="url(#pfe0d4d24b0)" style="fill: #008000"/>
   </g>
   <g id="patch_32">
    <path d="M 268.312611 213.32 
L 276.093656 213.32 
L 276.093656 51.67364 
L 268.312611 51.67364 
z
" clip-path="url(#pfe0d4d24b0)" style="fill: #008000"/>
   </g>
   <g id="patch_33">
    <path d="M 287.765222 213.32 
L 295.546267 213.32 
L 295.546267 71.582297 
L 287.765222 71.582297 
z
" clip-path="url(#pfe0d4d24b0)" style="fill: #008000"/>
   </g>
   <g id="patch_34">
    <path d="M 307.217834 213.32 
L 314.998878 213.32 
L 314.998878 49.029058 
L 307.217834 49.029058 
z
" clip-path="url(#pfe0d4d24b0)" style="fill: #008000"/>
   </g>
   <g id="patch_35">
    <path d="M 326.670445 213.32 
L 334.451489 213.32 
L 334.451489 64.985703 
L 326.670445 64.985703 
z
" clip-path="url(#pfe0d4d24b0)" style="fill: #008000"/>
   </g>
   <g id="patch_36">
    <path d="M 346.123056 213.32 
L 353.904101 213.32 
L 353.904101 48.405053 
L 346.123056 48.405053 
z
" clip-path="url(#pfe0d4d24b0)" style="fill: #008000"/>
   </g>
   <g id="patch_37">
    <path d="M 365.575667 213.32 
L 373.356712 213.32 
L 373.356712 87.122925 
L 365.575667 87.122925 
z
" clip-path="url(#pfe0d4d24b0)" style="fill: #008000"/>
   </g>
   <g id="patch_38">
    <path d="M 385.028279 213.32 
L 392.809323 213.32 
L 392.809323 55.982225 
L 385.028279 55.982225 
z
" clip-path="url(#pfe0d4d24b0)" style="fill: #008000"/>
   </g>
   <g id="patch_39">
    <path d="M 404.48089 213.32 
L 412.261934 213.32 
L 412.261934 78.951465 
L 404.48089 78.951465 
z
" clip-path="url(#pfe0d4d24b0)" style="fill: #008000"/>
   </g>
   <g id="patch_40">
    <path d="M 423.933501 213.32 
L 431.714545 213.32 
L 431.714545 50.574205 
L 423.933501 50.574205 
z
" clip-path="url(#pfe0d4d24b0)" style="fill: #008000"/>
   </g>
   <g id="matplotlib.axis_1">
    <g id="xtick_1">
     <g id="line2d_1">
      <defs>
       <path id="m521cdcd9ae" d="M 0 0 
L 0 3.5 
" style="stroke: #000000; stroke-width: 0.8"/>
      </defs>
      <g>
       <use xlink:href="#m521cdcd9ae" x="73.786499" y="213.32" style="stroke: #000000; stroke-width: 0.8"/>
      </g>
     </g>
     <g id="text_1">
      <!-- fasterrcnn -->
      <g transform="translate(71.706812 271.246562) rotate(-90) scale(0.1 -0.1)">
       <defs>
        <path id="DejaVuSans-66" d="M 2375 4863 
L 2375 4384 
L 1825 4384 
Q 1516 4384 1395 4259 
Q 1275 4134 1275 3809 
L 1275 3500 
L 2222 3500 
L 2222 3053 
L 1275 3053 
L 1275 0 
L 697 0 
L 697 3053 
L 147 3053 
L 147 3500 
L 697 3500 
L 697 3744 
Q 697 4328 969 4595 
Q 1241 4863 1831 4863 
L 2375 4863 
z
" transform="scale(0.015625)"/>
        <path id="DejaVuSans-61" d="M 2194 1759 
Q 1497 1759 1228 1600 
Q 959 1441 959 1056 
Q 959 750 1161 570 
Q 1363 391 1709 391 
Q 2188 391 2477 730 
Q 2766 1069 2766 1631 
L 2766 1759 
L 2194 1759 
z
M 3341 1997 
L 3341 0 
L 2766 0 
L 2766 531 
Q 2569 213 2275 61 
Q 1981 -91 1556 -91 
Q 1019 -91 701 211 
Q 384 513 384 1019 
Q 384 1609 779 1909 
Q 1175 2209 1959 2209 
L 2766 2209 
L 2766 2266 
Q 2766 2663 2505 2880 
Q 2244 3097 1772 3097 
Q 1472 3097 1187 3025 
Q 903 2953 641 2809 
L 641 3341 
Q 956 3463 1253 3523 
Q 1550 3584 1831 3584 
Q 2591 3584 2966 3190 
Q 3341 2797 3341 1997 
z
" transform="scale(0.015625)"/>
        <path id="DejaVuSans-73" d="M 2834 3397 
L 2834 2853 
Q 2591 2978 2328 3040 
Q 2066 3103 1784 3103 
Q 1356 3103 1142 2972 
Q 928 2841 928 2578 
Q 928 2378 1081 2264 
Q 1234 2150 1697 2047 
L 1894 2003 
Q 2506 1872 2764 1633 
Q 3022 1394 3022 966 
Q 3022 478 2636 193 
Q 2250 -91 1575 -91 
Q 1294 -91 989 -36 
Q 684 19 347 128 
L 347 722 
Q 666 556 975 473 
Q 1284 391 1588 391 
Q 1994 391 2212 530 
Q 2431 669 2431 922 
Q 2431 1156 2273 1281 
Q 2116 1406 1581 1522 
L 1381 1569 
Q 847 1681 609 1914 
Q 372 2147 372 2553 
Q 372 3047 722 3315 
Q 1072 3584 1716 3584 
Q 2034 3584 2315 3537 
Q 2597 3491 2834 3397 
z
" transform="scale(0.015625)"/>
        <path id="DejaVuSans-74" d="M 1172 4494 
L 1172 3500 
L 2356 3500 
L 2356 3053 
L 1172 3053 
L 1172 1153 
Q 1172 725 1289 603 
Q 1406 481 1766 481 
L 2356 481 
L 2356 0 
L 1766 0 
Q 1100 0 847 248 
Q 594 497 594 1153 
L 594 3053 
L 172 3053 
L 172 3500 
L 594 3500 
L 594 4494 
L 1172 4494 
z
" transform="scale(0.015625)"/>
        <path id="DejaVuSans-65" d="M 3597 1894 
L 3597 1613 
L 953 1613 
Q 991 1019 1311 708 
Q 1631 397 2203 397 
Q 2534 397 2845 478 
Q 3156 559 3463 722 
L 3463 178 
Q 3153 47 2828 -22 
Q 2503 -91 2169 -91 
Q 1331 -91 842 396 
Q 353 884 353 1716 
Q 353 2575 817 3079 
Q 1281 3584 2069 3584 
Q 2775 3584 3186 3129 
Q 3597 2675 3597 1894 
z
M 3022 2063 
Q 3016 2534 2758 2815 
Q 2500 3097 2075 3097 
Q 1594 3097 1305 2825 
Q 1016 2553 972 2059 
L 3022 2063 
z
" transform="scale(0.015625)"/>
        <path id="DejaVuSans-72" d="M 2631 2963 
Q 2534 3019 2420 3045 
Q 2306 3072 2169 3072 
Q 1681 3072 1420 2755 
Q 1159 2438 1159 1844 
L 1159 0 
L 581 0 
L 581 3500 
L 1159 3500 
L 1159 2956 
Q 1341 3275 1631 3429 
Q 1922 3584 2338 3584 
Q 2397 3584 2469 3576 
Q 2541 3569 2628 3553 
L 2631 2963 
z
" transform="scale(0.015625)"/>
        <path id="DejaVuSans-63" d="M 3122 3366 
L 3122 2828 
Q 2878 2963 2633 3030 
Q 2388 3097 2138 3097 
Q 1578 3097 1268 2742 
Q 959 2388 959 1747 
Q 959 1106 1268 751 
Q 1578 397 2138 397 
Q 2388 397 2633 464 
Q 2878 531 3122 666 
L 3122 134 
Q 2881 22 2623 -34 
Q 2366 -91 2075 -91 
Q 1284 -91 818 406 
Q 353 903 353 1747 
Q 353 2603 823 3093 
Q 1294 3584 2113 3584 
Q 2378 3584 2631 3529 
Q 2884 3475 3122 3366 
z
" transform="scale(0.015625)"/>
        <path id="DejaVuSans-6e" d="M 3513 2113 
L 3513 0 
L 2938 0 
L 2938 2094 
Q 2938 2591 2744 2837 
Q 2550 3084 2163 3084 
Q 1697 3084 1428 2787 
Q 1159 2491 1159 1978 
L 1159 0 
L 581 0 
L 581 3500 
L 1159 3500 
L 1159 2956 
Q 1366 3272 1645 3428 
Q 1925 3584 2291 3584 
Q 2894 3584 3203 3211 
Q 3513 2838 3513 2113 
z
" transform="scale(0.015625)"/>
       </defs>
       <use xlink:href="#DejaVuSans-66"/>
       <use xlink:href="#DejaVuSans-61" transform="translate(35.205078 0)"/>
       <use xlink:href="#DejaVuSans-73" transform="translate(96.484375 0)"/>
       <use xlink:href="#DejaVuSans-74" transform="translate(148.583984 0)"/>
       <use xlink:href="#DejaVuSans-65" transform="translate(187.792969 0)"/>
       <use xlink:href="#DejaVuSans-72" transform="translate(249.316406 0)"/>
       <use xlink:href="#DejaVuSans-72" transform="translate(288.679688 0)"/>
       <use xlink:href="#DejaVuSans-63" transform="translate(327.542969 0)"/>
       <use xlink:href="#DejaVuSans-6e" transform="translate(382.523438 0)"/>
       <use xlink:href="#DejaVuSans-6e" transform="translate(445.902344 0)"/>
      </g>
     </g>
    </g>
    <g id="xtick_2">
     <g id="line2d_2">
      <g>
       <use xlink:href="#m521cdcd9ae" x="93.23911" y="213.32" style="stroke: #000000; stroke-width: 0.8"/>
      </g>
     </g>
     <g id="text_2">
      <!-- fasterrcnn-pretrained -->
      <g transform="translate(91.159423 327.018438) rotate(-90) scale(0.1 -0.1)">
       <defs>
        <path id="DejaVuSans-2d" d="M 313 2009 
L 1997 2009 
L 1997 1497 
L 313 1497 
L 313 2009 
z
" transform="scale(0.015625)"/>
        <path id="DejaVuSans-70" d="M 1159 525 
L 1159 -1331 
L 581 -1331 
L 581 3500 
L 1159 3500 
L 1159 2969 
Q 1341 3281 1617 3432 
Q 1894 3584 2278 3584 
Q 2916 3584 3314 3078 
Q 3713 2572 3713 1747 
Q 3713 922 3314 415 
Q 2916 -91 2278 -91 
Q 1894 -91 1617 61 
Q 1341 213 1159 525 
z
M 3116 1747 
Q 3116 2381 2855 2742 
Q 2594 3103 2138 3103 
Q 1681 3103 1420 2742 
Q 1159 2381 1159 1747 
Q 1159 1113 1420 752 
Q 1681 391 2138 391 
Q 2594 391 2855 752 
Q 3116 1113 3116 1747 
z
" transform="scale(0.015625)"/>
        <path id="DejaVuSans-69" d="M 603 3500 
L 1178 3500 
L 1178 0 
L 603 0 
L 603 3500 
z
M 603 4863 
L 1178 4863 
L 1178 4134 
L 603 4134 
L 603 4863 
z
" transform="scale(0.015625)"/>
        <path id="DejaVuSans-64" d="M 2906 2969 
L 2906 4863 
L 3481 4863 
L 3481 0 
L 2906 0 
L 2906 525 
Q 2725 213 2448 61 
Q 2172 -91 1784 -91 
Q 1150 -91 751 415 
Q 353 922 353 1747 
Q 353 2572 751 3078 
Q 1150 3584 1784 3584 
Q 2172 3584 2448 3432 
Q 2725 3281 2906 2969 
z
M 947 1747 
Q 947 1113 1208 752 
Q 1469 391 1925 391 
Q 2381 391 2643 752 
Q 2906 1113 2906 1747 
Q 2906 2381 2643 2742 
Q 2381 3103 1925 3103 
Q 1469 3103 1208 2742 
Q 947 2381 947 1747 
z
" transform="scale(0.015625)"/>
       </defs>
       <use xlink:href="#DejaVuSans-66"/>
       <use xlink:href="#DejaVuSans-61" transform="translate(35.205078 0)"/>
       <use xlink:href="#DejaVuSans-73" transform="translate(96.484375 0)"/>
       <use xlink:href="#DejaVuSans-74" transform="translate(148.583984 0)"/>
       <use xlink:href="#DejaVuSans-65" transform="translate(187.792969 0)"/>
       <use xlink:href="#DejaVuSans-72" transform="translate(249.316406 0)"/>
       <use xlink:href="#DejaVuSans-72" transform="translate(288.679688 0)"/>
       <use xlink:href="#DejaVuSans-63" transform="translate(327.542969 0)"/>
       <use xlink:href="#DejaVuSans-6e" transform="translate(382.523438 0)"/>
       <use xlink:href="#DejaVuSans-6e" transform="translate(445.902344 0)"/>
       <use xlink:href="#DejaVuSans-2d" transform="translate(509.28125 0)"/>
       <use xlink:href="#DejaVuSans-70" transform="translate(545.365234 0)"/>
       <use xlink:href="#DejaVuSans-72" transform="translate(608.841797 0)"/>
       <use xlink:href="#DejaVuSans-65" transform="translate(647.705078 0)"/>
       <use xlink:href="#DejaVuSans-74" transform="translate(709.228516 0)"/>
       <use xlink:href="#DejaVuSans-72" transform="translate(748.4375 0)"/>
       <use xlink:href="#DejaVuSans-61" transform="translate(789.550781 0)"/>
       <use xlink:href="#DejaVuSans-69" transform="translate(850.830078 0)"/>
       <use xlink:href="#DejaVuSans-6e" transform="translate(878.613281 0)"/>
       <use xlink:href="#DejaVuSans-65" transform="translate(941.992188 0)"/>
       <use xlink:href="#DejaVuSans-64" transform="translate(1003.515625 0)"/>
      </g>
     </g>
    </g>
    <g id="xtick_3">
     <g id="line2d_3">
      <g>
       <use xlink:href="#m521cdcd9ae" x="112.691721" y="213.32" style="stroke: #000000; stroke-width: 0.8"/>
      </g>
     </g>
     <g id="text_3">
      <!-- gemini-2.0-flash -->
      <g transform="translate(110.612034 301.548125) rotate(-90) scale(0.1 -0.1)">
       <defs>
        <path id="DejaVuSans-67" d="M 2906 1791 
Q 2906 2416 2648 2759 
Q 2391 3103 1925 3103 
Q 1463 3103 1205 2759 
Q 947 2416 947 1791 
Q 947 1169 1205 825 
Q 1463 481 1925 481 
Q 2391 481 2648 825 
Q 2906 1169 2906 1791 
z
M 3481 434 
Q 3481 -459 3084 -895 
Q 2688 -1331 1869 -1331 
Q 1566 -1331 1297 -1286 
Q 1028 -1241 775 -1147 
L 775 -588 
Q 1028 -725 1275 -790 
Q 1522 -856 1778 -856 
Q 2344 -856 2625 -561 
Q 2906 -266 2906 331 
L 2906 616 
Q 2728 306 2450 153 
Q 2172 0 1784 0 
Q 1141 0 747 490 
Q 353 981 353 1791 
Q 353 2603 747 3093 
Q 1141 3584 1784 3584 
Q 2172 3584 2450 3431 
Q 2728 3278 2906 2969 
L 2906 3500 
L 3481 3500 
L 3481 434 
z
" transform="scale(0.015625)"/>
        <path id="DejaVuSans-6d" d="M 3328 2828 
Q 3544 3216 3844 3400 
Q 4144 3584 4550 3584 
Q 5097 3584 5394 3201 
Q 5691 2819 5691 2113 
L 5691 0 
L 5113 0 
L 5113 2094 
Q 5113 2597 4934 2840 
Q 4756 3084 4391 3084 
Q 3944 3084 3684 2787 
Q 3425 2491 3425 1978 
L 3425 0 
L 2847 0 
L 2847 2094 
Q 2847 2600 2669 2842 
Q 2491 3084 2119 3084 
Q 1678 3084 1418 2786 
Q 1159 2488 1159 1978 
L 1159 0 
L 581 0 
L 581 3500 
L 1159 3500 
L 1159 2956 
Q 1356 3278 1631 3431 
Q 1906 3584 2284 3584 
Q 2666 3584 2933 3390 
Q 3200 3197 3328 2828 
z
" transform="scale(0.015625)"/>
        <path id="DejaVuSans-32" d="M 1228 531 
L 3431 531 
L 3431 0 
L 469 0 
L 469 531 
Q 828 903 1448 1529 
Q 2069 2156 2228 2338 
Q 2531 2678 2651 2914 
Q 2772 3150 2772 3378 
Q 2772 3750 2511 3984 
Q 2250 4219 1831 4219 
Q 1534 4219 1204 4116 
Q 875 4013 500 3803 
L 500 4441 
Q 881 4594 1212 4672 
Q 1544 4750 1819 4750 
Q 2544 4750 2975 4387 
Q 3406 4025 3406 3419 
Q 3406 3131 3298 2873 
Q 3191 2616 2906 2266 
Q 2828 2175 2409 1742 
Q 1991 1309 1228 531 
z
" transform="scale(0.015625)"/>
        <path id="DejaVuSans-2e" d="M 684 794 
L 1344 794 
L 1344 0 
L 684 0 
L 684 794 
z
" transform="scale(0.015625)"/>
        <path id="DejaVuSans-30" d="M 2034 4250 
Q 1547 4250 1301 3770 
Q 1056 3291 1056 2328 
Q 1056 1369 1301 889 
Q 1547 409 2034 409 
Q 2525 409 2770 889 
Q 3016 1369 3016 2328 
Q 3016 3291 2770 3770 
Q 2525 4250 2034 4250 
z
M 2034 4750 
Q 2819 4750 3233 4129 
Q 3647 3509 3647 2328 
Q 3647 1150 3233 529 
Q 2819 -91 2034 -91 
Q 1250 -91 836 529 
Q 422 1150 422 2328 
Q 422 3509 836 4129 
Q 1250 4750 2034 4750 
z
" transform="scale(0.015625)"/>
        <path id="DejaVuSans-6c" d="M 603 4863 
L 1178 4863 
L 1178 0 
L 603 0 
L 603 4863 
z
" transform="scale(0.015625)"/>
        <path id="DejaVuSans-68" d="M 3513 2113 
L 3513 0 
L 2938 0 
L 2938 2094 
Q 2938 2591 2744 2837 
Q 2550 3084 2163 3084 
Q 1697 3084 1428 2787 
Q 1159 2491 1159 1978 
L 1159 0 
L 581 0 
L 581 4863 
L 1159 4863 
L 1159 2956 
Q 1366 3272 1645 3428 
Q 1925 3584 2291 3584 
Q 2894 3584 3203 3211 
Q 3513 2838 3513 2113 
z
" transform="scale(0.015625)"/>
       </defs>
       <use xlink:href="#DejaVuSans-67"/>
       <use xlink:href="#DejaVuSans-65" transform="translate(63.476562 0)"/>
       <use xlink:href="#DejaVuSans-6d" transform="translate(125 0)"/>
       <use xlink:href="#DejaVuSans-69" transform="translate(222.412109 0)"/>
       <use xlink:href="#DejaVuSans-6e" transform="translate(250.195312 0)"/>
       <use xlink:href="#DejaVuSans-69" transform="translate(313.574219 0)"/>
       <use xlink:href="#DejaVuSans-2d" transform="translate(341.357422 0)"/>
       <use xlink:href="#DejaVuSans-32" transform="translate(377.441406 0)"/>
       <use xlink:href="#DejaVuSans-2e" transform="translate(441.064453 0)"/>
       <use xlink:href="#DejaVuSans-30" transform="translate(472.851562 0)"/>
       <use xlink:href="#DejaVuSans-2d" transform="translate(536.474609 0)"/>
       <use xlink:href="#DejaVuSans-66" transform="translate(572.558594 0)"/>
       <use xlink:href="#DejaVuSans-6c" transform="translate(607.763672 0)"/>
       <use xlink:href="#DejaVuSans-61" transform="translate(635.546875 0)"/>
       <use xlink:href="#DejaVuSans-73" transform="translate(696.826172 0)"/>
       <use xlink:href="#DejaVuSans-68" transform="translate(748.925781 0)"/>
      </g>
     </g>
    </g>
    <g id="xtick_4">
     <g id="line2d_4">
      <g>
       <use xlink:href="#m521cdcd9ae" x="132.144333" y="213.32" style="stroke: #000000; stroke-width: 0.8"/>
      </g>
     </g>
     <g id="text_4">
      <!-- gemini-2.5-flash -->
      <g transform="translate(130.064645 301.548125) rotate(-90) scale(0.1 -0.1)">
       <defs>
        <path id="DejaVuSans-35" d="M 691 4666 
L 3169 4666 
L 3169 4134 
L 1269 4134 
L 1269 2991 
Q 1406 3038 1543 3061 
Q 1681 3084 1819 3084 
Q 2600 3084 3056 2656 
Q 3513 2228 3513 1497 
Q 3513 744 3044 326 
Q 2575 -91 1722 -91 
Q 1428 -91 1123 -41 
Q 819 9 494 109 
L 494 744 
Q 775 591 1075 516 
Q 1375 441 1709 441 
Q 2250 441 2565 725 
Q 2881 1009 2881 1497 
Q 2881 1984 2565 2268 
Q 2250 2553 1709 2553 
Q 1456 2553 1204 2497 
Q 953 2441 691 2322 
L 691 4666 
z
" transform="scale(0.015625)"/>
       </defs>
       <use xlink:href="#DejaVuSans-67"/>
       <use xlink:href="#DejaVuSans-65" transform="translate(63.476562 0)"/>
       <use xlink:href="#DejaVuSans-6d" transform="translate(125 0)"/>
       <use xlink:href="#DejaVuSans-69" transform="translate(222.412109 0)"/>
       <use xlink:href="#DejaVuSans-6e" transform="translate(250.195312 0)"/>
       <use xlink:href="#DejaVuSans-69" transform="translate(313.574219 0)"/>
       <use xlink:href="#DejaVuSans-2d" transform="translate(341.357422 0)"/>
       <use xlink:href="#DejaVuSans-32" transform="translate(377.441406 0)"/>
       <use xlink:href="#DejaVuSans-2e" transform="translate(441.064453 0)"/>
       <use xlink:href="#DejaVuSans-35" transform="translate(472.851562 0)"/>
       <use xlink:href="#DejaVuSans-2d" transform="translate(536.474609 0)"/>
       <use xlink:href="#DejaVuSans-66" transform="translate(572.558594 0)"/>
       <use xlink:href="#DejaVuSans-6c" transform="translate(607.763672 0)"/>
       <use xlink:href="#DejaVuSans-61" transform="translate(635.546875 0)"/>
       <use xlink:href="#DejaVuSans-73" transform="translate(696.826172 0)"/>
       <use xlink:href="#DejaVuSans-68" transform="translate(748.925781 0)"/>
      </g>
     </g>
    </g>
    <g id="xtick_5">
     <g id="line2d_5">
      <g>
       <use xlink:href="#m521cdcd9ae" x="151.596944" y="213.32" style="stroke: #000000; stroke-width: 0.8"/>
      </g>
     </g>
     <g id="text_5">
      <!-- gemini-2.5-pro -->
      <g transform="translate(149.517256 293.927813) rotate(-90) scale(0.1 -0.1)">
       <defs>
        <path id="DejaVuSans-6f" d="M 1959 3097 
Q 1497 3097 1228 2736 
Q 959 2375 959 1747 
Q 959 1119 1226 758 
Q 1494 397 1959 397 
Q 2419 397 2687 759 
Q 2956 1122 2956 1747 
Q 2956 2369 2687 2733 
Q 2419 3097 1959 3097 
z
M 1959 3584 
Q 2709 3584 3137 3096 
Q 3566 2609 3566 1747 
Q 3566 888 3137 398 
Q 2709 -91 1959 -91 
Q 1206 -91 779 398 
Q 353 888 353 1747 
Q 353 2609 779 3096 
Q 1206 3584 1959 3584 
z
" transform="scale(0.015625)"/>
       </defs>
       <use xlink:href="#DejaVuSans-67"/>
       <use xlink:href="#DejaVuSans-65" transform="translate(63.476562 0)"/>
       <use xlink:href="#DejaVuSans-6d" transform="translate(125 0)"/>
       <use xlink:href="#DejaVuSans-69" transform="translate(222.412109 0)"/>
       <use xlink:href="#DejaVuSans-6e" transform="translate(250.195312 0)"/>
       <use xlink:href="#DejaVuSans-69" transform="translate(313.574219 0)"/>
       <use xlink:href="#DejaVuSans-2d" transform="translate(341.357422 0)"/>
       <use xlink:href="#DejaVuSans-32" transform="translate(377.441406 0)"/>
       <use xlink:href="#DejaVuSans-2e" transform="translate(441.064453 0)"/>
       <use xlink:href="#DejaVuSans-35" transform="translate(472.851562 0)"/>
       <use xlink:href="#DejaVuSans-2d" transform="translate(536.474609 0)"/>
       <use xlink:href="#DejaVuSans-70" transform="translate(572.558594 0)"/>
       <use xlink:href="#DejaVuSans-72" transform="translate(636.035156 0)"/>
       <use xlink:href="#DejaVuSans-6f" transform="translate(674.898438 0)"/>
      </g>
     </g>
    </g>
    <g id="xtick_6">
     <g id="line2d_6">
      <g>
       <use xlink:href="#m521cdcd9ae" x="171.049555" y="213.32" style="stroke: #000000; stroke-width: 0.8"/>
      </g>
     </g>
     <g id="text_6">
      <!-- gemini-3-flash-preview -->
      <g transform="translate(168.969868 335.030937) rotate(-90) scale(0.1 -0.1)">
       <defs>
        <path id="DejaVuSans-33" d="M 2597 2516 
Q 3050 2419 3304 2112 
Q 3559 1806 3559 1356 
Q 3559 666 3084 287 
Q 2609 -91 1734 -91 
Q 1441 -91 1130 -33 
Q 819 25 488 141 
L 488 750 
Q 750 597 1062 519 
Q 1375 441 1716 441 
Q 2309 441 2620 675 
Q 2931 909 2931 1356 
Q 2931 1769 2642 2001 
Q 2353 2234 1838 2234 
L 1294 2234 
L 1294 2753 
L 1863 2753 
Q 2328 2753 2575 2939 
Q 2822 3125 2822 3475 
Q 2822 3834 2567 4026 
Q 2313 4219 1838 4219 
Q 1578 4219 1281 4162 
Q 984 4106 628 3988 
L 628 4550 
Q 988 4650 1302 4700 
Q 1616 4750 1894 4750 
Q 2613 4750 3031 4423 
Q 3450 4097 3450 3541 
Q 3450 3153 3228 2886 
Q 3006 2619 2597 2516 
z
" transform="scale(0.015625)"/>
        <path id="DejaVuSans-76" d="M 191 3500 
L 800 3500 
L 1894 563 
L 2988 3500 
L 3597 3500 
L 2284 0 
L 1503 0 
L 191 3500 
z
" transform="scale(0.015625)"/>
        <path id="DejaVuSans-77" d="M 269 3500 
L 844 3500 
L 1563 769 
L 2278 3500 
L 2956 3500 
L 3675 769 
L 4391 3500 
L 4966 3500 
L 4050 0 
L 3372 0 
L 2619 2869 
L 1863 0 
L 1184 0 
L 269 3500 
z
" transform="scale(0.015625)"/>
       </defs>
       <use xlink:href="#DejaVuSans-67"/>
       <use xlink:href="#DejaVuSans-65" transform="translate(63.476562 0)"/>
       <use xlink:href="#DejaVuSans-6d" transform="translate(125 0)"/>
       <use xlink:href="#DejaVuSans-69" transform="translate(222.412109 0)"/>
       <use xlink:href="#DejaVuSans-6e" transform="translate(250.195312 0)"/>
       <use xlink:href="#DejaVuSans-69" transform="translate(313.574219 0)"/>
       <use xlink:href="#DejaVuSans-2d" transform="translate(341.357422 0)"/>
       <use xlink:href="#DejaVuSans-33" transform="translate(377.441406 0)"/>
       <use xlink:href="#DejaVuSans-2d" transform="translate(441.064453 0)"/>
       <use xlink:href="#DejaVuSans-66" transform="translate(477.148438 0)"/>
       <use xlink:href="#DejaVuSans-6c" transform="translate(512.353516 0)"/>
       <use xlink:href="#DejaVuSans-61" transform="translate(540.136719 0)"/>
       <use xlink:href="#DejaVuSans-73" transform="translate(601.416016 0)"/>
       <use xlink:href="#DejaVuSans-68" transform="translate(653.515625 0)"/>
       <use xlink:href="#DejaVuSans-2d" transform="translate(716.894531 0)"/>
       <use xlink:href="#DejaVuSans-70" transform="translate(752.978516 0)"/>
       <use xlink:href="#DejaVuSans-72" transform="translate(816.455078 0)"/>
       <use xlink:href="#DejaVuSans-65" transform="translate(855.318359 0)"/>
       <use xlink:href="#DejaVuSans-76" transform="translate(916.841797 0)"/>
       <use xlink:href="#DejaVuSans-69" transform="translate(976.021484 0)"/>
       <use xlink:href="#DejaVuSans-65" transform="translate(1003.804688 0)"/>
       <use xlink:href="#DejaVuSans-77" transform="translate(1065.328125 0)"/>
      </g>
     </g>
    </g>
    <g id="xtick_7">
     <g id="line2d_7">
      <g>
       <use xlink:href="#m521cdcd9ae" x="190.502166" y="213.32" style="stroke: #000000; stroke-width: 0.8"/>
      </g>
     </g>
     <g id="text_7">
      <!-- gemini-3-pro-preview -->
      <g transform="translate(188.422479 327.598125) rotate(-90) scale(0.1 -0.1)">
       <use xlink:href="#DejaVuSans-67"/>
       <use xlink:href="#DejaVuSans-65" transform="translate(63.476562 0)"/>
       <use xlink:href="#DejaVuSans-6d" transform="translate(125 0)"/>
       <use xlink:href="#DejaVuSans-69" transform="translate(222.412109 0)"/>
       <use xlink:href="#DejaVuSans-6e" transform="translate(250.195312 0)"/>
       <use xlink:href="#DejaVuSans-69" transform="translate(313.574219 0)"/>
       <use xlink:href="#DejaVuSans-2d" transform="translate(341.357422 0)"/>
       <use xlink:href="#DejaVuSans-33" transform="translate(377.441406 0)"/>
       <use xlink:href="#DejaVuSans-2d" transform="translate(441.064453 0)"/>
       <use xlink:href="#DejaVuSans-70" transform="translate(477.148438 0)"/>
       <use xlink:href="#DejaVuSans-72" transform="translate(540.625 0)"/>
       <use xlink:href="#DejaVuSans-6f" transform="translate(579.488281 0)"/>
       <use xlink:href="#DejaVuSans-2d" transform="translate(642.544922 0)"/>
       <use xlink:href="#DejaVuSans-70" transform="translate(678.628906 0)"/>
       <use xlink:href="#DejaVuSans-72" transform="translate(742.105469 0)"/>
       <use xlink:href="#DejaVuSans-65" transform="translate(780.96875 0)"/>
       <use xlink:href="#DejaVuSans-76" transform="translate(842.492188 0)"/>
       <use xlink:href="#DejaVuSans-69" transform="translate(901.671875 0)"/>
       <use xlink:href="#DejaVuSans-65" transform="translate(929.455078 0)"/>
       <use xlink:href="#DejaVuSans-77" transform="translate(990.978516 0)"/>
      </g>
     </g>
    </g>
    <g id="xtick_8">
     <g id="line2d_8">
      <g>
       <use xlink:href="#m521cdcd9ae" x="209.954778" y="213.32" style="stroke: #000000; stroke-width: 0.8"/>
      </g>
     </g>
     <g id="text_8">
      <!-- maskrcnn -->
      <g transform="translate(207.87509 269.248125) rotate(-90) scale(0.1 -0.1)">
       <defs>
        <path id="DejaVuSans-6b" d="M 581 4863 
L 1159 4863 
L 1159 1991 
L 2875 3500 
L 3609 3500 
L 1753 1863 
L 3688 0 
L 2938 0 
L 1159 1709 
L 1159 0 
L 581 0 
L 581 4863 
z
" transform="scale(0.015625)"/>
       </defs>
       <use xlink:href="#DejaVuSans-6d"/>
       <use xlink:href="#DejaVuSans-61" transform="translate(97.412109 0)"/>
       <use xlink:href="#DejaVuSans-73" transform="translate(158.691406 0)"/>
       <use xlink:href="#DejaVuSans-6b" transform="translate(210.791016 0)"/>
       <use xlink:href="#DejaVuSans-72" transform="translate(268.701172 0)"/>
       <use xlink:href="#DejaVuSans-63" transform="translate(307.564453 0)"/>
       <use xlink:href="#DejaVuSans-6e" transform="translate(362.544922 0)"/>
       <use xlink:href="#DejaVuSans-6e" transform="translate(425.923828 0)"/>
      </g>
     </g>
    </g>
    <g id="xtick_9">
     <g id="line2d_9">
      <g>
       <use xlink:href="#m521cdcd9ae" x="229.407389" y="213.32" style="stroke: #000000; stroke-width: 0.8"/>
      </g>
     </g>
     <g id="text_9">
      <!-- maskrcnn-pretrained -->
      <g transform="translate(227.327701 325.02) rotate(-90) scale(0.1 -0.1)">
       <use xlink:href="#DejaVuSans-6d"/>
       <use xlink:href="#DejaVuSans-61" transform="translate(97.412109 0)"/>
       <use xlink:href="#DejaVuSans-73" transform="translate(158.691406 0)"/>
       <use xlink:href="#DejaVuSans-6b" transform="translate(210.791016 0)"/>
       <use xlink:href="#DejaVuSans-72" transform="translate(268.701172 0)"/>
       <use xlink:href="#DejaVuSans-63" transform="translate(307.564453 0)"/>
       <use xlink:href="#DejaVuSans-6e" transform="translate(362.544922 0)"/>
       <use xlink:href="#DejaVuSans-6e" transform="translate(425.923828 0)"/>
       <use xlink:href="#DejaVuSans-2d" transform="translate(489.302734 0)"/>
       <use xlink:href="#DejaVuSans-70" transform="translate(525.386719 0)"/>
       <use xlink:href="#DejaVuSans-72" transform="translate(588.863281 0)"/>
       <use xlink:href="#DejaVuSans-65" transform="translate(627.726562 0)"/>
       <use xlink:href="#DejaVuSans-74" transform="translate(689.25 0)"/>
       <use xlink:href="#DejaVuSans-72" transform="translate(728.458984 0)"/>
       <use xlink:href="#DejaVuSans-61" transform="translate(769.572266 0)"/>
       <use xlink:href="#DejaVuSans-69" transform="translate(830.851562 0)"/>
       <use xlink:href="#DejaVuSans-6e" transform="translate(858.634766 0)"/>
       <use xlink:href="#DejaVuSans-65" transform="translate(922.013672 0)"/>
       <use xlink:href="#DejaVuSans-64" transform="translate(983.537109 0)"/>
      </g>
     </g>
    </g>
    <g id="xtick_10">
     <g id="line2d_10">
      <g>
       <use xlink:href="#m521cdcd9ae" x="248.86" y="213.32" style="stroke: #000000; stroke-width: 0.8"/>
      </g>
     </g>
     <g id="text_10">
      <!-- retinanet -->
      <g transform="translate(246.780313 265.934062) rotate(-90) scale(0.1 -0.1)">
       <use xlink:href="#DejaVuSans-72"/>
       <use xlink:href="#DejaVuSans-65" transform="translate(38.863281 0)"/>
       <use xlink:href="#DejaVuSans-74" transform="translate(100.386719 0)"/>
       <use xlink:href="#DejaVuSans-69" transform="translate(139.595703 0)"/>
       <use xlink:href="#DejaVuSans-6e" transform="translate(167.378906 0)"/>
       <use xlink:href="#DejaVuSans-61" transform="translate(230.757812 0)"/>
       <use xlink:href="#DejaVuSans-6e" transform="translate(292.037109 0)"/>
       <use xlink:href="#DejaVuSans-65" transform="translate(355.416016 0)"/>
       <use xlink:href="#DejaVuSans-74" transform="translate(416.939453 0)"/>
      </g>
     </g>
    </g>
    <g id="xtick_11">
     <g id="line2d_11">
      <g>
       <use xlink:href="#m521cdcd9ae" x="268.312611" y="213.32" style="stroke: #000000; stroke-width: 0.8"/>
      </g>
     </g>
     <g id="text_11">
      <!-- retinanet-pretrained -->
      <g transform="translate(266.232924 321.705938) rotate(-90) scale(0.1 -0.1)">
       <use xlink:href="#DejaVuSans-72"/>
       <use xlink:href="#DejaVuSans-65" transform="translate(38.863281 0)"/>
       <use xlink:href="#DejaVuSans-74" transform="translate(100.386719 0)"/>
       <use xlink:href="#DejaVuSans-69" transform="translate(139.595703 0)"/>
       <use xlink:href="#DejaVuSans-6e" transform="translate(167.378906 0)"/>
       <use xlink:href="#DejaVuSans-61" transform="translate(230.757812 0)"/>
       <use xlink:href="#DejaVuSans-6e" transform="translate(292.037109 0)"/>
       <use xlink:href="#DejaVuSans-65" transform="translate(355.416016 0)"/>
       <use xlink:href="#DejaVuSans-74" transform="translate(416.939453 0)"/>
       <use xlink:href="#DejaVuSans-2d" transform="translate(456.148438 0)"/>
       <use xlink:href="#DejaVuSans-70" transform="translate(492.232422 0)"/>
       <use xlink:href="#DejaVuSans-72" transform="translate(555.708984 0)"/>
       <use xlink:href="#DejaVuSans-65" transform="translate(594.572266 0)"/>
       <use xlink:href="#DejaVuSans-74" transform="translate(656.095703 0)"/>
       <use xlink:href="#DejaVuSans-72" transform="translate(695.304688 0)"/>
       <use xlink:href="#DejaVuSans-61" transform="translate(736.417969 0)"/>
       <use xlink:href="#DejaVuSans-69" transform="translate(797.697266 0)"/>
       <use xlink:href="#DejaVuSans-6e" transform="translate(825.480469 0)"/>
       <use xlink:href="#DejaVuSans-65" transform="translate(888.859375 0)"/>
       <use xlink:href="#DejaVuSans-64" transform="translate(950.382812 0)"/>
      </g>
     </g>
    </g>
    <g id="xtick_12">
     <g id="line2d_12">
      <g>
       <use xlink:href="#m521cdcd9ae" x="287.765222" y="213.32" style="stroke: #000000; stroke-width: 0.8"/>
      </g>
     </g>
     <g id="text_12">
      <!-- yolo11l -->
      <g transform="translate(285.685535 256.7575) rotate(-90) scale(0.1 -0.1)">
       <defs>
        <path id="DejaVuSans-79" d="M 2059 -325 
Q 1816 -950 1584 -1140 
Q 1353 -1331 966 -1331 
L 506 -1331 
L 506 -850 
L 844 -850 
Q 1081 -850 1212 -737 
Q 1344 -625 1503 -206 
L 1606 56 
L 191 3500 
L 800 3500 
L 1894 763 
L 2988 3500 
L 3597 3500 
L 2059 -325 
z
" transform="scale(0.015625)"/>
        <path id="DejaVuSans-31" d="M 794 531 
L 1825 531 
L 1825 4091 
L 703 3866 
L 703 4441 
L 1819 4666 
L 2450 4666 
L 2450 531 
L 3481 531 
L 3481 0 
L 794 0 
L 794 531 
z
" transform="scale(0.015625)"/>
       </defs>
       <use xlink:href="#DejaVuSans-79"/>
       <use xlink:href="#DejaVuSans-6f" transform="translate(59.179688 0)"/>
       <use xlink:href="#DejaVuSans-6c" transform="translate(120.361328 0)"/>
       <use xlink:href="#DejaVuSans-6f" transform="translate(148.144531 0)"/>
       <use xlink:href="#DejaVuSans-31" transform="translate(209.326172 0)"/>
       <use xlink:href="#DejaVuSans-31" transform="translate(272.949219 0)"/>
       <use xlink:href="#DejaVuSans-6c" transform="translate(336.572266 0)"/>
      </g>
     </g>
    </g>
    <g id="xtick_13">
     <g id="line2d_13">
      <g>
       <use xlink:href="#m521cdcd9ae" x="307.217834" y="213.32" style="stroke: #000000; stroke-width: 0.8"/>
      </g>
     </g>
     <g id="text_13">
      <!-- yolo11l-pretrained -->
      <g transform="translate(305.138146 312.529375) rotate(-90) scale(0.1 -0.1)">
       <use xlink:href="#DejaVuSans-79"/>
       <use xlink:href="#DejaVuSans-6f" transform="translate(59.179688 0)"/>
       <use xlink:href="#DejaVuSans-6c" transform="translate(120.361328 0)"/>
       <use xlink:href="#DejaVuSans-6f" transform="translate(148.144531 0)"/>
       <use xlink:href="#DejaVuSans-31" transform="translate(209.326172 0)"/>
       <use xlink:href="#DejaVuSans-31" transform="translate(272.949219 0)"/>
       <use xlink:href="#DejaVuSans-6c" transform="translate(336.572266 0)"/>
       <use xlink:href="#DejaVuSans-2d" transform="translate(364.355469 0)"/>
       <use xlink:href="#DejaVuSans-70" transform="translate(400.439453 0)"/>
       <use xlink:href="#DejaVuSans-72" transform="translate(463.916016 0)"/>
       <use xlink:href="#DejaVuSans-65" transform="translate(502.779297 0)"/>
       <use xlink:href="#DejaVuSans-74" transform="translate(564.302734 0)"/>
       <use xlink:href="#DejaVuSans-72" transform="translate(603.511719 0)"/>
       <use xlink:href="#DejaVuSans-61" transform="translate(644.625 0)"/>
       <use xlink:href="#DejaVuSans-69" transform="translate(705.904297 0)"/>
       <use xlink:href="#DejaVuSans-6e" transform="translate(733.6875 0)"/>
       <use xlink:href="#DejaVuSans-65" transform="translate(797.066406 0)"/>
       <use xlink:href="#DejaVuSans-64" transform="translate(858.589844 0)"/>
      </g>
     </g>
    </g>
    <g id="xtick_14">
     <g id="line2d_14">
      <g>
       <use xlink:href="#m521cdcd9ae" x="326.670445" y="213.32" style="stroke: #000000; stroke-width: 0.8"/>
      </g>
     </g>
     <g id="text_14">
      <!-- yolo11m -->
      <g transform="translate(324.590757 263.72) rotate(-90) scale(0.1 -0.1)">
       <use xlink:href="#DejaVuSans-79"/>
       <use xlink:href="#DejaVuSans-6f" transform="translate(59.179688 0)"/>
       <use xlink:href="#DejaVuSans-6c" transform="translate(120.361328 0)"/>
       <use xlink:href="#DejaVuSans-6f" transform="translate(148.144531 0)"/>
       <use xlink:href="#DejaVuSans-31" transform="translate(209.326172 0)"/>
       <use xlink:href="#DejaVuSans-31" transform="translate(272.949219 0)"/>
       <use xlink:href="#DejaVuSans-6d" transform="translate(336.572266 0)"/>
      </g>
     </g>
    </g>
    <g id="xtick_15">
     <g id="line2d_15">
      <g>
       <use xlink:href="#m521cdcd9ae" x="346.123056" y="213.32" style="stroke: #000000; stroke-width: 0.8"/>
      </g>
     </g>
     <g id="text_15">
      <!-- yolo11m-pretrained -->
      <g transform="translate(344.043369 319.491875) rotate(-90) scale(0.1 -0.1)">
       <use xlink:href="#DejaVuSans-79"/>
       <use xlink:href="#DejaVuSans-6f" transform="translate(59.179688 0)"/>
       <use xlink:href="#DejaVuSans-6c" transform="translate(120.361328 0)"/>
       <use xlink:href="#DejaVuSans-6f" transform="translate(148.144531 0)"/>
       <use xlink:href="#DejaVuSans-31" transform="translate(209.326172 0)"/>
       <use xlink:href="#DejaVuSans-31" transform="translate(272.949219 0)"/>
       <use xlink:href="#DejaVuSans-6d" transform="translate(336.572266 0)"/>
       <use xlink:href="#DejaVuSans-2d" transform="translate(433.984375 0)"/>
       <use xlink:href="#DejaVuSans-70" transform="translate(470.068359 0)"/>
       <use xlink:href="#DejaVuSans-72" transform="translate(533.544922 0)"/>
       <use xlink:href="#DejaVuSans-65" transform="translate(572.408203 0)"/>
       <use xlink:href="#DejaVuSans-74" transform="translate(633.931641 0)"/>
       <use xlink:href="#DejaVuSans-72" transform="translate(673.140625 0)"/>
       <use xlink:href="#DejaVuSans-61" transform="translate(714.253906 0)"/>
       <use xlink:href="#DejaVuSans-69" transform="translate(775.533203 0)"/>
       <use xlink:href="#DejaVuSans-6e" transform="translate(803.316406 0)"/>
       <use xlink:href="#DejaVuSans-65" transform="translate(866.695312 0)"/>
       <use xlink:href="#DejaVuSans-64" transform="translate(928.21875 0)"/>
      </g>
     </g>
    </g>
    <g id="xtick_16">
     <g id="line2d_16">
      <g>
       <use xlink:href="#m521cdcd9ae" x="365.575667" y="213.32" style="stroke: #000000; stroke-width: 0.8"/>
      </g>
     </g>
     <g id="text_16">
      <!-- yolo11n -->
      <g transform="translate(363.49598 260.316875) rotate(-90) scale(0.1 -0.1)">
       <use xlink:href="#DejaVuSans-79"/>
       <use xlink:href="#DejaVuSans-6f" transform="translate(59.179688 0)"/>
       <use xlink:href="#DejaVuSans-6c" transform="translate(120.361328 0)"/>
       <use xlink:href="#DejaVuSans-6f" transform="translate(148.144531 0)"/>
       <use xlink:href="#DejaVuSans-31" transform="translate(209.326172 0)"/>
       <use xlink:href="#DejaVuSans-31" transform="translate(272.949219 0)"/>
       <use xlink:href="#DejaVuSans-6e" transform="translate(336.572266 0)"/>
      </g>
     </g>
    </g>
    <g id="xtick_17">
     <g id="line2d_17">
      <g>
       <use xlink:href="#m521cdcd9ae" x="385.028279" y="213.32" style="stroke: #000000; stroke-width: 0.8"/>
      </g>
     </g>
     <g id="text_17">
      <!-- yolo11n-pretrained -->
      <g transform="translate(382.948591 316.08875) rotate(-90) scale(0.1 -0.1)">
       <use xlink:href="#DejaVuSans-79"/>
       <use xlink:href="#DejaVuSans-6f" transform="translate(59.179688 0)"/>
       <use xlink:href="#DejaVuSans-6c" transform="translate(120.361328 0)"/>
       <use xlink:href="#DejaVuSans-6f" transform="translate(148.144531 0)"/>
       <use xlink:href="#DejaVuSans-31" transform="translate(209.326172 0)"/>
       <use xlink:href="#DejaVuSans-31" transform="translate(272.949219 0)"/>
       <use xlink:href="#DejaVuSans-6e" transform="translate(336.572266 0)"/>
       <use xlink:href="#DejaVuSans-2d" transform="translate(399.951172 0)"/>
       <use xlink:href="#DejaVuSans-70" transform="translate(436.035156 0)"/>
       <use xlink:href="#DejaVuSans-72" transform="translate(499.511719 0)"/>
       <use xlink:href="#DejaVuSans-65" transform="translate(538.375 0)"/>
       <use xlink:href="#DejaVuSans-74" transform="translate(599.898438 0)"/>
       <use xlink:href="#DejaVuSans-72" transform="translate(639.107422 0)"/>
       <use xlink:href="#DejaVuSans-61" transform="translate(680.220703 0)"/>
       <use xlink:href="#DejaVuSans-69" transform="translate(741.5 0)"/>
       <use xlink:href="#DejaVuSans-6e" transform="translate(769.283203 0)"/>
       <use xlink:href="#DejaVuSans-65" transform="translate(832.662109 0)"/>
       <use xlink:href="#DejaVuSans-64" transform="translate(894.185547 0)"/>
      </g>
     </g>
    </g>
    <g id="xtick_18">
     <g id="line2d_18">
      <g>
       <use xlink:href="#m521cdcd9ae" x="404.48089" y="213.32" style="stroke: #000000; stroke-width: 0.8"/>
      </g>
     </g>
     <g id="text_18">
      <!-- yolo11s -->
      <g transform="translate(402.401202 259.18875) rotate(-90) scale(0.1 -0.1)">
       <use xlink:href="#DejaVuSans-79"/>
       <use xlink:href="#DejaVuSans-6f" transform="translate(59.179688 0)"/>
       <use xlink:href="#DejaVuSans-6c" transform="translate(120.361328 0)"/>
       <use xlink:href="#DejaVuSans-6f" transform="translate(148.144531 0)"/>
       <use xlink:href="#DejaVuSans-31" transform="translate(209.326172 0)"/>
       <use xlink:href="#DejaVuSans-31" transform="translate(272.949219 0)"/>
       <use xlink:href="#DejaVuSans-73" transform="translate(336.572266 0)"/>
      </g>
     </g>
    </g>
    <g id="xtick_19">
     <g id="line2d_19">
      <g>
       <use xlink:href="#m521cdcd9ae" x="423.933501" y="213.32" style="stroke: #000000; stroke-width: 0.8"/>
      </g>
     </g>
     <g id="text_19">
      <!-- yolo11s-pretrained -->
      <g transform="translate(421.853813 314.960625) rotate(-90) scale(0.1 -0.1)">
       <use xlink:href="#DejaVuSans-79"/>
       <use xlink:href="#DejaVuSans-6f" transform="translate(59.179688 0)"/>
       <use xlink:href="#DejaVuSans-6c" transform="translate(120.361328 0)"/>
       <use xlink:href="#DejaVuSans-6f" transform="translate(148.144531 0)"/>
       <use xlink:href="#DejaVuSans-31" transform="translate(209.326172 0)"/>
       <use xlink:href="#DejaVuSans-31" transform="translate(272.949219 0)"/>
       <use xlink:href="#DejaVuSans-73" transform="translate(336.572266 0)"/>
       <use xlink:href="#DejaVuSans-2d" transform="translate(388.671875 0)"/>
       <use xlink:href="#DejaVuSans-70" transform="translate(424.755859 0)"/>
       <use xlink:href="#DejaVuSans-72" transform="translate(488.232422 0)"/>
       <use xlink:href="#DejaVuSans-65" transform="translate(527.095703 0)"/>
       <use xlink:href="#DejaVuSans-74" transform="translate(588.619141 0)"/>
       <use xlink:href="#DejaVuSans-72" transform="translate(627.828125 0)"/>
       <use xlink:href="#DejaVuSans-61" transform="translate(668.941406 0)"/>
       <use xlink:href="#DejaVuSans-69" transform="translate(730.220703 0)"/>
       <use xlink:href="#DejaVuSans-6e" transform="translate(758.003906 0)"/>
       <use xlink:href="#DejaVuSans-65" transform="translate(821.382812 0)"/>
       <use xlink:href="#DejaVuSans-64" transform="translate(882.90625 0)"/>
      </g>
     </g>
    </g>
   </g>
   <g id="matplotlib.axis_2">
    <g id="ytick_1">
     <g id="line2d_20">
      <path d="M 47.72 213.32 
L 450 213.32 
" clip-path="url(#pfe0d4d24b0)" style="fill: none; stroke-dasharray: 1.85,0.8; stroke-dashoffset: 0; stroke: #808080; stroke-opacity: 0.7; stroke-width: 0.5"/>
     </g>
     <g id="line2d_21">
      <defs>
       <path id="mfe972ead81" d="M 0 0 
L -3.5 0 
" style="stroke: #000000; stroke-width: 0.8"/>
      </defs>
      <g>
       <use xlink:href="#mfe972ead81" x="47.72" y="213.32" style="stroke: #000000; stroke-width: 0.8"/>
      </g>
     </g>
     <g id="text_20">
      <!-- 0.0 -->
      <g transform="translate(24.816875 217.119219) scale(0.1 -0.1)">
       <use xlink:href="#DejaVuSans-30"/>
       <use xlink:href="#DejaVuSans-2e" transform="translate(63.623047 0)"/>
       <use xlink:href="#DejaVuSans-30" transform="translate(95.410156 0)"/>
      </g>
     </g>
    </g>
    <g id="ytick_2">
     <g id="line2d_22">
      <path d="M 47.72 185.834177 
L 450 185.834177 
" clip-path="url(#pfe0d4d24b0)" style="fill: none; stroke-dasharray: 1.85,0.8; stroke-dashoffset: 0; stroke: #808080; stroke-opacity: 0.7; stroke-width: 0.5"/>
     </g>
     <g id="line2d_23">
      <g>
       <use xlink:href="#mfe972ead81" x="47.72" y="185.834177" style="stroke: #000000; stroke-width: 0.8"/>
      </g>
     </g>
     <g id="text_21">
      <!-- 0.1 -->
      <g transform="translate(24.816875 189.633395) scale(0.1 -0.1)">
       <use xlink:href="#DejaVuSans-30"/>
       <use xlink:href="#DejaVuSans-2e" transform="translate(63.623047 0)"/>
       <use xlink:href="#DejaVuSans-31" transform="translate(95.410156 0)"/>
      </g>
     </g>
    </g>
    <g id="ytick_3">
     <g id="line2d_24">
      <path d="M 47.72 158.348353 
L 450 158.348353 
" clip-path="url(#pfe0d4d24b0)" style="fill: none; stroke-dasharray: 1.85,0.8; stroke-dashoffset: 0; stroke: #808080; stroke-opacity: 0.7; stroke-width: 0.5"/>
     </g>
     <g id="line2d_25">
      <g>
       <use xlink:href="#mfe972ead81" x="47.72" y="158.348353" style="stroke: #000000; stroke-width: 0.8"/>
      </g>
     </g>
     <g id="text_22">
      <!-- 0.2 -->
      <g transform="translate(24.816875 162.147572) scale(0.1 -0.1)">
       <use xlink:href="#DejaVuSans-30"/>
       <use xlink:href="#DejaVuSans-2e" transform="translate(63.623047 0)"/>
       <use xlink:href="#DejaVuSans-32" transform="translate(95.410156 0)"/>
      </g>
     </g>
    </g>
    <g id="ytick_4">
     <g id="line2d_26">
      <path d="M 47.72 130.86253 
L 450 130.86253 
" clip-path="url(#pfe0d4d24b0)" style="fill: none; stroke-dasharray: 1.85,0.8; stroke-dashoffset: 0; stroke: #808080; stroke-opacity: 0.7; stroke-width: 0.5"/>
     </g>
     <g id="line2d_27">
      <g>
       <use xlink:href="#mfe972ead81" x="47.72" y="130.86253" style="stroke: #000000; stroke-width: 0.8"/>
      </g>
     </g>
     <g id="text_23">
      <!-- 0.3 -->
      <g transform="translate(24.816875 134.661748) scale(0.1 -0.1)">
       <use xlink:href="#DejaVuSans-30"/>
       <use xlink:href="#DejaVuSans-2e" transform="translate(63.623047 0)"/>
       <use xlink:href="#DejaVuSans-33" transform="translate(95.410156 0)"/>
      </g>
     </g>
    </g>
    <g id="ytick_5">
     <g id="line2d_28">
      <path d="M 47.72 103.376706 
L 450 103.376706 
" clip-path="url(#pfe0d4d24b0)" style="fill: none; stroke-dasharray: 1.85,0.8; stroke-dashoffset: 0; stroke: #808080; stroke-opacity: 0.7; stroke-width: 0.5"/>
     </g>
     <g id="line2d_29">
      <g>
       <use xlink:href="#mfe972ead81" x="47.72" y="103.376706" style="stroke: #000000; stroke-width: 0.8"/>
      </g>
     </g>
     <g id="text_24">
      <!-- 0.4 -->
      <g transform="translate(24.816875 107.175925) scale(0.1 -0.1)">
       <defs>
        <path id="DejaVuSans-34" d="M 2419 4116 
L 825 1625 
L 2419 1625 
L 2419 4116 
z
M 2253 4666 
L 3047 4666 
L 3047 1625 
L 3713 1625 
L 3713 1100 
L 3047 1100 
L 3047 0 
L 2419 0 
L 2419 1100 
L 313 1100 
L 313 1709 
L 2253 4666 
z
" transform="scale(0.015625)"/>
       </defs>
       <use xlink:href="#DejaVuSans-30"/>
       <use xlink:href="#DejaVuSans-2e" transform="translate(63.623047 0)"/>
       <use xlink:href="#DejaVuSans-34" transform="translate(95.410156 0)"/>
      </g>
     </g>
    </g>
    <g id="ytick_6">
     <g id="line2d_30">
      <path d="M 47.72 75.890883 
L 450 75.890883 
" clip-path="url(#pfe0d4d24b0)" style="fill: none; stroke-dasharray: 1.85,0.8; stroke-dashoffset: 0; stroke: #808080; stroke-opacity: 0.7; stroke-width: 0.5"/>
     </g>
     <g id="line2d_31">
      <g>
       <use xlink:href="#mfe972ead81" x="47.72" y="75.890883" style="stroke: #000000; stroke-width: 0.8"/>
      </g>
     </g>
     <g id="text_25">
      <!-- 0.5 -->
      <g transform="translate(24.816875 79.690102) scale(0.1 -0.1)">
       <use xlink:href="#DejaVuSans-30"/>
       <use xlink:href="#DejaVuSans-2e" transform="translate(63.623047 0)"/>
       <use xlink:href="#DejaVuSans-35" transform="translate(95.410156 0)"/>
      </g>
     </g>
    </g>
    <g id="ytick_7">
     <g id="line2d_32">
      <path d="M 47.72 48.405059 
L 450 48.405059 
" clip-path="url(#pfe0d4d24b0)" style="fill: none; stroke-dasharray: 1.85,0.8; stroke-dashoffset: 0; stroke: #808080; stroke-opacity: 0.7; stroke-width: 0.5"/>
     </g>
     <g id="line2d_33">
      <g>
       <use xlink:href="#mfe972ead81" x="47.72" y="48.405059" style="stroke: #000000; stroke-width: 0.8"/>
      </g>
     </g>
     <g id="text_26">
      <!-- 0.6 -->
      <g transform="translate(24.816875 52.204278) scale(0.1 -0.1)">
       <defs>
        <path id="DejaVuSans-36" d="M 2113 2584 
Q 1688 2584 1439 2293 
Q 1191 2003 1191 1497 
Q 1191 994 1439 701 
Q 1688 409 2113 409 
Q 2538 409 2786 701 
Q 3034 994 3034 1497 
Q 3034 2003 2786 2293 
Q 2538 2584 2113 2584 
z
M 3366 4563 
L 3366 3988 
Q 3128 4100 2886 4159 
Q 2644 4219 2406 4219 
Q 1781 4219 1451 3797 
Q 1122 3375 1075 2522 
Q 1259 2794 1537 2939 
Q 1816 3084 2150 3084 
Q 2853 3084 3261 2657 
Q 3669 2231 3669 1497 
Q 3669 778 3244 343 
Q 2819 -91 2113 -91 
Q 1303 -91 875 529 
Q 447 1150 447 2328 
Q 447 3434 972 4092 
Q 1497 4750 2381 4750 
Q 2619 4750 2861 4703 
Q 3103 4656 3366 4563 
z
" transform="scale(0.015625)"/>
       </defs>
       <use xlink:href="#DejaVuSans-30"/>
       <use xlink:href="#DejaVuSans-2e" transform="translate(63.623047 0)"/>
       <use xlink:href="#DejaVuSans-36" transform="translate(95.410156 0)"/>
      </g>
     </g>
    </g>
    <g id="ytick_8">
     <g id="line2d_34">
      <path d="M 47.72 20.919236 
L 450 20.919236 
" clip-path="url(#pfe0d4d24b0)" style="fill: none; stroke-dasharray: 1.85,0.8; stroke-dashoffset: 0; stroke: #808080; stroke-opacity: 0.7; stroke-width: 0.5"/>
     </g>
     <g id="line2d_35">
      <g>
       <use xlink:href="#mfe972ead81" x="47.72" y="20.919236" style="stroke: #000000; stroke-width: 0.8"/>
      </g>
     </g>
     <g id="text_27">
      <!-- 0.7 -->
      <g transform="translate(24.816875 24.718455) scale(0.1 -0.1)">
       <defs>
        <path id="DejaVuSans-37" d="M 525 4666 
L 3525 4666 
L 3525 4397 
L 1831 0 
L 1172 0 
L 2766 4134 
L 525 4134 
L 525 4666 
z
" transform="scale(0.015625)"/>
       </defs>
       <use xlink:href="#DejaVuSans-30"/>
       <use xlink:href="#DejaVuSans-2e" transform="translate(63.623047 0)"/>
       <use xlink:href="#DejaVuSans-37" transform="translate(95.410156 0)"/>
      </g>
     </g>
    </g>
    <g id="text_28">
     <!-- recall -->
     <g transform="translate(18.737188 125.670938) rotate(-90) scale(0.1 -0.1)">
      <use xlink:href="#DejaVuSans-72"/>
      <use xlink:href="#DejaVuSans-65" transform="translate(38.863281 0)"/>
      <use xlink:href="#DejaVuSans-63" transform="translate(100.386719 0)"/>
      <use xlink:href="#DejaVuSans-61" transform="translate(155.367188 0)"/>
      <use xlink:href="#DejaVuSans-6c" transform="translate(216.646484 0)"/>
      <use xlink:href="#DejaVuSans-6c" transform="translate(244.429688 0)"/>
     </g>
    </g>
   </g>
   <g id="patch_41">
    <path d="M 47.72 213.32 
L 47.72 10.8 
" style="fill: none; stroke: #000000; stroke-width: 0.8; stroke-linejoin: miter; stroke-linecap: square"/>
   </g>
   <g id="patch_42">
    <path d="M 450 213.32 
L 450 10.8 
" style="fill: none; stroke: #000000; stroke-width: 0.8; stroke-linejoin: miter; stroke-linecap: square"/>
   </g>
   <g id="patch_43">
    <path d="M 47.72 213.32 
L 450 213.32 
" style="fill: none; stroke: #000000; stroke-width: 0.8; stroke-linejoin: miter; stroke-linecap: square"/>
   </g>
   <g id="patch_44">
    <path d="M 47.72 10.8 
L 450 10.8 
" style="fill: none; stroke: #000000; stroke-width: 0.8; stroke-linejoin: miter; stroke-linecap: square"/>
   </g>
   <g id="legend_1">
    <g id="patch_45">
     <path d="M 353.434375 48.7125 
L 443 48.7125 
Q 445 48.7125 445 46.7125 
L 445 17.8 
Q 445 15.8 443 15.8 
L 353.434375 15.8 
Q 351.434375 15.8 351.434375 17.8 
L 351.434375 46.7125 
Q 351.434375 48.7125 353.434375 48.7125 
z
" style="fill: #ffffff; opacity: 0.8; stroke: #cccccc; stroke-linejoin: miter"/>
    </g>
    <g id="patch_46">
     <path d="M 355.434375 27.398438 
L 375.434375 27.398438 
L 375.434375 20.398438 
L 355.434375 20.398438 
z
" style="fill: #0000ff"/>
    </g>
    <g id="text_29">
     <!-- recall_100 -->
     <g transform="translate(383.434375 27.398438) scale(0.1 -0.1)">
      <defs>
       <path id="DejaVuSans-5f" d="M 3263 -1063 
L 3263 -1509 
L -63 -1509 
L -63 -1063 
L 3263 -1063 
z
" transform="scale(0.015625)"/>
      </defs>
      <use xlink:href="#DejaVuSans-72"/>
      <use xlink:href="#DejaVuSans-65" transform="translate(38.863281 0)"/>
      <use xlink:href="#DejaVuSans-63" transform="translate(100.386719 0)"/>
      <use xlink:href="#DejaVuSans-61" transform="translate(155.367188 0)"/>
      <use xlink:href="#DejaVuSans-6c" transform="translate(216.646484 0)"/>
      <use xlink:href="#DejaVuSans-6c" transform="translate(244.429688 0)"/>
      <use xlink:href="#DejaVuSans-5f" transform="translate(272.212891 0)"/>
      <use xlink:href="#DejaVuSans-31" transform="translate(322.212891 0)"/>
      <use xlink:href="#DejaVuSans-30" transform="translate(385.835938 0)"/>
      <use xlink:href="#DejaVuSans-30" transform="translate(449.458984 0)"/>
     </g>
    </g>
    <g id="patch_47">
     <path d="M 355.434375 42.354688 
L 375.434375 42.354688 
L 375.434375 35.354688 
L 355.434375 35.354688 
z
" style="fill: #008000"/>
    </g>
    <g id="text_30">
     <!-- recall_large -->
     <g transform="translate(383.434375 42.354688) scale(0.1 -0.1)">
      <use xlink:href="#DejaVuSans-72"/>
      <use xlink:href="#DejaVuSans-65" transform="translate(38.863281 0)"/>
      <use xlink:href="#DejaVuSans-63" transform="translate(100.386719 0)"/>
      <use xlink:href="#DejaVuSans-61" transform="translate(155.367188 0)"/>
      <use xlink:href="#DejaVuSans-6c" transform="translate(216.646484 0)"/>
      <use xlink:href="#DejaVuSans-6c" transform="translate(244.429688 0)"/>
      <use xlink:href="#DejaVuSans-5f" transform="translate(272.212891 0)"/>
      <use xlink:href="#DejaVuSans-6c" transform="translate(322.212891 0)"/>
      <use xlink:href="#DejaVuSans-61" transform="translate(349.996094 0)"/>
      <use xlink:href="#DejaVuSans-72" transform="translate(411.275391 0)"/>
      <use xlink:href="#DejaVuSans-67" transform="translate(450.638672 0)"/>
      <use xlink:href="#DejaVuSans-65" transform="translate(514.115234 0)"/>
     </g>
    </g>
   </g>
  </g>
 </g>
 <defs>
  <clipPath id="pfe0d4d24b0">
   <rect x="47.72" y="10.8" width="402.28" height="202.52"/>
  </clipPath>
 </defs>
</svg>
