<?xml version="1.0" encoding="utf-8" standalone="no"?>
<!DOCTYPE svg PUBLIC "-//W3C//DTD SVG 1.1//EN"
  "http://www.w3.org/Graphics/SVG/1.1/DTD/svg11.dtd">
<svg xmlns:xlink="http://www.w3.org/1999/xlink" width="460.8pt" height="345.6pt" viewBox="0 0 460.8 345.6" xmlns="http://www.w3.org/2000/svg" version="1.1">
 <metadata>
  <rdf:RDF xmlns:dc="http://purl.org/dc/elements/1.1/" xmlns:cc="http://creativecommons.org/ns#" xmlns:rdf="http://www.w3.org/1999/02/22-rdf-syntax-ns#">
   <cc:Work>
    <dc:type rdf:resource="http://purl.org/dc/dcmitype/StillImage"/>
    <dc:date>2026-02-03T17:16:39.403054</dc:date>
    <dc:format>image/svg+xml</dc:format>
    <dc:creator>
     <cc:Agent>
      <dc:title>Matplotlib v3.10.8, https://matplotlib.org/</dc:title>
     </cc:Agent>
    </dc:creator>
   </cc:Work>
  </rdf:RDF>
 </metadata>
 <defs>
  <style type="text/css">*{stroke-linejoin: round; stroke-linecap: butt}</style>
 </defs>
 <g id="figure_1">
  <g id="patch_1">
   <path d="M 0 345.6 
L 460.8 345.6 
L 460.8 0 
L 0 0 
z
" style="fill: #ffffff"/>
  </g>
  <g id="axes_1">
   <g id="patch_2">
    <path d="M 62.57 219.895 
L 450 219.895 
L 450 10.8 
L 62.57 10.8 
z
" style="fill: #ffffff"/>
   </g>
   <g id="patch_3">
    <path d="M 80.180455 115.3475 
L 85.038511 115.3475 
L 85.038511 115.3475 
L 80.180455 115.3475 
z
" clip-path="url(#p029902162f)" style="fill: #0000ff"/>
   </g>
   <g id="patch_4">
    <path d="M 140.90616 115.3475 
L 145.764216 115.3475 
L 145.764216 115.3475 
L 140.90616 115.3475 
z
" clip-path="url(#p029902162f)" style="fill: #0000ff"/>
   </g>
   <g id="patch_5">
    <path d="M 201.631865 115.3475 
L 206.489922 115.3475 
L 206.489922 115.3475 
L 201.631865 115.3475 
z
" clip-path="url(#p029902162f)" style="fill: #0000ff"/>
   </g>
   <g id="patch_6">
    <path d="M 262.357571 115.3475 
L 267.215627 115.3475 
L 267.215627 115.3475 
L 262.357571 115.3475 
z
" clip-path="url(#p029902162f)" style="fill: #0000ff"/>
   </g>
   <g id="patch_7">
    <path d="M 323.083276 115.3475 
L 327.941332 115.3475 
L 327.941332 115.3475 
L 323.083276 115.3475 
z
" clip-path="url(#p029902162f)" style="fill: #0000ff"/>
   </g>
   <g id="patch_8">
    <path d="M 383.808981 115.3475 
L 388.667038 115.3475 
L 388.667038 115.3475 
L 383.808981 115.3475 
z
" clip-path="url(#p029902162f)" style="fill: #0000ff"/>
   </g>
   <g id="patch_9">
    <path d="M 85.038511 115.3475 
L 89.896567 115.3475 
L 89.896567 115.3475 
L 85.038511 115.3475 
z
" clip-path="url(#p029902162f)" style="fill: #008000"/>
   </g>
   <g id="patch_10">
    <path d="M 145.764216 115.3475 
L 150.622273 115.3475 
L 150.622273 115.3475 
L 145.764216 115.3475 
z
" clip-path="url(#p029902162f)" style="fill: #008000"/>
   </g>
   <g id="patch_11">
    <path d="M 206.489922 115.3475 
L 211.347978 115.3475 
L 211.347978 115.3475 
L 206.489922 115.3475 
z
" clip-path="url(#p029902162f)" style="fill: #008000"/>
   </g>
   <g id="patch_12">
    <path d="M 267.215627 115.3475 
L 272.073683 115.3475 
L 272.073683 115.3475 
L 267.215627 115.3475 
z
" clip-path="url(#p029902162f)" style="fill: #008000"/>
   </g>
   <g id="patch_13">
    <path d="M 327.941332 115.3475 
L 332.799389 115.3475 
L 332.799389 115.3475 
L 327.941332 115.3475 
z
" clip-path="url(#p029902162f)" style="fill: #008000"/>
   </g>
   <g id="patch_14">
    <path d="M 388.667038 115.3475 
L 393.525094 115.3475 
L 393.525094 115.3475 
L 388.667038 115.3475 
z
" clip-path="url(#p029902162f)" style="fill: #008000"/>
   </g>
   <g id="patch_15">
    <path d="M 89.896567 115.3475 
L 94.754624 115.3475 
L 94.754624 115.3475 
L 89.896567 115.3475 
z
" clip-path="url(#p029902162f)" style="fill: #ff0000"/>
   </g>
   <g id="patch_16">
    <path d="M 150.622273 115.3475 
L 155.480329 115.3475 
L 155.480329 115.3475 
L 150.622273 115.3475 
z
" clip-path="url(#p029902162f)" style="fill: #ff0000"/>
   </g>
   <g id="patch_17">
    <path d="M 211.347978 115.3475 
L 216.206034 115.3475 
L 216.206034 115.3475 
L 211.347978 115.3475 
z
" clip-path="url(#p029902162f)" style="fill: #ff0000"/>
   </g>
   <g id="patch_18">
    <path d="M 272.073683 115.3475 
L 276.93174 115.3475 
L 276.93174 115.3475 
L 272.073683 115.3475 
z
" clip-path="url(#p029902162f)" style="fill: #ff0000"/>
   </g>
   <g id="patch_19">
    <path d="M 332.799389 115.3475 
L 337.657445 115.3475 
L 337.657445 115.3475 
L 332.799389 115.3475 
z
" clip-path="url(#p029902162f)" style="fill: #ff0000"/>
   </g>
   <g id="patch_20">
    <path d="M 393.525094 115.3475 
L 398.38315 115.3475 
L 398.38315 115.3475 
L 393.525094 115.3475 
z
" clip-path="url(#p029902162f)" style="fill: #ff0000"/>
   </g>
   <g id="patch_21">
    <path d="M 94.754624 115.3475 
L 99.61268 115.3475 
L 99.61268 115.3475 
L 94.754624 115.3475 
z
" clip-path="url(#p029902162f)" style="fill: #800080"/>
   </g>
   <g id="patch_22">
    <path d="M 155.480329 115.3475 
L 160.338386 115.3475 
L 160.338386 115.3475 
L 155.480329 115.3475 
z
" clip-path="url(#p029902162f)" style="fill: #800080"/>
   </g>
   <g id="patch_23">
    <path d="M 216.206034 115.3475 
L 221.064091 115.3475 
L 221.064091 115.3475 
L 216.206034 115.3475 
z
" clip-path="url(#p029902162f)" style="fill: #800080"/>
   </g>
   <g id="patch_24">
    <path d="M 276.93174 115.3475 
L 281.789796 115.3475 
L 281.789796 115.3475 
L 276.93174 115.3475 
z
" clip-path="url(#p029902162f)" style="fill: #800080"/>
   </g>
   <g id="patch_25">
    <path d="M 337.657445 115.3475 
L 342.515502 115.3475 
L 342.515502 115.3475 
L 337.657445 115.3475 
z
" clip-path="url(#p029902162f)" style="fill: #800080"/>
   </g>
   <g id="patch_26">
    <path d="M 398.38315 115.3475 
L 403.241207 115.3475 
L 403.241207 115.3475 
L 398.38315 115.3475 
z
" clip-path="url(#p029902162f)" style="fill: #800080"/>
   </g>
   <g id="patch_27">
    <path d="M 99.61268 115.3475 
L 104.470737 115.3475 
L 104.470737 115.3475 
L 99.61268 115.3475 
z
" clip-path="url(#p029902162f)" style="fill: #a52a2a"/>
   </g>
   <g id="patch_28">
    <path d="M 160.338386 115.3475 
L 165.196442 115.3475 
L 165.196442 115.3475 
L 160.338386 115.3475 
z
" clip-path="url(#p029902162f)" style="fill: #a52a2a"/>
   </g>
   <g id="patch_29">
    <path d="M 221.064091 115.3475 
L 225.922147 115.3475 
L 225.922147 115.3475 
L 221.064091 115.3475 
z
" clip-path="url(#p029902162f)" style="fill: #a52a2a"/>
   </g>
   <g id="patch_30">
    <path d="M 281.789796 115.3475 
L 286.647853 115.3475 
L 286.647853 115.3475 
L 281.789796 115.3475 
z
" clip-path="url(#p029902162f)" style="fill: #a52a2a"/>
   </g>
   <g id="patch_31">
    <path d="M 342.515502 115.3475 
L 347.373558 115.3475 
L 347.373558 115.3475 
L 342.515502 115.3475 
z
" clip-path="url(#p029902162f)" style="fill: #a52a2a"/>
   </g>
   <g id="patch_32">
    <path d="M 403.241207 115.3475 
L 408.099263 115.3475 
L 408.099263 115.3475 
L 403.241207 115.3475 
z
" clip-path="url(#p029902162f)" style="fill: #a52a2a"/>
   </g>
   <g id="patch_33">
    <path d="M 104.470737 115.3475 
L 109.328793 115.3475 
L 109.328793 115.3475 
L 104.470737 115.3475 
z
" clip-path="url(#p029902162f)" style="fill: #ffc0cb"/>
   </g>
   <g id="patch_34">
    <path d="M 165.196442 115.3475 
L 170.054498 115.3475 
L 170.054498 115.3475 
L 165.196442 115.3475 
z
" clip-path="url(#p029902162f)" style="fill: #ffc0cb"/>
   </g>
   <g id="patch_35">
    <path d="M 225.922147 115.3475 
L 230.780204 115.3475 
L 230.780204 115.3475 
L 225.922147 115.3475 
z
" clip-path="url(#p029902162f)" style="fill: #ffc0cb"/>
   </g>
   <g id="patch_36">
    <path d="M 286.647853 115.3475 
L 291.505909 115.3475 
L 291.505909 115.3475 
L 286.647853 115.3475 
z
" clip-path="url(#p029902162f)" style="fill: #ffc0cb"/>
   </g>
   <g id="patch_37">
    <path d="M 347.373558 115.3475 
L 352.231614 115.3475 
L 352.231614 115.3475 
L 347.373558 115.3475 
z
" clip-path="url(#p029902162f)" style="fill: #ffc0cb"/>
   </g>
   <g id="patch_38">
    <path d="M 408.099263 115.3475 
L 412.95732 115.3475 
L 412.95732 115.3475 
L 408.099263 115.3475 
z
" clip-path="url(#p029902162f)" style="fill: #ffc0cb"/>
   </g>
   <g id="patch_39">
    <path d="M 109.328793 115.3475 
L 114.18685 115.3475 
L 114.18685 115.3475 
L 109.328793 115.3475 
z
" clip-path="url(#p029902162f)" style="fill: #808080"/>
   </g>
   <g id="patch_40">
    <path d="M 170.054498 115.3475 
L 174.912555 115.3475 
L 174.912555 115.3475 
L 170.054498 115.3475 
z
" clip-path="url(#p029902162f)" style="fill: #808080"/>
   </g>
   <g id="patch_41">
    <path d="M 230.780204 115.3475 
L 235.63826 115.3475 
L 235.63826 115.3475 
L 230.780204 115.3475 
z
" clip-path="url(#p029902162f)" style="fill: #808080"/>
   </g>
   <g id="patch_42">
    <path d="M 291.505909 115.3475 
L 296.363966 115.3475 
L 296.363966 115.3475 
L 291.505909 115.3475 
z
" clip-path="url(#p029902162f)" style="fill: #808080"/>
   </g>
   <g id="patch_43">
    <path d="M 352.231614 115.3475 
L 357.089671 115.3475 
L 357.089671 115.3475 
L 352.231614 115.3475 
z
" clip-path="url(#p029902162f)" style="fill: #808080"/>
   </g>
   <g id="patch_44">
    <path d="M 412.95732 115.3475 
L 417.815376 115.3475 
L 417.815376 115.3475 
L 412.95732 115.3475 
z
" clip-path="url(#p029902162f)" style="fill: #808080"/>
   </g>
   <g id="patch_45">
    <path d="M 114.18685 115.3475 
L 119.044906 115.3475 
L 119.044906 115.3475 
L 114.18685 115.3475 
z
" clip-path="url(#p029902162f)" style="fill: #808000"/>
   </g>
   <g id="patch_46">
    <path d="M 174.912555 115.3475 
L 179.770611 115.3475 
L 179.770611 115.3475 
L 174.912555 115.3475 
z
" clip-path="url(#p029902162f)" style="fill: #808000"/>
   </g>
   <g id="patch_47">
    <path d="M 235.63826 115.3475 
L 240.496317 115.3475 
L 240.496317 115.3475 
L 235.63826 115.3475 
z
" clip-path="url(#p029902162f)" style="fill: #808000"/>
   </g>
   <g id="patch_48">
    <path d="M 296.363966 115.3475 
L 301.222022 115.3475 
L 301.222022 115.3475 
L 296.363966 115.3475 
z
" clip-path="url(#p029902162f)" style="fill: #808000"/>
   </g>
   <g id="patch_49">
    <path d="M 357.089671 115.3475 
L 361.947727 115.3475 
L 361.947727 115.3475 
L 357.089671 115.3475 
z
" clip-path="url(#p029902162f)" style="fill: #808000"/>
   </g>
   <g id="patch_50">
    <path d="M 417.815376 115.3475 
L 422.673433 115.3475 
L 422.673433 115.3475 
L 417.815376 115.3475 
z
" clip-path="url(#p029902162f)" style="fill: #808000"/>
   </g>
   <g id="patch_51">
    <path d="M 119.044906 115.3475 
L 123.902962 115.3475 
L 123.902962 115.3475 
L 119.044906 115.3475 
z
" clip-path="url(#p029902162f)" style="fill: #00ffff"/>
   </g>
   <g id="patch_52">
    <path d="M 179.770611 115.3475 
L 184.628668 115.3475 
L 184.628668 115.3475 
L 179.770611 115.3475 
z
" clip-path="url(#p029902162f)" style="fill: #00ffff"/>
   </g>
   <g id="patch_53">
    <path d="M 240.496317 115.3475 
L 245.354373 115.3475 
L 245.354373 115.3475 
L 240.496317 115.3475 
z
" clip-path="url(#p029902162f)" style="fill: #00ffff"/>
   </g>
   <g id="patch_54">
    <path d="M 301.222022 115.3475 
L 306.080078 115.3475 
L 306.080078 115.3475 
L 301.222022 115.3475 
z
" clip-path="url(#p029902162f)" style="fill: #00ffff"/>
   </g>
   <g id="patch_55">
    <path d="M 361.947727 115.3475 
L 366.805784 115.3475 
L 366.805784 115.3475 
L 361.947727 115.3475 
z
" clip-path="url(#p029902162f)" style="fill: #00ffff"/>
   </g>
   <g id="patch_56">
    <path d="M 422.673433 115.3475 
L 427.531489 115.3475 
L 427.531489 115.3475 
L 422.673433 115.3475 
z
" clip-path="url(#p029902162f)" style="fill: #00ffff"/>
   </g>
   <g id="patch_57">
    <path d="M 123.902962 115.3475 
L 128.761019 115.3475 
L 128.761019 115.3475 
L 123.902962 115.3475 
z
" clip-path="url(#p029902162f)" style="fill: #800000"/>
   </g>
   <g id="patch_58">
    <path d="M 184.628668 115.3475 
L 189.486724 115.3475 
L 189.486724 115.3475 
L 184.628668 115.3475 
z
" clip-path="url(#p029902162f)" style="fill: #800000"/>
   </g>
   <g id="patch_59">
    <path d="M 245.354373 115.3475 
L 250.212429 115.3475 
L 250.212429 115.3475 
L 245.354373 115.3475 
z
" clip-path="url(#p029902162f)" style="fill: #800000"/>
   </g>
   <g id="patch_60">
    <path d="M 306.080078 115.3475 
L 310.938135 115.3475 
L 310.938135 115.3475 
L 306.080078 115.3475 
z
" clip-path="url(#p029902162f)" style="fill: #800000"/>
   </g>
   <g id="patch_61">
    <path d="M 366.805784 115.3475 
L 371.66384 115.3475 
L 371.66384 115.3475 
L 366.805784 115.3475 
z
" clip-path="url(#p029902162f)" style="fill: #800000"/>
   </g>
   <g id="patch_62">
    <path d="M 427.531489 115.3475 
L 432.389545 115.3475 
L 432.389545 115.3475 
L 427.531489 115.3475 
z
" clip-path="url(#p029902162f)" style="fill: #800000"/>
   </g>
   <g id="matplotlib.axis_1">
    <g id="xtick_1">
     <g id="line2d_1">
      <defs>
       <path id="m0d20587f5c" d="M 0 0 
L 0 3.5 
" style="stroke: #000000; stroke-width: 0.8"/>
      </defs>
      <g>
       <use xlink:href="#m0d20587f5c" x="104.470737" y="219.895" style="stroke: #000000; stroke-width: 0.8"/>
      </g>
     </g>
     <g id="text_1">
      <!-- pattern1_ObjectCz -->
      <g transform="translate(102.112924 319.802813) rotate(-90) scale(0.1 -0.1)">
       <defs>
        <path id="DejaVuSans-70" d="M 1159 525 
L 1159 -1331 
L 581 -1331 
L 581 3500 
L 1159 3500 
L 1159 2969 
Q 1341 3281 1617 3432 
Q 1894 3584 2278 3584 
Q 2916 3584 3314 3078 
Q 3713 2572 3713 1747 
Q 3713 922 3314 415 
Q 2916 -91 2278 -91 
Q 1894 -91 1617 61 
Q 1341 213 1159 525 
z
M 3116 1747 
Q 3116 2381 2855 2742 
Q 2594 3103 2138 3103 
Q 1681 3103 1420 2742 
Q 1159 2381 1159 1747 
Q 1159 1113 1420 752 
Q 1681 391 2138 391 
Q 2594 391 2855 752 
Q 3116 1113 3116 1747 
z
" transform="scale(0.015625)"/>
        <path id="DejaVuSans-61" d="M 2194 1759 
Q 1497 1759 1228 1600 
Q 959 1441 959 1056 
Q 959 750 1161 570 
Q 1363 391 1709 391 
Q 2188 391 2477 730 
Q 2766 1069 2766 1631 
L 2766 1759 
L 2194 1759 
z
M 3341 1997 
L 3341 0 
L 2766 0 
L 2766 531 
Q 2569 213 2275 61 
Q 1981 -91 1556 -91 
Q 1019 -91 701 211 
Q 384 513 384 1019 
Q 384 1609 779 1909 
Q 1175 2209 1959 2209 
L 2766 2209 
L 2766 2266 
Q 2766 2663 2505 2880 
Q 2244 3097 1772 3097 
Q 1472 3097 1187 3025 
Q 903 2953 641 2809 
L 641 3341 
Q 956 3463 1253 3523 
Q 1550 3584 1831 3584 
Q 2591 3584 2966 3190 
Q 3341 2797 3341 1997 
z
" transform="scale(0.015625)"/>
        <path id="DejaVuSans-74" d="M 1172 4494 
L 1172 3500 
L 2356 3500 
L 2356 3053 
L 1172 3053 
L 1172 1153 
Q 1172 725 1289 603 
Q 1406 481 1766 481 
L 2356 481 
L 2356 0 
L 1766 0 
Q 1100 0 847 248 
Q 594 497 594 1153 
L 594 3053 
L 172 3053 
L 172 3500 
L 594 3500 
L 594 4494 
L 1172 4494 
z
" transform="scale(0.015625)"/>
        <path id="DejaVuSans-65" d="M 3597 1894 
L 3597 1613 
L 953 1613 
Q 991 1019 1311 708 
Q 1631 397 2203 397 
Q 2534 397 2845 478 
Q 3156 559 3463 722 
L 3463 178 
Q 3153 47 2828 -22 
Q 2503 -91 2169 -91 
Q 1331 -91 842 396 
Q 353 884 353 1716 
Q 353 2575 817 3079 
Q 1281 3584 2069 3584 
Q 2775 3584 3186 3129 
Q 3597 2675 3597 1894 
z
M 3022 2063 
Q 3016 2534 2758 2815 
Q 2500 3097 2075 3097 
Q 1594 3097 1305 2825 
Q 1016 2553 972 2059 
L 3022 2063 
z
" transform="scale(0.015625)"/>
        <path id="DejaVuSans-72" d="M 2631 2963 
Q 2534 3019 2420 3045 
Q 2306 3072 2169 3072 
Q 1681 3072 1420 2755 
Q 1159 2438 1159 1844 
L 1159 0 
L 581 0 
L 581 3500 
L 1159 3500 
L 1159 2956 
Q 1341 3275 1631 3429 
Q 1922 3584 2338 3584 
Q 2397 3584 2469 3576 
Q 2541 3569 2628 3553 
L 2631 2963 
z
" transform="scale(0.015625)"/>
        <path id="DejaVuSans-6e" d="M 3513 2113 
L 3513 0 
L 2938 0 
L 2938 2094 
Q 2938 2591 2744 2837 
Q 2550 3084 2163 3084 
Q 1697 3084 1428 2787 
Q 1159 2491 1159 1978 
L 1159 0 
L 581 0 
L 581 3500 
L 1159 3500 
L 1159 2956 
Q 1366 3272 1645 3428 
Q 1925 3584 2291 3584 
Q 2894 3584 3203 3211 
Q 3513 2838 3513 2113 
z
" transform="scale(0.015625)"/>
        <path id="DejaVuSans-31" d="M 794 531 
L 1825 531 
L 1825 4091 
L 703 3866 
L 703 4441 
L 1819 4666 
L 2450 4666 
L 2450 531 
L 3481 531 
L 3481 0 
L 794 0 
L 794 531 
z
" transform="scale(0.015625)"/>
        <path id="DejaVuSans-5f" d="M 3263 -1063 
L 3263 -1509 
L -63 -1509 
L -63 -1063 
L 3263 -1063 
z
" transform="scale(0.015625)"/>
        <path id="DejaVuSans-4f" d="M 2522 4238 
Q 1834 4238 1429 3725 
Q 1025 3213 1025 2328 
Q 1025 1447 1429 934 
Q 1834 422 2522 422 
Q 3209 422 3611 934 
Q 4013 1447 4013 2328 
Q 4013 3213 3611 3725 
Q 3209 4238 2522 4238 
z
M 2522 4750 
Q 3503 4750 4090 4092 
Q 4678 3434 4678 2328 
Q 4678 1225 4090 567 
Q 3503 -91 2522 -91 
Q 1538 -91 948 565 
Q 359 1222 359 2328 
Q 359 3434 948 4092 
Q 1538 4750 2522 4750 
z
" transform="scale(0.015625)"/>
        <path id="DejaVuSans-62" d="M 3116 1747 
Q 3116 2381 2855 2742 
Q 2594 3103 2138 3103 
Q 1681 3103 1420 2742 
Q 1159 2381 1159 1747 
Q 1159 1113 1420 752 
Q 1681 391 2138 391 
Q 2594 391 2855 752 
Q 3116 1113 3116 1747 
z
M 1159 2969 
Q 1341 3281 1617 3432 
Q 1894 3584 2278 3584 
Q 2916 3584 3314 3078 
Q 3713 2572 3713 1747 
Q 3713 922 3314 415 
Q 2916 -91 2278 -91 
Q 1894 -91 1617 61 
Q 1341 213 1159 525 
L 1159 0 
L 581 0 
L 581 4863 
L 1159 4863 
L 1159 2969 
z
" transform="scale(0.015625)"/>
        <path id="DejaVuSans-6a" d="M 603 3500 
L 1178 3500 
L 1178 -63 
Q 1178 -731 923 -1031 
Q 669 -1331 103 -1331 
L -116 -1331 
L -116 -844 
L 38 -844 
Q 366 -844 484 -692 
Q 603 -541 603 -63 
L 603 3500 
z
M 603 4863 
L 1178 4863 
L 1178 4134 
L 603 4134 
L 603 4863 
z
" transform="scale(0.015625)"/>
        <path id="DejaVuSans-63" d="M 3122 3366 
L 3122 2828 
Q 2878 2963 2633 3030 
Q 2388 3097 2138 3097 
Q 1578 3097 1268 2742 
Q 959 2388 959 1747 
Q 959 1106 1268 751 
Q 1578 397 2138 397 
Q 2388 397 2633 464 
Q 2878 531 3122 666 
L 3122 134 
Q 2881 22 2623 -34 
Q 2366 -91 2075 -91 
Q 1284 -91 818 406 
Q 353 903 353 1747 
Q 353 2603 823 3093 
Q 1294 3584 2113 3584 
Q 2378 3584 2631 3529 
Q 2884 3475 3122 3366 
z
" transform="scale(0.015625)"/>
        <path id="DejaVuSans-43" d="M 4122 4306 
L 4122 3641 
Q 3803 3938 3442 4084 
Q 3081 4231 2675 4231 
Q 1875 4231 1450 3742 
Q 1025 3253 1025 2328 
Q 1025 1406 1450 917 
Q 1875 428 2675 428 
Q 3081 428 3442 575 
Q 3803 722 4122 1019 
L 4122 359 
Q 3791 134 3420 21 
Q 3050 -91 2638 -91 
Q 1578 -91 968 557 
Q 359 1206 359 2328 
Q 359 3453 968 4101 
Q 1578 4750 2638 4750 
Q 3056 4750 3426 4639 
Q 3797 4528 4122 4306 
z
" transform="scale(0.015625)"/>
        <path id="DejaVuSans-7a" d="M 353 3500 
L 3084 3500 
L 3084 2975 
L 922 459 
L 3084 459 
L 3084 0 
L 275 0 
L 275 525 
L 2438 3041 
L 353 3041 
L 353 3500 
z
" transform="scale(0.015625)"/>
       </defs>
       <use xlink:href="#DejaVuSans-70"/>
       <use xlink:href="#DejaVuSans-61" transform="translate(63.476562 0)"/>
       <use xlink:href="#DejaVuSans-74" transform="translate(124.755859 0)"/>
       <use xlink:href="#DejaVuSans-74" transform="translate(163.964844 0)"/>
       <use xlink:href="#DejaVuSans-65" transform="translate(203.173828 0)"/>
       <use xlink:href="#DejaVuSans-72" transform="translate(264.697266 0)"/>
       <use xlink:href="#DejaVuSans-6e" transform="translate(304.060547 0)"/>
       <use xlink:href="#DejaVuSans-31" transform="translate(367.439453 0)"/>
       <use xlink:href="#DejaVuSans-5f" transform="translate(431.0625 0)"/>
       <use xlink:href="#DejaVuSans-4f" transform="translate(481.0625 0)"/>
       <use xlink:href="#DejaVuSans-62" transform="translate(559.773438 0)"/>
       <use xlink:href="#DejaVuSans-6a" transform="translate(623.25 0)"/>
       <use xlink:href="#DejaVuSans-65" transform="translate(651.033203 0)"/>
       <use xlink:href="#DejaVuSans-63" transform="translate(712.556641 0)"/>
       <use xlink:href="#DejaVuSans-74" transform="translate(767.537109 0)"/>
       <use xlink:href="#DejaVuSans-43" transform="translate(806.746094 0)"/>
       <use xlink:href="#DejaVuSans-7a" transform="translate(876.570312 0)"/>
      </g>
     </g>
    </g>
    <g id="xtick_2">
     <g id="line2d_2">
      <g>
       <use xlink:href="#m0d20587f5c" x="165.196442" y="219.895" style="stroke: #000000; stroke-width: 0.8"/>
      </g>
     </g>
     <g id="text_2">
      <!-- pattern1_ObjectEn -->
      <g transform="translate(162.83863 320.227813) rotate(-90) scale(0.1 -0.1)">
       <defs>
        <path id="DejaVuSans-45" d="M 628 4666 
L 3578 4666 
L 3578 4134 
L 1259 4134 
L 1259 2753 
L 3481 2753 
L 3481 2222 
L 1259 2222 
L 1259 531 
L 3634 531 
L 3634 0 
L 628 0 
L 628 4666 
z
" transform="scale(0.015625)"/>
       </defs>
       <use xlink:href="#DejaVuSans-70"/>
       <use xlink:href="#DejaVuSans-61" transform="translate(63.476562 0)"/>
       <use xlink:href="#DejaVuSans-74" transform="translate(124.755859 0)"/>
       <use xlink:href="#DejaVuSans-74" transform="translate(163.964844 0)"/>
       <use xlink:href="#DejaVuSans-65" transform="translate(203.173828 0)"/>
       <use xlink:href="#DejaVuSans-72" transform="translate(264.697266 0)"/>
       <use xlink:href="#DejaVuSans-6e" transform="translate(304.060547 0)"/>
       <use xlink:href="#DejaVuSans-31" transform="translate(367.439453 0)"/>
       <use xlink:href="#DejaVuSans-5f" transform="translate(431.0625 0)"/>
       <use xlink:href="#DejaVuSans-4f" transform="translate(481.0625 0)"/>
       <use xlink:href="#DejaVuSans-62" transform="translate(559.773438 0)"/>
       <use xlink:href="#DejaVuSans-6a" transform="translate(623.25 0)"/>
       <use xlink:href="#DejaVuSans-65" transform="translate(651.033203 0)"/>
       <use xlink:href="#DejaVuSans-63" transform="translate(712.556641 0)"/>
       <use xlink:href="#DejaVuSans-74" transform="translate(767.537109 0)"/>
       <use xlink:href="#DejaVuSans-45" transform="translate(806.746094 0)"/>
       <use xlink:href="#DejaVuSans-6e" transform="translate(869.929688 0)"/>
      </g>
     </g>
    </g>
    <g id="xtick_3">
     <g id="line2d_3">
      <g>
       <use xlink:href="#m0d20587f5c" x="225.922147" y="219.895" style="stroke: #000000; stroke-width: 0.8"/>
      </g>
     </g>
     <g id="text_3">
      <!-- pattern2_ObjectCz -->
      <g transform="translate(223.564335 319.802813) rotate(-90) scale(0.1 -0.1)">
       <defs>
        <path id="DejaVuSans-32" d="M 1228 531 
L 3431 531 
L 3431 0 
L 469 0 
L 469 531 
Q 828 903 1448 1529 
Q 2069 2156 2228 2338 
Q 2531 2678 2651 2914 
Q 2772 3150 2772 3378 
Q 2772 3750 2511 3984 
Q 2250 4219 1831 4219 
Q 1534 4219 1204 4116 
Q 875 4013 500 3803 
L 500 4441 
Q 881 4594 1212 4672 
Q 1544 4750 1819 4750 
Q 2544 4750 2975 4387 
Q 3406 4025 3406 3419 
Q 3406 3131 3298 2873 
Q 3191 2616 2906 2266 
Q 2828 2175 2409 1742 
Q 1991 1309 1228 531 
z
" transform="scale(0.015625)"/>
       </defs>
       <use xlink:href="#DejaVuSans-70"/>
       <use xlink:href="#DejaVuSans-61" transform="translate(63.476562 0)"/>
       <use xlink:href="#DejaVuSans-74" transform="translate(124.755859 0)"/>
       <use xlink:href="#DejaVuSans-74" transform="translate(163.964844 0)"/>
       <use xlink:href="#DejaVuSans-65" transform="translate(203.173828 0)"/>
       <use xlink:href="#DejaVuSans-72" transform="translate(264.697266 0)"/>
       <use xlink:href="#DejaVuSans-6e" transform="translate(304.060547 0)"/>
       <use xlink:href="#DejaVuSans-32" transform="translate(367.439453 0)"/>
       <use xlink:href="#DejaVuSans-5f" transform="translate(431.0625 0)"/>
       <use xlink:href="#DejaVuSans-4f" transform="translate(481.0625 0)"/>
       <use xlink:href="#DejaVuSans-62" transform="translate(559.773438 0)"/>
       <use xlink:href="#DejaVuSans-6a" transform="translate(623.25 0)"/>
       <use xlink:href="#DejaVuSans-65" transform="translate(651.033203 0)"/>
       <use xlink:href="#DejaVuSans-63" transform="translate(712.556641 0)"/>
       <use xlink:href="#DejaVuSans-74" transform="translate(767.537109 0)"/>
       <use xlink:href="#DejaVuSans-43" transform="translate(806.746094 0)"/>
       <use xlink:href="#DejaVuSans-7a" transform="translate(876.570312 0)"/>
      </g>
     </g>
    </g>
    <g id="xtick_4">
     <g id="line2d_4">
      <g>
       <use xlink:href="#m0d20587f5c" x="286.647853" y="219.895" style="stroke: #000000; stroke-width: 0.8"/>
      </g>
     </g>
     <g id="text_4">
      <!-- pattern2_ObjectEn -->
      <g transform="translate(284.29004 320.227813) rotate(-90) scale(0.1 -0.1)">
       <use xlink:href="#DejaVuSans-70"/>
       <use xlink:href="#DejaVuSans-61" transform="translate(63.476562 0)"/>
       <use xlink:href="#DejaVuSans-74" transform="translate(124.755859 0)"/>
       <use xlink:href="#DejaVuSans-74" transform="translate(163.964844 0)"/>
       <use xlink:href="#DejaVuSans-65" transform="translate(203.173828 0)"/>
       <use xlink:href="#DejaVuSans-72" transform="translate(264.697266 0)"/>
       <use xlink:href="#DejaVuSans-6e" transform="translate(304.060547 0)"/>
       <use xlink:href="#DejaVuSans-32" transform="translate(367.439453 0)"/>
       <use xlink:href="#DejaVuSans-5f" transform="translate(431.0625 0)"/>
       <use xlink:href="#DejaVuSans-4f" transform="translate(481.0625 0)"/>
       <use xlink:href="#DejaVuSans-62" transform="translate(559.773438 0)"/>
       <use xlink:href="#DejaVuSans-6a" transform="translate(623.25 0)"/>
       <use xlink:href="#DejaVuSans-65" transform="translate(651.033203 0)"/>
       <use xlink:href="#DejaVuSans-63" transform="translate(712.556641 0)"/>
       <use xlink:href="#DejaVuSans-74" transform="translate(767.537109 0)"/>
       <use xlink:href="#DejaVuSans-45" transform="translate(806.746094 0)"/>
       <use xlink:href="#DejaVuSans-6e" transform="translate(869.929688 0)"/>
      </g>
     </g>
    </g>
    <g id="xtick_5">
     <g id="line2d_5">
      <g>
       <use xlink:href="#m0d20587f5c" x="347.373558" y="219.895" style="stroke: #000000; stroke-width: 0.8"/>
      </g>
     </g>
     <g id="text_5">
      <!-- pattern3_ObjectCz -->
      <g transform="translate(345.015745 319.802813) rotate(-90) scale(0.1 -0.1)">
       <defs>
        <path id="DejaVuSans-33" d="M 2597 2516 
Q 3050 2419 3304 2112 
Q 3559 1806 3559 1356 
Q 3559 666 3084 287 
Q 2609 -91 1734 -91 
Q 1441 -91 1130 -33 
Q 819 25 488 141 
L 488 750 
Q 750 597 1062 519 
Q 1375 441 1716 441 
Q 2309 441 2620 675 
Q 2931 909 2931 1356 
Q 2931 1769 2642 2001 
Q 2353 2234 1838 2234 
L 1294 2234 
L 1294 2753 
L 1863 2753 
Q 2328 2753 2575 2939 
Q 2822 3125 2822 3475 
Q 2822 3834 2567 4026 
Q 2313 4219 1838 4219 
Q 1578 4219 1281 4162 
Q 984 4106 628 3988 
L 628 4550 
Q 988 4650 1302 4700 
Q 1616 4750 1894 4750 
Q 2613 4750 3031 4423 
Q 3450 4097 3450 3541 
Q 3450 3153 3228 2886 
Q 3006 2619 2597 2516 
z
" transform="scale(0.015625)"/>
       </defs>
       <use xlink:href="#DejaVuSans-70"/>
       <use xlink:href="#DejaVuSans-61" transform="translate(63.476562 0)"/>
       <use xlink:href="#DejaVuSans-74" transform="translate(124.755859 0)"/>
       <use xlink:href="#DejaVuSans-74" transform="translate(163.964844 0)"/>
       <use xlink:href="#DejaVuSans-65" transform="translate(203.173828 0)"/>
       <use xlink:href="#DejaVuSans-72" transform="translate(264.697266 0)"/>
       <use xlink:href="#DejaVuSans-6e" transform="translate(304.060547 0)"/>
       <use xlink:href="#DejaVuSans-33" transform="translate(367.439453 0)"/>
       <use xlink:href="#DejaVuSans-5f" transform="translate(431.0625 0)"/>
       <use xlink:href="#DejaVuSans-4f" transform="translate(481.0625 0)"/>
       <use xlink:href="#DejaVuSans-62" transform="translate(559.773438 0)"/>
       <use xlink:href="#DejaVuSans-6a" transform="translate(623.25 0)"/>
       <use xlink:href="#DejaVuSans-65" transform="translate(651.033203 0)"/>
       <use xlink:href="#DejaVuSans-63" transform="translate(712.556641 0)"/>
       <use xlink:href="#DejaVuSans-74" transform="translate(767.537109 0)"/>
       <use xlink:href="#DejaVuSans-43" transform="translate(806.746094 0)"/>
       <use xlink:href="#DejaVuSans-7a" transform="translate(876.570312 0)"/>
      </g>
     </g>
    </g>
    <g id="xtick_6">
     <g id="line2d_6">
      <g>
       <use xlink:href="#m0d20587f5c" x="408.099263" y="219.895" style="stroke: #000000; stroke-width: 0.8"/>
      </g>
     </g>
     <g id="text_6">
      <!-- pattern3_ObjectEn -->
      <g transform="translate(405.741451 320.227813) rotate(-90) scale(0.1 -0.1)">
       <use xlink:href="#DejaVuSans-70"/>
       <use xlink:href="#DejaVuSans-61" transform="translate(63.476562 0)"/>
       <use xlink:href="#DejaVuSans-74" transform="translate(124.755859 0)"/>
       <use xlink:href="#DejaVuSans-74" transform="translate(163.964844 0)"/>
       <use xlink:href="#DejaVuSans-65" transform="translate(203.173828 0)"/>
       <use xlink:href="#DejaVuSans-72" transform="translate(264.697266 0)"/>
       <use xlink:href="#DejaVuSans-6e" transform="translate(304.060547 0)"/>
       <use xlink:href="#DejaVuSans-33" transform="translate(367.439453 0)"/>
       <use xlink:href="#DejaVuSans-5f" transform="translate(431.0625 0)"/>
       <use xlink:href="#DejaVuSans-4f" transform="translate(481.0625 0)"/>
       <use xlink:href="#DejaVuSans-62" transform="translate(559.773438 0)"/>
       <use xlink:href="#DejaVuSans-6a" transform="translate(623.25 0)"/>
       <use xlink:href="#DejaVuSans-65" transform="translate(651.033203 0)"/>
       <use xlink:href="#DejaVuSans-63" transform="translate(712.556641 0)"/>
       <use xlink:href="#DejaVuSans-74" transform="translate(767.537109 0)"/>
       <use xlink:href="#DejaVuSans-45" transform="translate(806.746094 0)"/>
       <use xlink:href="#DejaVuSans-6e" transform="translate(869.929688 0)"/>
      </g>
     </g>
    </g>
    <g id="text_7">
     <!-- Vstupní textové zadání -->
     <g transform="translate(198.7725 332.22625) scale(0.1 -0.1)">
      <defs>
       <path id="DejaVuSans-56" d="M 1831 0 
L 50 4666 
L 709 4666 
L 2188 738 
L 3669 4666 
L 4325 4666 
L 2547 0 
L 1831 0 
z
" transform="scale(0.015625)"/>
       <path id="DejaVuSans-73" d="M 2834 3397 
L 2834 2853 
Q 2591 2978 2328 3040 
Q 2066 3103 1784 3103 
Q 1356 3103 1142 2972 
Q 928 2841 928 2578 
Q 928 2378 1081 2264 
Q 1234 2150 1697 2047 
L 1894 2003 
Q 2506 1872 2764 1633 
Q 3022 1394 3022 966 
Q 3022 478 2636 193 
Q 2250 -91 1575 -91 
Q 1294 -91 989 -36 
Q 684 19 347 128 
L 347 722 
Q 666 556 975 473 
Q 1284 391 1588 391 
Q 1994 391 2212 530 
Q 2431 669 2431 922 
Q 2431 1156 2273 1281 
Q 2116 1406 1581 1522 
L 1381 1569 
Q 847 1681 609 1914 
Q 372 2147 372 2553 
Q 372 3047 722 3315 
Q 1072 3584 1716 3584 
Q 2034 3584 2315 3537 
Q 2597 3491 2834 3397 
z
" transform="scale(0.015625)"/>
       <path id="DejaVuSans-75" d="M 544 1381 
L 544 3500 
L 1119 3500 
L 1119 1403 
Q 1119 906 1312 657 
Q 1506 409 1894 409 
Q 2359 409 2629 706 
Q 2900 1003 2900 1516 
L 2900 3500 
L 3475 3500 
L 3475 0 
L 2900 0 
L 2900 538 
Q 2691 219 2414 64 
Q 2138 -91 1772 -91 
Q 1169 -91 856 284 
Q 544 659 544 1381 
z
M 1991 3584 
L 1991 3584 
z
" transform="scale(0.015625)"/>
       <path id="DejaVuSans-ed" d="M 1322 5119 
L 1944 5119 
L 926 3944 
L 447 3944 
L 1322 5119 
z
M 603 3500 
L 1178 3500 
L 1178 0 
L 603 0 
L 603 3500 
z
M 891 3584 
L 891 3584 
z
" transform="scale(0.015625)"/>
       <path id="DejaVuSans-20" transform="scale(0.015625)"/>
       <path id="DejaVuSans-78" d="M 3513 3500 
L 2247 1797 
L 3578 0 
L 2900 0 
L 1881 1375 
L 863 0 
L 184 0 
L 1544 1831 
L 300 3500 
L 978 3500 
L 1906 2253 
L 2834 3500 
L 3513 3500 
z
" transform="scale(0.015625)"/>
       <path id="DejaVuSans-6f" d="M 1959 3097 
Q 1497 3097 1228 2736 
Q 959 2375 959 1747 
Q 959 1119 1226 758 
Q 1494 397 1959 397 
Q 2419 397 2687 759 
Q 2956 1122 2956 1747 
Q 2956 2369 2687 2733 
Q 2419 3097 1959 3097 
z
M 1959 3584 
Q 2709 3584 3137 3096 
Q 3566 2609 3566 1747 
Q 3566 888 3137 398 
Q 2709 -91 1959 -91 
Q 1206 -91 779 398 
Q 353 888 353 1747 
Q 353 2609 779 3096 
Q 1206 3584 1959 3584 
z
" transform="scale(0.015625)"/>
       <path id="DejaVuSans-76" d="M 191 3500 
L 800 3500 
L 1894 563 
L 2988 3500 
L 3597 3500 
L 2284 0 
L 1503 0 
L 191 3500 
z
" transform="scale(0.015625)"/>
       <path id="DejaVuSans-e9" d="M 3597 1894 
L 3597 1613 
L 953 1613 
Q 991 1019 1311 708 
Q 1631 397 2203 397 
Q 2534 397 2845 478 
Q 3156 559 3463 722 
L 3463 178 
Q 3153 47 2828 -22 
Q 2503 -91 2169 -91 
Q 1331 -91 842 396 
Q 353 884 353 1716 
Q 353 2575 817 3079 
Q 1281 3584 2069 3584 
Q 2775 3584 3186 3129 
Q 3597 2675 3597 1894 
z
M 3022 2063 
Q 3016 2534 2758 2815 
Q 2500 3097 2075 3097 
Q 1594 3097 1305 2825 
Q 1016 2553 972 2059 
L 3022 2063 
z
M 2466 5119 
L 3088 5119 
L 2070 3944 
L 1591 3944 
L 2466 5119 
z
" transform="scale(0.015625)"/>
       <path id="DejaVuSans-64" d="M 2906 2969 
L 2906 4863 
L 3481 4863 
L 3481 0 
L 2906 0 
L 2906 525 
Q 2725 213 2448 61 
Q 2172 -91 1784 -91 
Q 1150 -91 751 415 
Q 353 922 353 1747 
Q 353 2572 751 3078 
Q 1150 3584 1784 3584 
Q 2172 3584 2448 3432 
Q 2725 3281 2906 2969 
z
M 947 1747 
Q 947 1113 1208 752 
Q 1469 391 1925 391 
Q 2381 391 2643 752 
Q 2906 1113 2906 1747 
Q 2906 2381 2643 2742 
Q 2381 3103 1925 3103 
Q 1469 3103 1208 2742 
Q 947 2381 947 1747 
z
" transform="scale(0.015625)"/>
       <path id="DejaVuSans-e1" d="M 2194 1759 
Q 1497 1759 1228 1600 
Q 959 1441 959 1056 
Q 959 750 1161 570 
Q 1363 391 1709 391 
Q 2188 391 2477 730 
Q 2766 1069 2766 1631 
L 2766 1759 
L 2194 1759 
z
M 3341 1997 
L 3341 0 
L 2766 0 
L 2766 531 
Q 2569 213 2275 61 
Q 1981 -91 1556 -91 
Q 1019 -91 701 211 
Q 384 513 384 1019 
Q 384 1609 779 1909 
Q 1175 2209 1959 2209 
L 2766 2209 
L 2766 2266 
Q 2766 2663 2505 2880 
Q 2244 3097 1772 3097 
Q 1472 3097 1187 3025 
Q 903 2953 641 2809 
L 641 3341 
Q 956 3463 1253 3523 
Q 1550 3584 1831 3584 
Q 2591 3584 2966 3190 
Q 3341 2797 3341 1997 
z
M 2290 5119 
L 2912 5119 
L 1894 3944 
L 1415 3944 
L 2290 5119 
z
" transform="scale(0.015625)"/>
      </defs>
      <use xlink:href="#DejaVuSans-56"/>
      <use xlink:href="#DejaVuSans-73" transform="translate(68.408203 0)"/>
      <use xlink:href="#DejaVuSans-74" transform="translate(120.507812 0)"/>
      <use xlink:href="#DejaVuSans-75" transform="translate(159.716797 0)"/>
      <use xlink:href="#DejaVuSans-70" transform="translate(223.095703 0)"/>
      <use xlink:href="#DejaVuSans-6e" transform="translate(286.572266 0)"/>
      <use xlink:href="#DejaVuSans-ed" transform="translate(349.951172 0)"/>
      <use xlink:href="#DejaVuSans-20" transform="translate(377.734375 0)"/>
      <use xlink:href="#DejaVuSans-74" transform="translate(409.521484 0)"/>
      <use xlink:href="#DejaVuSans-65" transform="translate(448.730469 0)"/>
      <use xlink:href="#DejaVuSans-78" transform="translate(508.503906 0)"/>
      <use xlink:href="#DejaVuSans-74" transform="translate(567.683594 0)"/>
      <use xlink:href="#DejaVuSans-6f" transform="translate(606.892578 0)"/>
      <use xlink:href="#DejaVuSans-76" transform="translate(668.074219 0)"/>
      <use xlink:href="#DejaVuSans-e9" transform="translate(727.253906 0)"/>
      <use xlink:href="#DejaVuSans-20" transform="translate(788.777344 0)"/>
      <use xlink:href="#DejaVuSans-7a" transform="translate(820.564453 0)"/>
      <use xlink:href="#DejaVuSans-61" transform="translate(873.054688 0)"/>
      <use xlink:href="#DejaVuSans-64" transform="translate(934.333984 0)"/>
      <use xlink:href="#DejaVuSans-e1" transform="translate(997.810547 0)"/>
      <use xlink:href="#DejaVuSans-6e" transform="translate(1059.089844 0)"/>
      <use xlink:href="#DejaVuSans-ed" transform="translate(1122.46875 0)"/>
     </g>
    </g>
   </g>
   <g id="matplotlib.axis_2">
    <g id="ytick_1">
     <g id="line2d_7">
      <path d="M 62.57 191.382045 
L 450 191.382045 
" clip-path="url(#p029902162f)" style="fill: none; stroke-dasharray: 1.85,0.8; stroke-dashoffset: 0; stroke: #808080; stroke-opacity: 0.7; stroke-width: 0.5"/>
     </g>
     <g id="line2d_8">
      <defs>
       <path id="m0eb502ff61" d="M 0 0 
L -3.5 0 
" style="stroke: #000000; stroke-width: 0.8"/>
      </defs>
      <g>
       <use xlink:href="#m0eb502ff61" x="62.57" y="191.382045" style="stroke: #000000; stroke-width: 0.8"/>
      </g>
     </g>
     <g id="text_8">
      <!-- −0.04 -->
      <g transform="translate(24.924688 195.181264) scale(0.1 -0.1)">
       <defs>
        <path id="DejaVuSans-2212" d="M 678 2272 
L 4684 2272 
L 4684 1741 
L 678 1741 
L 678 2272 
z
" transform="scale(0.015625)"/>
        <path id="DejaVuSans-30" d="M 2034 4250 
Q 1547 4250 1301 3770 
Q 1056 3291 1056 2328 
Q 1056 1369 1301 889 
Q 1547 409 2034 409 
Q 2525 409 2770 889 
Q 3016 1369 3016 2328 
Q 3016 3291 2770 3770 
Q 2525 4250 2034 4250 
z
M 2034 4750 
Q 2819 4750 3233 4129 
Q 3647 3509 3647 2328 
Q 3647 1150 3233 529 
Q 2819 -91 2034 -91 
Q 1250 -91 836 529 
Q 422 1150 422 2328 
Q 422 3509 836 4129 
Q 1250 4750 2034 4750 
z
" transform="scale(0.015625)"/>
        <path id="DejaVuSans-2e" d="M 684 794 
L 1344 794 
L 1344 0 
L 684 0 
L 684 794 
z
" transform="scale(0.015625)"/>
        <path id="DejaVuSans-34" d="M 2419 4116 
L 825 1625 
L 2419 1625 
L 2419 4116 
z
M 2253 4666 
L 3047 4666 
L 3047 1625 
L 3713 1625 
L 3713 1100 
L 3047 1100 
L 3047 0 
L 2419 0 
L 2419 1100 
L 313 1100 
L 313 1709 
L 2253 4666 
z
" transform="scale(0.015625)"/>
       </defs>
       <use xlink:href="#DejaVuSans-2212"/>
       <use xlink:href="#DejaVuSans-30" transform="translate(83.789062 0)"/>
       <use xlink:href="#DejaVuSans-2e" transform="translate(147.412109 0)"/>
       <use xlink:href="#DejaVuSans-30" transform="translate(179.199219 0)"/>
       <use xlink:href="#DejaVuSans-34" transform="translate(242.822266 0)"/>
      </g>
     </g>
    </g>
    <g id="ytick_2">
     <g id="line2d_9">
      <path d="M 62.57 153.364773 
L 450 153.364773 
" clip-path="url(#p029902162f)" style="fill: none; stroke-dasharray: 1.85,0.8; stroke-dashoffset: 0; stroke: #808080; stroke-opacity: 0.7; stroke-width: 0.5"/>
     </g>
     <g id="line2d_10">
      <g>
       <use xlink:href="#m0eb502ff61" x="62.57" y="153.364773" style="stroke: #000000; stroke-width: 0.8"/>
      </g>
     </g>
     <g id="text_9">
      <!-- −0.02 -->
      <g transform="translate(24.924688 157.163991) scale(0.1 -0.1)">
       <use xlink:href="#DejaVuSans-2212"/>
       <use xlink:href="#DejaVuSans-30" transform="translate(83.789062 0)"/>
       <use xlink:href="#DejaVuSans-2e" transform="translate(147.412109 0)"/>
       <use xlink:href="#DejaVuSans-30" transform="translate(179.199219 0)"/>
       <use xlink:href="#DejaVuSans-32" transform="translate(242.822266 0)"/>
      </g>
     </g>
    </g>
    <g id="ytick_3">
     <g id="line2d_11">
      <path d="M 62.57 115.3475 
L 450 115.3475 
" clip-path="url(#p029902162f)" style="fill: none; stroke-dasharray: 1.85,0.8; stroke-dashoffset: 0; stroke: #808080; stroke-opacity: 0.7; stroke-width: 0.5"/>
     </g>
     <g id="line2d_12">
      <g>
       <use xlink:href="#m0eb502ff61" x="62.57" y="115.3475" style="stroke: #000000; stroke-width: 0.8"/>
      </g>
     </g>
     <g id="text_10">
      <!-- 0.00 -->
      <g transform="translate(33.304375 119.146719) scale(0.1 -0.1)">
       <use xlink:href="#DejaVuSans-30"/>
       <use xlink:href="#DejaVuSans-2e" transform="translate(63.623047 0)"/>
       <use xlink:href="#DejaVuSans-30" transform="translate(95.410156 0)"/>
       <use xlink:href="#DejaVuSans-30" transform="translate(159.033203 0)"/>
      </g>
     </g>
    </g>
    <g id="ytick_4">
     <g id="line2d_13">
      <path d="M 62.57 77.330227 
L 450 77.330227 
" clip-path="url(#p029902162f)" style="fill: none; stroke-dasharray: 1.85,0.8; stroke-dashoffset: 0; stroke: #808080; stroke-opacity: 0.7; stroke-width: 0.5"/>
     </g>
     <g id="line2d_14">
      <g>
       <use xlink:href="#m0eb502ff61" x="62.57" y="77.330227" style="stroke: #000000; stroke-width: 0.8"/>
      </g>
     </g>
     <g id="text_11">
      <!-- 0.02 -->
      <g transform="translate(33.304375 81.129446) scale(0.1 -0.1)">
       <use xlink:href="#DejaVuSans-30"/>
       <use xlink:href="#DejaVuSans-2e" transform="translate(63.623047 0)"/>
       <use xlink:href="#DejaVuSans-30" transform="translate(95.410156 0)"/>
       <use xlink:href="#DejaVuSans-32" transform="translate(159.033203 0)"/>
      </g>
     </g>
    </g>
    <g id="ytick_5">
     <g id="line2d_15">
      <path d="M 62.57 39.312955 
L 450 39.312955 
" clip-path="url(#p029902162f)" style="fill: none; stroke-dasharray: 1.85,0.8; stroke-dashoffset: 0; stroke: #808080; stroke-opacity: 0.7; stroke-width: 0.5"/>
     </g>
     <g id="line2d_16">
      <g>
       <use xlink:href="#m0eb502ff61" x="62.57" y="39.312955" style="stroke: #000000; stroke-width: 0.8"/>
      </g>
     </g>
     <g id="text_12">
      <!-- 0.04 -->
      <g transform="translate(33.304375 43.112173) scale(0.1 -0.1)">
       <use xlink:href="#DejaVuSans-30"/>
       <use xlink:href="#DejaVuSans-2e" transform="translate(63.623047 0)"/>
       <use xlink:href="#DejaVuSans-30" transform="translate(95.410156 0)"/>
       <use xlink:href="#DejaVuSans-34" transform="translate(159.033203 0)"/>
      </g>
     </g>
    </g>
    <g id="text_13">
     <!-- MAP -->
     <g transform="translate(18.845 126.096719) rotate(-90) scale(0.1 -0.1)">
      <defs>
       <path id="DejaVuSans-4d" d="M 628 4666 
L 1569 4666 
L 2759 1491 
L 3956 4666 
L 4897 4666 
L 4897 0 
L 4281 0 
L 4281 4097 
L 3078 897 
L 2444 897 
L 1241 4097 
L 1241 0 
L 628 0 
L 628 4666 
z
" transform="scale(0.015625)"/>
       <path id="DejaVuSans-41" d="M 2188 4044 
L 1331 1722 
L 3047 1722 
L 2188 4044 
z
M 1831 4666 
L 2547 4666 
L 4325 0 
L 3669 0 
L 3244 1197 
L 1141 1197 
L 716 0 
L 50 0 
L 1831 4666 
z
" transform="scale(0.015625)"/>
       <path id="DejaVuSans-50" d="M 1259 4147 
L 1259 2394 
L 2053 2394 
Q 2494 2394 2734 2622 
Q 2975 2850 2975 3272 
Q 2975 3691 2734 3919 
Q 2494 4147 2053 4147 
L 1259 4147 
z
M 628 4666 
L 2053 4666 
Q 2838 4666 3239 4311 
Q 3641 3956 3641 3272 
Q 3641 2581 3239 2228 
Q 2838 1875 2053 1875 
L 1259 1875 
L 1259 0 
L 628 0 
L 628 4666 
z
" transform="scale(0.015625)"/>
      </defs>
      <use xlink:href="#DejaVuSans-4d"/>
      <use xlink:href="#DejaVuSans-41" transform="translate(86.279297 0)"/>
      <use xlink:href="#DejaVuSans-50" transform="translate(154.6875 0)"/>
     </g>
    </g>
   </g>
   <g id="patch_63">
    <path d="M 62.57 219.895 
L 62.57 10.8 
" style="fill: none; stroke: #000000; stroke-width: 0.8; stroke-linejoin: miter; stroke-linecap: square"/>
   </g>
   <g id="patch_64">
    <path d="M 450 219.895 
L 450 10.8 
" style="fill: none; stroke: #000000; stroke-width: 0.8; stroke-linejoin: miter; stroke-linecap: square"/>
   </g>
   <g id="patch_65">
    <path d="M 62.57 219.895 
L 450 219.895 
" style="fill: none; stroke: #000000; stroke-width: 0.8; stroke-linejoin: miter; stroke-linecap: square"/>
   </g>
   <g id="patch_66">
    <path d="M 62.57 10.8 
L 450 10.8 
" style="fill: none; stroke: #000000; stroke-width: 0.8; stroke-linejoin: miter; stroke-linecap: square"/>
   </g>
   <g id="legend_1">
    <g id="patch_67">
     <path d="M 395.096875 165.58125 
L 443 165.58125 
Q 445 165.58125 445 163.58125 
L 445 17.8 
Q 445 15.8 443 15.8 
L 395.096875 15.8 
Q 393.096875 15.8 393.096875 17.8 
L 393.096875 163.58125 
Q 393.096875 165.58125 395.096875 165.58125 
z
" style="fill: #ffffff; opacity: 0.8; stroke: #cccccc; stroke-linejoin: miter"/>
    </g>
    <g id="patch_68">
     <path d="M 397.096875 27.398438 
L 417.096875 27.398438 
L 417.096875 20.398438 
L 397.096875 20.398438 
z
" style="fill: #0000ff"/>
    </g>
    <g id="text_14">
     <!-- 0.0 -->
     <g transform="translate(425.096875 27.398438) scale(0.1 -0.1)">
      <use xlink:href="#DejaVuSans-30"/>
      <use xlink:href="#DejaVuSans-2e" transform="translate(63.623047 0)"/>
      <use xlink:href="#DejaVuSans-30" transform="translate(95.410156 0)"/>
     </g>
    </g>
    <g id="patch_69">
     <path d="M 397.096875 42.076563 
L 417.096875 42.076563 
L 417.096875 35.076563 
L 397.096875 35.076563 
z
" style="fill: #008000"/>
    </g>
    <g id="text_15">
     <!-- 0.1 -->
     <g transform="translate(425.096875 42.076563) scale(0.1 -0.1)">
      <use xlink:href="#DejaVuSans-30"/>
      <use xlink:href="#DejaVuSans-2e" transform="translate(63.623047 0)"/>
      <use xlink:href="#DejaVuSans-31" transform="translate(95.410156 0)"/>
     </g>
    </g>
    <g id="patch_70">
     <path d="M 397.096875 56.754687 
L 417.096875 56.754687 
L 417.096875 49.754687 
L 397.096875 49.754687 
z
" style="fill: #ff0000"/>
    </g>
    <g id="text_16">
     <!-- 0.2 -->
     <g transform="translate(425.096875 56.754687) scale(0.1 -0.1)">
      <use xlink:href="#DejaVuSans-30"/>
      <use xlink:href="#DejaVuSans-2e" transform="translate(63.623047 0)"/>
      <use xlink:href="#DejaVuSans-32" transform="translate(95.410156 0)"/>
     </g>
    </g>
    <g id="patch_71">
     <path d="M 397.096875 71.432813 
L 417.096875 71.432813 
L 417.096875 64.432813 
L 397.096875 64.432813 
z
" style="fill: #800080"/>
    </g>
    <g id="text_17">
     <!-- 0.3 -->
     <g transform="translate(425.096875 71.432813) scale(0.1 -0.1)">
      <use xlink:href="#DejaVuSans-30"/>
      <use xlink:href="#DejaVuSans-2e" transform="translate(63.623047 0)"/>
      <use xlink:href="#DejaVuSans-33" transform="translate(95.410156 0)"/>
     </g>
    </g>
    <g id="patch_72">
     <path d="M 397.096875 86.110938 
L 417.096875 86.110938 
L 417.096875 79.110938 
L 397.096875 79.110938 
z
" style="fill: #a52a2a"/>
    </g>
    <g id="text_18">
     <!-- 0.4 -->
     <g transform="translate(425.096875 86.110938) scale(0.1 -0.1)">
      <use xlink:href="#DejaVuSans-30"/>
      <use xlink:href="#DejaVuSans-2e" transform="translate(63.623047 0)"/>
      <use xlink:href="#DejaVuSans-34" transform="translate(95.410156 0)"/>
     </g>
    </g>
    <g id="patch_73">
     <path d="M 397.096875 100.789062 
L 417.096875 100.789062 
L 417.096875 93.789062 
L 397.096875 93.789062 
z
" style="fill: #ffc0cb"/>
    </g>
    <g id="text_19">
     <!-- 0.5 -->
     <g transform="translate(425.096875 100.789062) scale(0.1 -0.1)">
      <defs>
       <path id="DejaVuSans-35" d="M 691 4666 
L 3169 4666 
L 3169 4134 
L 1269 4134 
L 1269 2991 
Q 1406 3038 1543 3061 
Q 1681 3084 1819 3084 
Q 2600 3084 3056 2656 
Q 3513 2228 3513 1497 
Q 3513 744 3044 326 
Q 2575 -91 1722 -91 
Q 1428 -91 1123 -41 
Q 819 9 494 109 
L 494 744 
Q 775 591 1075 516 
Q 1375 441 1709 441 
Q 2250 441 2565 725 
Q 2881 1009 2881 1497 
Q 2881 1984 2565 2268 
Q 2250 2553 1709 2553 
Q 1456 2553 1204 2497 
Q 953 2441 691 2322 
L 691 4666 
z
" transform="scale(0.015625)"/>
      </defs>
      <use xlink:href="#DejaVuSans-30"/>
      <use xlink:href="#DejaVuSans-2e" transform="translate(63.623047 0)"/>
      <use xlink:href="#DejaVuSans-35" transform="translate(95.410156 0)"/>
     </g>
    </g>
    <g id="patch_74">
     <path d="M 397.096875 115.467188 
L 417.096875 115.467188 
L 417.096875 108.467188 
L 397.096875 108.467188 
z
" style="fill: #808080"/>
    </g>
    <g id="text_20">
     <!-- 0.6 -->
     <g transform="translate(425.096875 115.467188) scale(0.1 -0.1)">
      <defs>
       <path id="DejaVuSans-36" d="M 2113 2584 
Q 1688 2584 1439 2293 
Q 1191 2003 1191 1497 
Q 1191 994 1439 701 
Q 1688 409 2113 409 
Q 2538 409 2786 701 
Q 3034 994 3034 1497 
Q 3034 2003 2786 2293 
Q 2538 2584 2113 2584 
z
M 3366 4563 
L 3366 3988 
Q 3128 4100 2886 4159 
Q 2644 4219 2406 4219 
Q 1781 4219 1451 3797 
Q 1122 3375 1075 2522 
Q 1259 2794 1537 2939 
Q 1816 3084 2150 3084 
Q 2853 3084 3261 2657 
Q 3669 2231 3669 1497 
Q 3669 778 3244 343 
Q 2819 -91 2113 -91 
Q 1303 -91 875 529 
Q 447 1150 447 2328 
Q 447 3434 972 4092 
Q 1497 4750 2381 4750 
Q 2619 4750 2861 4703 
Q 3103 4656 3366 4563 
z
" transform="scale(0.015625)"/>
      </defs>
      <use xlink:href="#DejaVuSans-30"/>
      <use xlink:href="#DejaVuSans-2e" transform="translate(63.623047 0)"/>
      <use xlink:href="#DejaVuSans-36" transform="translate(95.410156 0)"/>
     </g>
    </g>
    <g id="patch_75">
     <path d="M 397.096875 130.145312 
L 417.096875 130.145312 
L 417.096875 123.145312 
L 397.096875 123.145312 
z
" style="fill: #808000"/>
    </g>
    <g id="text_21">
     <!-- 0.7 -->
     <g transform="translate(425.096875 130.145312) scale(0.1 -0.1)">
      <defs>
       <path id="DejaVuSans-37" d="M 525 4666 
L 3525 4666 
L 3525 4397 
L 1831 0 
L 1172 0 
L 2766 4134 
L 525 4134 
L 525 4666 
z
" transform="scale(0.015625)"/>
      </defs>
      <use xlink:href="#DejaVuSans-30"/>
      <use xlink:href="#DejaVuSans-2e" transform="translate(63.623047 0)"/>
      <use xlink:href="#DejaVuSans-37" transform="translate(95.410156 0)"/>
     </g>
    </g>
    <g id="patch_76">
     <path d="M 397.096875 144.823438 
L 417.096875 144.823438 
L 417.096875 137.823438 
L 397.096875 137.823438 
z
" style="fill: #00ffff"/>
    </g>
    <g id="text_22">
     <!-- 0.8 -->
     <g transform="translate(425.096875 144.823438) scale(0.1 -0.1)">
      <defs>
       <path id="DejaVuSans-38" d="M 2034 2216 
Q 1584 2216 1326 1975 
Q 1069 1734 1069 1313 
Q 1069 891 1326 650 
Q 1584 409 2034 409 
Q 2484 409 2743 651 
Q 3003 894 3003 1313 
Q 3003 1734 2745 1975 
Q 2488 2216 2034 2216 
z
M 1403 2484 
Q 997 2584 770 2862 
Q 544 3141 544 3541 
Q 544 4100 942 4425 
Q 1341 4750 2034 4750 
Q 2731 4750 3128 4425 
Q 3525 4100 3525 3541 
Q 3525 3141 3298 2862 
Q 3072 2584 2669 2484 
Q 3125 2378 3379 2068 
Q 3634 1759 3634 1313 
Q 3634 634 3220 271 
Q 2806 -91 2034 -91 
Q 1263 -91 848 271 
Q 434 634 434 1313 
Q 434 1759 690 2068 
Q 947 2378 1403 2484 
z
M 1172 3481 
Q 1172 3119 1398 2916 
Q 1625 2713 2034 2713 
Q 2441 2713 2670 2916 
Q 2900 3119 2900 3481 
Q 2900 3844 2670 4047 
Q 2441 4250 2034 4250 
Q 1625 4250 1398 4047 
Q 1172 3844 1172 3481 
z
" transform="scale(0.015625)"/>
      </defs>
      <use xlink:href="#DejaVuSans-30"/>
      <use xlink:href="#DejaVuSans-2e" transform="translate(63.623047 0)"/>
      <use xlink:href="#DejaVuSans-38" transform="translate(95.410156 0)"/>
     </g>
    </g>
    <g id="patch_77">
     <path d="M 397.096875 159.501562 
L 417.096875 159.501562 
L 417.096875 152.501562 
L 397.096875 152.501562 
z
" style="fill: #800000"/>
    </g>
    <g id="text_23">
     <!-- 0.9 -->
     <g transform="translate(425.096875 159.501562) scale(0.1 -0.1)">
      <defs>
       <path id="DejaVuSans-39" d="M 703 97 
L 703 672 
Q 941 559 1184 500 
Q 1428 441 1663 441 
Q 2288 441 2617 861 
Q 2947 1281 2994 2138 
Q 2813 1869 2534 1725 
Q 2256 1581 1919 1581 
Q 1219 1581 811 2004 
Q 403 2428 403 3163 
Q 403 3881 828 4315 
Q 1253 4750 1959 4750 
Q 2769 4750 3195 4129 
Q 3622 3509 3622 2328 
Q 3622 1225 3098 567 
Q 2575 -91 1691 -91 
Q 1453 -91 1209 -44 
Q 966 3 703 97 
z
M 1959 2075 
Q 2384 2075 2632 2365 
Q 2881 2656 2881 3163 
Q 2881 3666 2632 3958 
Q 2384 4250 1959 4250 
Q 1534 4250 1286 3958 
Q 1038 3666 1038 3163 
Q 1038 2656 1286 2365 
Q 1534 2075 1959 2075 
z
" transform="scale(0.015625)"/>
      </defs>
      <use xlink:href="#DejaVuSans-30"/>
      <use xlink:href="#DejaVuSans-2e" transform="translate(63.623047 0)"/>
      <use xlink:href="#DejaVuSans-39" transform="translate(95.410156 0)"/>
     </g>
    </g>
   </g>
  </g>
 </g>
 <defs>
  <clipPath id="p029902162f">
   <rect x="62.57" y="10.8" width="387.43" height="209.095"/>
  </clipPath>
 </defs>
</svg>
