<?xml version="1.0" encoding="utf-8" standalone="no"?>
<!DOCTYPE svg PUBLIC "-//W3C//DTD SVG 1.1//EN"
  "http://www.w3.org/Graphics/SVG/1.1/DTD/svg11.dtd">
<svg xmlns:xlink="http://www.w3.org/1999/xlink" width="460.8pt" height="345.6pt" viewBox="0 0 460.8 345.6" xmlns="http://www.w3.org/2000/svg" version="1.1">
 <metadata>
  <rdf:RDF xmlns:dc="http://purl.org/dc/elements/1.1/" xmlns:cc="http://creativecommons.org/ns#" xmlns:rdf="http://www.w3.org/1999/02/22-rdf-syntax-ns#">
   <cc:Work>
    <dc:type rdf:resource="http://purl.org/dc/dcmitype/StillImage"/>
    <dc:date>2026-02-03T17:16:37.675625</dc:date>
    <dc:format>image/svg+xml</dc:format>
    <dc:creator>
     <cc:Agent>
      <dc:title>Matplotlib v3.10.8, https://matplotlib.org/</dc:title>
     </cc:Agent>
    </dc:creator>
   </cc:Work>
  </rdf:RDF>
 </metadata>
 <defs>
  <style type="text/css">*{stroke-linejoin: round; stroke-linecap: butt}</style>
 </defs>
 <g id="figure_1">
  <g id="patch_1">
   <path d="M 0 345.6 
L 460.8 345.6 
L 460.8 0 
L 0 0 
z
" style="fill: #ffffff"/>
  </g>
  <g id="axes_1">
   <g id="patch_2">
    <path d="M 57.6 190.08 
L 414.72 190.08 
L 414.72 41.472 
L 57.6 41.472 
z
" style="fill: #ffffff"/>
   </g>
   <g id="matplotlib.axis_1">
    <g id="xtick_1">
     <g id="line2d_1">
      <defs>
       <path id="m0954923ac4" d="M 0 0 
L 0 3.5 
" style="stroke: #000000; stroke-width: 0.8"/>
      </defs>
      <g>
       <use xlink:href="#m0954923ac4" x="79.92" y="190.08" style="stroke: #000000; stroke-width: 0.8"/>
      </g>
     </g>
     <g id="text_1">
      <!-- pattern1_OcrCz -->
      <g transform="translate(82.452031 274.89875) rotate(-90) scale(0.1 -0.1)">
       <defs>
        <path id="DejaVuSans-70" d="M 1159 525 
L 1159 -1331 
L 581 -1331 
L 581 3500 
L 1159 3500 
L 1159 2969 
Q 1341 3281 1617 3432 
Q 1894 3584 2278 3584 
Q 2916 3584 3314 3078 
Q 3713 2572 3713 1747 
Q 3713 922 3314 415 
Q 2916 -91 2278 -91 
Q 1894 -91 1617 61 
Q 1341 213 1159 525 
z
M 3116 1747 
Q 3116 2381 2855 2742 
Q 2594 3103 2138 3103 
Q 1681 3103 1420 2742 
Q 1159 2381 1159 1747 
Q 1159 1113 1420 752 
Q 1681 391 2138 391 
Q 2594 391 2855 752 
Q 3116 1113 3116 1747 
z
" transform="scale(0.015625)"/>
        <path id="DejaVuSans-61" d="M 2194 1759 
Q 1497 1759 1228 1600 
Q 959 1441 959 1056 
Q 959 750 1161 570 
Q 1363 391 1709 391 
Q 2188 391 2477 730 
Q 2766 1069 2766 1631 
L 2766 1759 
L 2194 1759 
z
M 3341 1997 
L 3341 0 
L 2766 0 
L 2766 531 
Q 2569 213 2275 61 
Q 1981 -91 1556 -91 
Q 1019 -91 701 211 
Q 384 513 384 1019 
Q 384 1609 779 1909 
Q 1175 2209 1959 2209 
L 2766 2209 
L 2766 2266 
Q 2766 2663 2505 2880 
Q 2244 3097 1772 3097 
Q 1472 3097 1187 3025 
Q 903 2953 641 2809 
L 641 3341 
Q 956 3463 1253 3523 
Q 1550 3584 1831 3584 
Q 2591 3584 2966 3190 
Q 3341 2797 3341 1997 
z
" transform="scale(0.015625)"/>
        <path id="DejaVuSans-74" d="M 1172 4494 
L 1172 3500 
L 2356 3500 
L 2356 3053 
L 1172 3053 
L 1172 1153 
Q 1172 725 1289 603 
Q 1406 481 1766 481 
L 2356 481 
L 2356 0 
L 1766 0 
Q 1100 0 847 248 
Q 594 497 594 1153 
L 594 3053 
L 172 3053 
L 172 3500 
L 594 3500 
L 594 4494 
L 1172 4494 
z
" transform="scale(0.015625)"/>
        <path id="DejaVuSans-65" d="M 3597 1894 
L 3597 1613 
L 953 1613 
Q 991 1019 1311 708 
Q 1631 397 2203 397 
Q 2534 397 2845 478 
Q 3156 559 3463 722 
L 3463 178 
Q 3153 47 2828 -22 
Q 2503 -91 2169 -91 
Q 1331 -91 842 396 
Q 353 884 353 1716 
Q 353 2575 817 3079 
Q 1281 3584 2069 3584 
Q 2775 3584 3186 3129 
Q 3597 2675 3597 1894 
z
M 3022 2063 
Q 3016 2534 2758 2815 
Q 2500 3097 2075 3097 
Q 1594 3097 1305 2825 
Q 1016 2553 972 2059 
L 3022 2063 
z
" transform="scale(0.015625)"/>
        <path id="DejaVuSans-72" d="M 2631 2963 
Q 2534 3019 2420 3045 
Q 2306 3072 2169 3072 
Q 1681 3072 1420 2755 
Q 1159 2438 1159 1844 
L 1159 0 
L 581 0 
L 581 3500 
L 1159 3500 
L 1159 2956 
Q 1341 3275 1631 3429 
Q 1922 3584 2338 3584 
Q 2397 3584 2469 3576 
Q 2541 3569 2628 3553 
L 2631 2963 
z
" transform="scale(0.015625)"/>
        <path id="DejaVuSans-6e" d="M 3513 2113 
L 3513 0 
L 2938 0 
L 2938 2094 
Q 2938 2591 2744 2837 
Q 2550 3084 2163 3084 
Q 1697 3084 1428 2787 
Q 1159 2491 1159 1978 
L 1159 0 
L 581 0 
L 581 3500 
L 1159 3500 
L 1159 2956 
Q 1366 3272 1645 3428 
Q 1925 3584 2291 3584 
Q 2894 3584 3203 3211 
Q 3513 2838 3513 2113 
z
" transform="scale(0.015625)"/>
        <path id="DejaVuSans-31" d="M 794 531 
L 1825 531 
L 1825 4091 
L 703 3866 
L 703 4441 
L 1819 4666 
L 2450 4666 
L 2450 531 
L 3481 531 
L 3481 0 
L 794 0 
L 794 531 
z
" transform="scale(0.015625)"/>
        <path id="DejaVuSans-5f" d="M 3263 -1063 
L 3263 -1509 
L -63 -1509 
L -63 -1063 
L 3263 -1063 
z
" transform="scale(0.015625)"/>
        <path id="DejaVuSans-4f" d="M 2522 4238 
Q 1834 4238 1429 3725 
Q 1025 3213 1025 2328 
Q 1025 1447 1429 934 
Q 1834 422 2522 422 
Q 3209 422 3611 934 
Q 4013 1447 4013 2328 
Q 4013 3213 3611 3725 
Q 3209 4238 2522 4238 
z
M 2522 4750 
Q 3503 4750 4090 4092 
Q 4678 3434 4678 2328 
Q 4678 1225 4090 567 
Q 3503 -91 2522 -91 
Q 1538 -91 948 565 
Q 359 1222 359 2328 
Q 359 3434 948 4092 
Q 1538 4750 2522 4750 
z
" transform="scale(0.015625)"/>
        <path id="DejaVuSans-63" d="M 3122 3366 
L 3122 2828 
Q 2878 2963 2633 3030 
Q 2388 3097 2138 3097 
Q 1578 3097 1268 2742 
Q 959 2388 959 1747 
Q 959 1106 1268 751 
Q 1578 397 2138 397 
Q 2388 397 2633 464 
Q 2878 531 3122 666 
L 3122 134 
Q 2881 22 2623 -34 
Q 2366 -91 2075 -91 
Q 1284 -91 818 406 
Q 353 903 353 1747 
Q 353 2603 823 3093 
Q 1294 3584 2113 3584 
Q 2378 3584 2631 3529 
Q 2884 3475 3122 3366 
z
" transform="scale(0.015625)"/>
        <path id="DejaVuSans-43" d="M 4122 4306 
L 4122 3641 
Q 3803 3938 3442 4084 
Q 3081 4231 2675 4231 
Q 1875 4231 1450 3742 
Q 1025 3253 1025 2328 
Q 1025 1406 1450 917 
Q 1875 428 2675 428 
Q 3081 428 3442 575 
Q 3803 722 4122 1019 
L 4122 359 
Q 3791 134 3420 21 
Q 3050 -91 2638 -91 
Q 1578 -91 968 557 
Q 359 1206 359 2328 
Q 359 3453 968 4101 
Q 1578 4750 2638 4750 
Q 3056 4750 3426 4639 
Q 3797 4528 4122 4306 
z
" transform="scale(0.015625)"/>
        <path id="DejaVuSans-7a" d="M 353 3500 
L 3084 3500 
L 3084 2975 
L 922 459 
L 3084 459 
L 3084 0 
L 275 0 
L 275 525 
L 2438 3041 
L 353 3041 
L 353 3500 
z
" transform="scale(0.015625)"/>
       </defs>
       <use xlink:href="#DejaVuSans-70"/>
       <use xlink:href="#DejaVuSans-61" transform="translate(63.476562 0)"/>
       <use xlink:href="#DejaVuSans-74" transform="translate(124.755859 0)"/>
       <use xlink:href="#DejaVuSans-74" transform="translate(163.964844 0)"/>
       <use xlink:href="#DejaVuSans-65" transform="translate(203.173828 0)"/>
       <use xlink:href="#DejaVuSans-72" transform="translate(264.697266 0)"/>
       <use xlink:href="#DejaVuSans-6e" transform="translate(304.060547 0)"/>
       <use xlink:href="#DejaVuSans-31" transform="translate(367.439453 0)"/>
       <use xlink:href="#DejaVuSans-5f" transform="translate(431.0625 0)"/>
       <use xlink:href="#DejaVuSans-4f" transform="translate(481.0625 0)"/>
       <use xlink:href="#DejaVuSans-63" transform="translate(559.773438 0)"/>
       <use xlink:href="#DejaVuSans-72" transform="translate(614.753906 0)"/>
       <use xlink:href="#DejaVuSans-43" transform="translate(655.867188 0)"/>
       <use xlink:href="#DejaVuSans-7a" transform="translate(725.691406 0)"/>
      </g>
     </g>
    </g>
    <g id="xtick_2">
     <g id="line2d_2">
      <g>
       <use xlink:href="#m0954923ac4" x="124.56" y="190.08" style="stroke: #000000; stroke-width: 0.8"/>
      </g>
     </g>
     <g id="text_2">
      <!-- pattern1_OcrEn -->
      <g transform="translate(127.092031 275.32375) rotate(-90) scale(0.1 -0.1)">
       <defs>
        <path id="DejaVuSans-45" d="M 628 4666 
L 3578 4666 
L 3578 4134 
L 1259 4134 
L 1259 2753 
L 3481 2753 
L 3481 2222 
L 1259 2222 
L 1259 531 
L 3634 531 
L 3634 0 
L 628 0 
L 628 4666 
z
" transform="scale(0.015625)"/>
       </defs>
       <use xlink:href="#DejaVuSans-70"/>
       <use xlink:href="#DejaVuSans-61" transform="translate(63.476562 0)"/>
       <use xlink:href="#DejaVuSans-74" transform="translate(124.755859 0)"/>
       <use xlink:href="#DejaVuSans-74" transform="translate(163.964844 0)"/>
       <use xlink:href="#DejaVuSans-65" transform="translate(203.173828 0)"/>
       <use xlink:href="#DejaVuSans-72" transform="translate(264.697266 0)"/>
       <use xlink:href="#DejaVuSans-6e" transform="translate(304.060547 0)"/>
       <use xlink:href="#DejaVuSans-31" transform="translate(367.439453 0)"/>
       <use xlink:href="#DejaVuSans-5f" transform="translate(431.0625 0)"/>
       <use xlink:href="#DejaVuSans-4f" transform="translate(481.0625 0)"/>
       <use xlink:href="#DejaVuSans-63" transform="translate(559.773438 0)"/>
       <use xlink:href="#DejaVuSans-72" transform="translate(614.753906 0)"/>
       <use xlink:href="#DejaVuSans-45" transform="translate(655.867188 0)"/>
       <use xlink:href="#DejaVuSans-6e" transform="translate(719.050781 0)"/>
      </g>
     </g>
    </g>
    <g id="xtick_3">
     <g id="line2d_3">
      <g>
       <use xlink:href="#m0954923ac4" x="169.2" y="190.08" style="stroke: #000000; stroke-width: 0.8"/>
      </g>
     </g>
     <g id="text_3">
      <!-- pattern2_OcrCz -->
      <g transform="translate(171.732031 274.89875) rotate(-90) scale(0.1 -0.1)">
       <defs>
        <path id="DejaVuSans-32" d="M 1228 531 
L 3431 531 
L 3431 0 
L 469 0 
L 469 531 
Q 828 903 1448 1529 
Q 2069 2156 2228 2338 
Q 2531 2678 2651 2914 
Q 2772 3150 2772 3378 
Q 2772 3750 2511 3984 
Q 2250 4219 1831 4219 
Q 1534 4219 1204 4116 
Q 875 4013 500 3803 
L 500 4441 
Q 881 4594 1212 4672 
Q 1544 4750 1819 4750 
Q 2544 4750 2975 4387 
Q 3406 4025 3406 3419 
Q 3406 3131 3298 2873 
Q 3191 2616 2906 2266 
Q 2828 2175 2409 1742 
Q 1991 1309 1228 531 
z
" transform="scale(0.015625)"/>
       </defs>
       <use xlink:href="#DejaVuSans-70"/>
       <use xlink:href="#DejaVuSans-61" transform="translate(63.476562 0)"/>
       <use xlink:href="#DejaVuSans-74" transform="translate(124.755859 0)"/>
       <use xlink:href="#DejaVuSans-74" transform="translate(163.964844 0)"/>
       <use xlink:href="#DejaVuSans-65" transform="translate(203.173828 0)"/>
       <use xlink:href="#DejaVuSans-72" transform="translate(264.697266 0)"/>
       <use xlink:href="#DejaVuSans-6e" transform="translate(304.060547 0)"/>
       <use xlink:href="#DejaVuSans-32" transform="translate(367.439453 0)"/>
       <use xlink:href="#DejaVuSans-5f" transform="translate(431.0625 0)"/>
       <use xlink:href="#DejaVuSans-4f" transform="translate(481.0625 0)"/>
       <use xlink:href="#DejaVuSans-63" transform="translate(559.773438 0)"/>
       <use xlink:href="#DejaVuSans-72" transform="translate(614.753906 0)"/>
       <use xlink:href="#DejaVuSans-43" transform="translate(655.867188 0)"/>
       <use xlink:href="#DejaVuSans-7a" transform="translate(725.691406 0)"/>
      </g>
     </g>
    </g>
    <g id="xtick_4">
     <g id="line2d_4">
      <g>
       <use xlink:href="#m0954923ac4" x="213.84" y="190.08" style="stroke: #000000; stroke-width: 0.8"/>
      </g>
     </g>
     <g id="text_4">
      <!-- pattern2_OcrEn -->
      <g transform="translate(216.372031 275.32375) rotate(-90) scale(0.1 -0.1)">
       <use xlink:href="#DejaVuSans-70"/>
       <use xlink:href="#DejaVuSans-61" transform="translate(63.476562 0)"/>
       <use xlink:href="#DejaVuSans-74" transform="translate(124.755859 0)"/>
       <use xlink:href="#DejaVuSans-74" transform="translate(163.964844 0)"/>
       <use xlink:href="#DejaVuSans-65" transform="translate(203.173828 0)"/>
       <use xlink:href="#DejaVuSans-72" transform="translate(264.697266 0)"/>
       <use xlink:href="#DejaVuSans-6e" transform="translate(304.060547 0)"/>
       <use xlink:href="#DejaVuSans-32" transform="translate(367.439453 0)"/>
       <use xlink:href="#DejaVuSans-5f" transform="translate(431.0625 0)"/>
       <use xlink:href="#DejaVuSans-4f" transform="translate(481.0625 0)"/>
       <use xlink:href="#DejaVuSans-63" transform="translate(559.773438 0)"/>
       <use xlink:href="#DejaVuSans-72" transform="translate(614.753906 0)"/>
       <use xlink:href="#DejaVuSans-45" transform="translate(655.867188 0)"/>
       <use xlink:href="#DejaVuSans-6e" transform="translate(719.050781 0)"/>
      </g>
     </g>
    </g>
    <g id="xtick_5">
     <g id="line2d_5">
      <g>
       <use xlink:href="#m0954923ac4" x="258.48" y="190.08" style="stroke: #000000; stroke-width: 0.8"/>
      </g>
     </g>
     <g id="text_5">
      <!-- pattern3_OcrCz -->
      <g transform="translate(261.012031 274.89875) rotate(-90) scale(0.1 -0.1)">
       <defs>
        <path id="DejaVuSans-33" d="M 2597 2516 
Q 3050 2419 3304 2112 
Q 3559 1806 3559 1356 
Q 3559 666 3084 287 
Q 2609 -91 1734 -91 
Q 1441 -91 1130 -33 
Q 819 25 488 141 
L 488 750 
Q 750 597 1062 519 
Q 1375 441 1716 441 
Q 2309 441 2620 675 
Q 2931 909 2931 1356 
Q 2931 1769 2642 2001 
Q 2353 2234 1838 2234 
L 1294 2234 
L 1294 2753 
L 1863 2753 
Q 2328 2753 2575 2939 
Q 2822 3125 2822 3475 
Q 2822 3834 2567 4026 
Q 2313 4219 1838 4219 
Q 1578 4219 1281 4162 
Q 984 4106 628 3988 
L 628 4550 
Q 988 4650 1302 4700 
Q 1616 4750 1894 4750 
Q 2613 4750 3031 4423 
Q 3450 4097 3450 3541 
Q 3450 3153 3228 2886 
Q 3006 2619 2597 2516 
z
" transform="scale(0.015625)"/>
       </defs>
       <use xlink:href="#DejaVuSans-70"/>
       <use xlink:href="#DejaVuSans-61" transform="translate(63.476562 0)"/>
       <use xlink:href="#DejaVuSans-74" transform="translate(124.755859 0)"/>
       <use xlink:href="#DejaVuSans-74" transform="translate(163.964844 0)"/>
       <use xlink:href="#DejaVuSans-65" transform="translate(203.173828 0)"/>
       <use xlink:href="#DejaVuSans-72" transform="translate(264.697266 0)"/>
       <use xlink:href="#DejaVuSans-6e" transform="translate(304.060547 0)"/>
       <use xlink:href="#DejaVuSans-33" transform="translate(367.439453 0)"/>
       <use xlink:href="#DejaVuSans-5f" transform="translate(431.0625 0)"/>
       <use xlink:href="#DejaVuSans-4f" transform="translate(481.0625 0)"/>
       <use xlink:href="#DejaVuSans-63" transform="translate(559.773438 0)"/>
       <use xlink:href="#DejaVuSans-72" transform="translate(614.753906 0)"/>
       <use xlink:href="#DejaVuSans-43" transform="translate(655.867188 0)"/>
       <use xlink:href="#DejaVuSans-7a" transform="translate(725.691406 0)"/>
      </g>
     </g>
    </g>
    <g id="xtick_6">
     <g id="line2d_6">
      <g>
       <use xlink:href="#m0954923ac4" x="303.12" y="190.08" style="stroke: #000000; stroke-width: 0.8"/>
      </g>
     </g>
     <g id="text_6">
      <!-- pattern3_OcrEn -->
      <g transform="translate(305.652031 275.32375) rotate(-90) scale(0.1 -0.1)">
       <use xlink:href="#DejaVuSans-70"/>
       <use xlink:href="#DejaVuSans-61" transform="translate(63.476562 0)"/>
       <use xlink:href="#DejaVuSans-74" transform="translate(124.755859 0)"/>
       <use xlink:href="#DejaVuSans-74" transform="translate(163.964844 0)"/>
       <use xlink:href="#DejaVuSans-65" transform="translate(203.173828 0)"/>
       <use xlink:href="#DejaVuSans-72" transform="translate(264.697266 0)"/>
       <use xlink:href="#DejaVuSans-6e" transform="translate(304.060547 0)"/>
       <use xlink:href="#DejaVuSans-33" transform="translate(367.439453 0)"/>
       <use xlink:href="#DejaVuSans-5f" transform="translate(431.0625 0)"/>
       <use xlink:href="#DejaVuSans-4f" transform="translate(481.0625 0)"/>
       <use xlink:href="#DejaVuSans-63" transform="translate(559.773438 0)"/>
       <use xlink:href="#DejaVuSans-72" transform="translate(614.753906 0)"/>
       <use xlink:href="#DejaVuSans-45" transform="translate(655.867188 0)"/>
       <use xlink:href="#DejaVuSans-6e" transform="translate(719.050781 0)"/>
      </g>
     </g>
    </g>
    <g id="xtick_7">
     <g id="line2d_7">
      <g>
       <use xlink:href="#m0954923ac4" x="347.76" y="190.08" style="stroke: #000000; stroke-width: 0.8"/>
      </g>
     </g>
     <g id="text_7">
      <!-- pattern4_OcrCz -->
      <g transform="translate(350.292031 274.89875) rotate(-90) scale(0.1 -0.1)">
       <defs>
        <path id="DejaVuSans-34" d="M 2419 4116 
L 825 1625 
L 2419 1625 
L 2419 4116 
z
M 2253 4666 
L 3047 4666 
L 3047 1625 
L 3713 1625 
L 3713 1100 
L 3047 1100 
L 3047 0 
L 2419 0 
L 2419 1100 
L 313 1100 
L 313 1709 
L 2253 4666 
z
" transform="scale(0.015625)"/>
       </defs>
       <use xlink:href="#DejaVuSans-70"/>
       <use xlink:href="#DejaVuSans-61" transform="translate(63.476562 0)"/>
       <use xlink:href="#DejaVuSans-74" transform="translate(124.755859 0)"/>
       <use xlink:href="#DejaVuSans-74" transform="translate(163.964844 0)"/>
       <use xlink:href="#DejaVuSans-65" transform="translate(203.173828 0)"/>
       <use xlink:href="#DejaVuSans-72" transform="translate(264.697266 0)"/>
       <use xlink:href="#DejaVuSans-6e" transform="translate(304.060547 0)"/>
       <use xlink:href="#DejaVuSans-34" transform="translate(367.439453 0)"/>
       <use xlink:href="#DejaVuSans-5f" transform="translate(431.0625 0)"/>
       <use xlink:href="#DejaVuSans-4f" transform="translate(481.0625 0)"/>
       <use xlink:href="#DejaVuSans-63" transform="translate(559.773438 0)"/>
       <use xlink:href="#DejaVuSans-72" transform="translate(614.753906 0)"/>
       <use xlink:href="#DejaVuSans-43" transform="translate(655.867188 0)"/>
       <use xlink:href="#DejaVuSans-7a" transform="translate(725.691406 0)"/>
      </g>
     </g>
    </g>
    <g id="xtick_8">
     <g id="line2d_8">
      <g>
       <use xlink:href="#m0954923ac4" x="392.4" y="190.08" style="stroke: #000000; stroke-width: 0.8"/>
      </g>
     </g>
     <g id="text_8">
      <!-- pattern4_OcrEn -->
      <g transform="translate(394.932031 275.32375) rotate(-90) scale(0.1 -0.1)">
       <use xlink:href="#DejaVuSans-70"/>
       <use xlink:href="#DejaVuSans-61" transform="translate(63.476562 0)"/>
       <use xlink:href="#DejaVuSans-74" transform="translate(124.755859 0)"/>
       <use xlink:href="#DejaVuSans-74" transform="translate(163.964844 0)"/>
       <use xlink:href="#DejaVuSans-65" transform="translate(203.173828 0)"/>
       <use xlink:href="#DejaVuSans-72" transform="translate(264.697266 0)"/>
       <use xlink:href="#DejaVuSans-6e" transform="translate(304.060547 0)"/>
       <use xlink:href="#DejaVuSans-34" transform="translate(367.439453 0)"/>
       <use xlink:href="#DejaVuSans-5f" transform="translate(431.0625 0)"/>
       <use xlink:href="#DejaVuSans-4f" transform="translate(481.0625 0)"/>
       <use xlink:href="#DejaVuSans-63" transform="translate(559.773438 0)"/>
       <use xlink:href="#DejaVuSans-72" transform="translate(614.753906 0)"/>
       <use xlink:href="#DejaVuSans-45" transform="translate(655.867188 0)"/>
       <use xlink:href="#DejaVuSans-6e" transform="translate(719.050781 0)"/>
      </g>
     </g>
    </g>
   </g>
   <g id="matplotlib.axis_2">
    <g id="ytick_1">
     <g id="line2d_9">
      <path d="M 57.6 168.324097 
L 414.72 168.324097 
" clip-path="url(#pb17a6e9a07)" style="fill: none; stroke-dasharray: 1.85,0.8; stroke-dashoffset: 0; stroke: #808080; stroke-opacity: 0.7; stroke-width: 0.5"/>
     </g>
     <g id="line2d_10">
      <defs>
       <path id="mad7ddb8132" d="M 0 0 
L -3.5 0 
" style="stroke: #000000; stroke-width: 0.8"/>
      </defs>
      <g>
       <use xlink:href="#mad7ddb8132" x="57.6" y="168.324097" style="stroke: #000000; stroke-width: 0.8"/>
      </g>
     </g>
     <g id="text_9">
      <!-- 10 -->
      <g transform="translate(37.875 172.123315) scale(0.1 -0.1)">
       <defs>
        <path id="DejaVuSans-30" d="M 2034 4250 
Q 1547 4250 1301 3770 
Q 1056 3291 1056 2328 
Q 1056 1369 1301 889 
Q 1547 409 2034 409 
Q 2525 409 2770 889 
Q 3016 1369 3016 2328 
Q 3016 3291 2770 3770 
Q 2525 4250 2034 4250 
z
M 2034 4750 
Q 2819 4750 3233 4129 
Q 3647 3509 3647 2328 
Q 3647 1150 3233 529 
Q 2819 -91 2034 -91 
Q 1250 -91 836 529 
Q 422 1150 422 2328 
Q 422 3509 836 4129 
Q 1250 4750 2034 4750 
z
" transform="scale(0.015625)"/>
       </defs>
       <use xlink:href="#DejaVuSans-31"/>
       <use xlink:href="#DejaVuSans-30" transform="translate(63.623047 0)"/>
      </g>
     </g>
    </g>
    <g id="ytick_2">
     <g id="line2d_11">
      <path d="M 57.6 140.613477 
L 414.72 140.613477 
" clip-path="url(#pb17a6e9a07)" style="fill: none; stroke-dasharray: 1.85,0.8; stroke-dashoffset: 0; stroke: #808080; stroke-opacity: 0.7; stroke-width: 0.5"/>
     </g>
     <g id="line2d_12">
      <g>
       <use xlink:href="#mad7ddb8132" x="57.6" y="140.613477" style="stroke: #000000; stroke-width: 0.8"/>
      </g>
     </g>
     <g id="text_10">
      <!-- 15 -->
      <g transform="translate(37.875 144.412696) scale(0.1 -0.1)">
       <defs>
        <path id="DejaVuSans-35" d="M 691 4666 
L 3169 4666 
L 3169 4134 
L 1269 4134 
L 1269 2991 
Q 1406 3038 1543 3061 
Q 1681 3084 1819 3084 
Q 2600 3084 3056 2656 
Q 3513 2228 3513 1497 
Q 3513 744 3044 326 
Q 2575 -91 1722 -91 
Q 1428 -91 1123 -41 
Q 819 9 494 109 
L 494 744 
Q 775 591 1075 516 
Q 1375 441 1709 441 
Q 2250 441 2565 725 
Q 2881 1009 2881 1497 
Q 2881 1984 2565 2268 
Q 2250 2553 1709 2553 
Q 1456 2553 1204 2497 
Q 953 2441 691 2322 
L 691 4666 
z
" transform="scale(0.015625)"/>
       </defs>
       <use xlink:href="#DejaVuSans-31"/>
       <use xlink:href="#DejaVuSans-35" transform="translate(63.623047 0)"/>
      </g>
     </g>
    </g>
    <g id="ytick_3">
     <g id="line2d_13">
      <path d="M 57.6 112.902858 
L 414.72 112.902858 
" clip-path="url(#pb17a6e9a07)" style="fill: none; stroke-dasharray: 1.85,0.8; stroke-dashoffset: 0; stroke: #808080; stroke-opacity: 0.7; stroke-width: 0.5"/>
     </g>
     <g id="line2d_14">
      <g>
       <use xlink:href="#mad7ddb8132" x="57.6" y="112.902858" style="stroke: #000000; stroke-width: 0.8"/>
      </g>
     </g>
     <g id="text_11">
      <!-- 20 -->
      <g transform="translate(37.875 116.702076) scale(0.1 -0.1)">
       <use xlink:href="#DejaVuSans-32"/>
       <use xlink:href="#DejaVuSans-30" transform="translate(63.623047 0)"/>
      </g>
     </g>
    </g>
    <g id="ytick_4">
     <g id="line2d_15">
      <path d="M 57.6 85.192238 
L 414.72 85.192238 
" clip-path="url(#pb17a6e9a07)" style="fill: none; stroke-dasharray: 1.85,0.8; stroke-dashoffset: 0; stroke: #808080; stroke-opacity: 0.7; stroke-width: 0.5"/>
     </g>
     <g id="line2d_16">
      <g>
       <use xlink:href="#mad7ddb8132" x="57.6" y="85.192238" style="stroke: #000000; stroke-width: 0.8"/>
      </g>
     </g>
     <g id="text_12">
      <!-- 25 -->
      <g transform="translate(37.875 88.991457) scale(0.1 -0.1)">
       <use xlink:href="#DejaVuSans-32"/>
       <use xlink:href="#DejaVuSans-35" transform="translate(63.623047 0)"/>
      </g>
     </g>
    </g>
    <g id="ytick_5">
     <g id="line2d_17">
      <path d="M 57.6 57.481619 
L 414.72 57.481619 
" clip-path="url(#pb17a6e9a07)" style="fill: none; stroke-dasharray: 1.85,0.8; stroke-dashoffset: 0; stroke: #808080; stroke-opacity: 0.7; stroke-width: 0.5"/>
     </g>
     <g id="line2d_18">
      <g>
       <use xlink:href="#mad7ddb8132" x="57.6" y="57.481619" style="stroke: #000000; stroke-width: 0.8"/>
      </g>
     </g>
     <g id="text_13">
      <!-- 30 -->
      <g transform="translate(37.875 61.280837) scale(0.1 -0.1)">
       <use xlink:href="#DejaVuSans-33"/>
       <use xlink:href="#DejaVuSans-30" transform="translate(63.623047 0)"/>
      </g>
     </g>
    </g>
    <g id="text_14">
     <!-- Délka běhu [s] -->
     <g transform="translate(31.795312 152.236156) rotate(-90) scale(0.1 -0.1)">
      <defs>
       <path id="DejaVuSans-44" d="M 1259 4147 
L 1259 519 
L 2022 519 
Q 2988 519 3436 956 
Q 3884 1394 3884 2338 
Q 3884 3275 3436 3711 
Q 2988 4147 2022 4147 
L 1259 4147 
z
M 628 4666 
L 1925 4666 
Q 3281 4666 3915 4102 
Q 4550 3538 4550 2338 
Q 4550 1131 3912 565 
Q 3275 0 1925 0 
L 628 0 
L 628 4666 
z
" transform="scale(0.015625)"/>
       <path id="DejaVuSans-e9" d="M 3597 1894 
L 3597 1613 
L 953 1613 
Q 991 1019 1311 708 
Q 1631 397 2203 397 
Q 2534 397 2845 478 
Q 3156 559 3463 722 
L 3463 178 
Q 3153 47 2828 -22 
Q 2503 -91 2169 -91 
Q 1331 -91 842 396 
Q 353 884 353 1716 
Q 353 2575 817 3079 
Q 1281 3584 2069 3584 
Q 2775 3584 3186 3129 
Q 3597 2675 3597 1894 
z
M 3022 2063 
Q 3016 2534 2758 2815 
Q 2500 3097 2075 3097 
Q 1594 3097 1305 2825 
Q 1016 2553 972 2059 
L 3022 2063 
z
M 2466 5119 
L 3088 5119 
L 2070 3944 
L 1591 3944 
L 2466 5119 
z
" transform="scale(0.015625)"/>
       <path id="DejaVuSans-6c" d="M 603 4863 
L 1178 4863 
L 1178 0 
L 603 0 
L 603 4863 
z
" transform="scale(0.015625)"/>
       <path id="DejaVuSans-6b" d="M 581 4863 
L 1159 4863 
L 1159 1991 
L 2875 3500 
L 3609 3500 
L 1753 1863 
L 3688 0 
L 2938 0 
L 1159 1709 
L 1159 0 
L 581 0 
L 581 4863 
z
" transform="scale(0.015625)"/>
       <path id="DejaVuSans-20" transform="scale(0.015625)"/>
       <path id="DejaVuSans-62" d="M 3116 1747 
Q 3116 2381 2855 2742 
Q 2594 3103 2138 3103 
Q 1681 3103 1420 2742 
Q 1159 2381 1159 1747 
Q 1159 1113 1420 752 
Q 1681 391 2138 391 
Q 2594 391 2855 752 
Q 3116 1113 3116 1747 
z
M 1159 2969 
Q 1341 3281 1617 3432 
Q 1894 3584 2278 3584 
Q 2916 3584 3314 3078 
Q 3713 2572 3713 1747 
Q 3713 922 3314 415 
Q 2916 -91 2278 -91 
Q 1894 -91 1617 61 
Q 1341 213 1159 525 
L 1159 0 
L 581 0 
L 581 4863 
L 1159 4863 
L 1159 2969 
z
" transform="scale(0.015625)"/>
       <path id="DejaVuSans-11b" d="M 3597 1894 
L 3597 1613 
L 953 1613 
Q 991 1019 1311 708 
Q 1631 397 2203 397 
Q 2534 397 2845 478 
Q 3156 559 3463 722 
L 3463 178 
Q 3153 47 2828 -22 
Q 2503 -91 2169 -91 
Q 1331 -91 842 396 
Q 353 884 353 1716 
Q 353 2575 817 3079 
Q 1281 3584 2069 3584 
Q 2775 3584 3186 3129 
Q 3597 2675 3597 1894 
z
M 3022 2063 
Q 3016 2534 2758 2815 
Q 2500 3097 2075 3097 
Q 1594 3097 1305 2825 
Q 1016 2553 972 2059 
L 3022 2063 
z
M 1833 3944 
L 1067 5119 
L 1502 5119 
L 2064 4353 
L 2627 5119 
L 3061 5119 
L 2295 3944 
L 1833 3944 
z
" transform="scale(0.015625)"/>
       <path id="DejaVuSans-68" d="M 3513 2113 
L 3513 0 
L 2938 0 
L 2938 2094 
Q 2938 2591 2744 2837 
Q 2550 3084 2163 3084 
Q 1697 3084 1428 2787 
Q 1159 2491 1159 1978 
L 1159 0 
L 581 0 
L 581 4863 
L 1159 4863 
L 1159 2956 
Q 1366 3272 1645 3428 
Q 1925 3584 2291 3584 
Q 2894 3584 3203 3211 
Q 3513 2838 3513 2113 
z
" transform="scale(0.015625)"/>
       <path id="DejaVuSans-75" d="M 544 1381 
L 544 3500 
L 1119 3500 
L 1119 1403 
Q 1119 906 1312 657 
Q 1506 409 1894 409 
Q 2359 409 2629 706 
Q 2900 1003 2900 1516 
L 2900 3500 
L 3475 3500 
L 3475 0 
L 2900 0 
L 2900 538 
Q 2691 219 2414 64 
Q 2138 -91 1772 -91 
Q 1169 -91 856 284 
Q 544 659 544 1381 
z
M 1991 3584 
L 1991 3584 
z
" transform="scale(0.015625)"/>
       <path id="DejaVuSans-5b" d="M 550 4863 
L 1875 4863 
L 1875 4416 
L 1125 4416 
L 1125 -397 
L 1875 -397 
L 1875 -844 
L 550 -844 
L 550 4863 
z
" transform="scale(0.015625)"/>
       <path id="DejaVuSans-73" d="M 2834 3397 
L 2834 2853 
Q 2591 2978 2328 3040 
Q 2066 3103 1784 3103 
Q 1356 3103 1142 2972 
Q 928 2841 928 2578 
Q 928 2378 1081 2264 
Q 1234 2150 1697 2047 
L 1894 2003 
Q 2506 1872 2764 1633 
Q 3022 1394 3022 966 
Q 3022 478 2636 193 
Q 2250 -91 1575 -91 
Q 1294 -91 989 -36 
Q 684 19 347 128 
L 347 722 
Q 666 556 975 473 
Q 1284 391 1588 391 
Q 1994 391 2212 530 
Q 2431 669 2431 922 
Q 2431 1156 2273 1281 
Q 2116 1406 1581 1522 
L 1381 1569 
Q 847 1681 609 1914 
Q 372 2147 372 2553 
Q 372 3047 722 3315 
Q 1072 3584 1716 3584 
Q 2034 3584 2315 3537 
Q 2597 3491 2834 3397 
z
" transform="scale(0.015625)"/>
       <path id="DejaVuSans-5d" d="M 1947 4863 
L 1947 -844 
L 622 -844 
L 622 -397 
L 1369 -397 
L 1369 4416 
L 622 4416 
L 622 4863 
L 1947 4863 
z
" transform="scale(0.015625)"/>
      </defs>
      <use xlink:href="#DejaVuSans-44"/>
      <use xlink:href="#DejaVuSans-e9" transform="translate(77.001953 0)"/>
      <use xlink:href="#DejaVuSans-6c" transform="translate(138.525391 0)"/>
      <use xlink:href="#DejaVuSans-6b" transform="translate(166.308594 0)"/>
      <use xlink:href="#DejaVuSans-61" transform="translate(222.46875 0)"/>
      <use xlink:href="#DejaVuSans-20" transform="translate(283.748047 0)"/>
      <use xlink:href="#DejaVuSans-62" transform="translate(315.535156 0)"/>
      <use xlink:href="#DejaVuSans-11b" transform="translate(379.011719 0)"/>
      <use xlink:href="#DejaVuSans-68" transform="translate(440.535156 0)"/>
      <use xlink:href="#DejaVuSans-75" transform="translate(503.914062 0)"/>
      <use xlink:href="#DejaVuSans-20" transform="translate(567.292969 0)"/>
      <use xlink:href="#DejaVuSans-5b" transform="translate(599.080078 0)"/>
      <use xlink:href="#DejaVuSans-73" transform="translate(638.09375 0)"/>
      <use xlink:href="#DejaVuSans-5d" transform="translate(690.193359 0)"/>
     </g>
    </g>
   </g>
   <g id="patch_3">
    <path d="M 68.76 145.254647 
L 91.08 145.254647 
L 91.08 120.734696 
L 68.76 120.734696 
L 68.76 145.254647 
z
" clip-path="url(#pb17a6e9a07)" style="fill: #0000ff; stroke: #000000; stroke-linejoin: miter"/>
   </g>
   <g id="line2d_19">
    <path d="M 79.92 145.254647 
L 79.92 165.867949 
" clip-path="url(#pb17a6e9a07)" style="fill: none; stroke: #000000; stroke-linecap: square"/>
   </g>
   <g id="line2d_20">
    <path d="M 79.92 120.734696 
L 79.92 98.976071 
" clip-path="url(#pb17a6e9a07)" style="fill: none; stroke: #000000; stroke-linecap: square"/>
   </g>
   <g id="line2d_21">
    <path d="M 74.34 165.867949 
L 85.5 165.867949 
" clip-path="url(#pb17a6e9a07)" style="fill: none; stroke: #000000; stroke-linecap: square"/>
   </g>
   <g id="line2d_22">
    <path d="M 74.34 98.976071 
L 85.5 98.976071 
" clip-path="url(#pb17a6e9a07)" style="fill: none; stroke: #000000; stroke-linecap: square"/>
   </g>
   <g id="line2d_23"/>
   <g id="patch_4">
    <path d="M 113.4 105.648705 
L 135.72 105.648705 
L 135.72 76.311646 
L 113.4 76.311646 
L 113.4 105.648705 
z
" clip-path="url(#pb17a6e9a07)" style="fill: #008000; stroke: #000000; stroke-linejoin: miter"/>
   </g>
   <g id="line2d_24">
    <path d="M 124.56 105.648705 
L 124.56 130.926039 
" clip-path="url(#pb17a6e9a07)" style="fill: none; stroke: #000000; stroke-linecap: square"/>
   </g>
   <g id="line2d_25">
    <path d="M 124.56 76.311646 
L 124.56 53.856 
" clip-path="url(#pb17a6e9a07)" style="fill: none; stroke: #000000; stroke-linecap: square"/>
   </g>
   <g id="line2d_26">
    <path d="M 118.98 130.926039 
L 130.14 130.926039 
" clip-path="url(#pb17a6e9a07)" style="fill: none; stroke: #000000; stroke-linecap: square"/>
   </g>
   <g id="line2d_27">
    <path d="M 118.98 53.856 
L 130.14 53.856 
" clip-path="url(#pb17a6e9a07)" style="fill: none; stroke: #000000; stroke-linecap: square"/>
   </g>
   <g id="line2d_28"/>
   <g id="patch_5">
    <path d="M 158.04 146.207502 
L 180.36 146.207502 
L 180.36 124.663565 
L 158.04 124.663565 
L 158.04 146.207502 
z
" clip-path="url(#pb17a6e9a07)" style="fill: #ff0000; stroke: #000000; stroke-linejoin: miter"/>
   </g>
   <g id="line2d_29">
    <path d="M 169.2 146.207502 
L 169.2 159.05735 
" clip-path="url(#pb17a6e9a07)" style="fill: none; stroke: #000000; stroke-linecap: square"/>
   </g>
   <g id="line2d_30">
    <path d="M 169.2 124.663565 
L 169.2 97.745055 
" clip-path="url(#pb17a6e9a07)" style="fill: none; stroke: #000000; stroke-linecap: square"/>
   </g>
   <g id="line2d_31">
    <path d="M 163.62 159.05735 
L 174.78 159.05735 
" clip-path="url(#pb17a6e9a07)" style="fill: none; stroke: #000000; stroke-linecap: square"/>
   </g>
   <g id="line2d_32">
    <path d="M 163.62 97.745055 
L 174.78 97.745055 
" clip-path="url(#pb17a6e9a07)" style="fill: none; stroke: #000000; stroke-linecap: square"/>
   </g>
   <g id="line2d_33"/>
   <g id="patch_6">
    <path d="M 202.68 148.962644 
L 225 148.962644 
L 225 123.156464 
L 202.68 123.156464 
L 202.68 148.962644 
z
" clip-path="url(#pb17a6e9a07)" style="fill: #800080; stroke: #000000; stroke-linejoin: miter"/>
   </g>
   <g id="line2d_34">
    <path d="M 213.84 148.962644 
L 213.84 163.010159 
" clip-path="url(#pb17a6e9a07)" style="fill: none; stroke: #000000; stroke-linecap: square"/>
   </g>
   <g id="line2d_35">
    <path d="M 213.84 123.156464 
L 213.84 101.558928 
" clip-path="url(#pb17a6e9a07)" style="fill: none; stroke: #000000; stroke-linecap: square"/>
   </g>
   <g id="line2d_36">
    <path d="M 208.26 163.010159 
L 219.42 163.010159 
" clip-path="url(#pb17a6e9a07)" style="fill: none; stroke: #000000; stroke-linecap: square"/>
   </g>
   <g id="line2d_37">
    <path d="M 208.26 101.558928 
L 219.42 101.558928 
" clip-path="url(#pb17a6e9a07)" style="fill: none; stroke: #000000; stroke-linecap: square"/>
   </g>
   <g id="line2d_38"/>
   <g id="patch_7">
    <path d="M 247.32 149.929409 
L 269.64 149.929409 
L 269.64 123.905067 
L 247.32 123.905067 
L 247.32 149.929409 
z
" clip-path="url(#pb17a6e9a07)" style="fill: #a52a2a; stroke: #000000; stroke-linejoin: miter"/>
   </g>
   <g id="line2d_39">
    <path d="M 258.48 149.929409 
L 258.48 175.45671 
" clip-path="url(#pb17a6e9a07)" style="fill: none; stroke: #000000; stroke-linecap: square"/>
   </g>
   <g id="line2d_40">
    <path d="M 258.48 123.905067 
L 258.48 106.268276 
" clip-path="url(#pb17a6e9a07)" style="fill: none; stroke: #000000; stroke-linecap: square"/>
   </g>
   <g id="line2d_41">
    <path d="M 252.9 175.45671 
L 264.06 175.45671 
" clip-path="url(#pb17a6e9a07)" style="fill: none; stroke: #000000; stroke-linecap: square"/>
   </g>
   <g id="line2d_42">
    <path d="M 252.9 106.268276 
L 264.06 106.268276 
" clip-path="url(#pb17a6e9a07)" style="fill: none; stroke: #000000; stroke-linecap: square"/>
   </g>
   <g id="line2d_43"/>
   <g id="patch_8">
    <path d="M 291.96 151.058169 
L 314.28 151.058169 
L 314.28 123.960772 
L 291.96 123.960772 
L 291.96 151.058169 
z
" clip-path="url(#pb17a6e9a07)" style="fill: #ffc0cb; stroke: #000000; stroke-linejoin: miter"/>
   </g>
   <g id="line2d_44">
    <path d="M 303.12 151.058169 
L 303.12 177.696 
" clip-path="url(#pb17a6e9a07)" style="fill: none; stroke: #000000; stroke-linecap: square"/>
   </g>
   <g id="line2d_45">
    <path d="M 303.12 123.960772 
L 303.12 106.6596 
" clip-path="url(#pb17a6e9a07)" style="fill: none; stroke: #000000; stroke-linecap: square"/>
   </g>
   <g id="line2d_46">
    <path d="M 297.54 177.696 
L 308.7 177.696 
" clip-path="url(#pb17a6e9a07)" style="fill: none; stroke: #000000; stroke-linecap: square"/>
   </g>
   <g id="line2d_47">
    <path d="M 297.54 106.6596 
L 308.7 106.6596 
" clip-path="url(#pb17a6e9a07)" style="fill: none; stroke: #000000; stroke-linecap: square"/>
   </g>
   <g id="line2d_48"/>
   <g id="patch_9">
    <path d="M 336.6 143.834148 
L 358.92 143.834148 
L 358.92 119.043388 
L 336.6 119.043388 
L 336.6 143.834148 
z
" clip-path="url(#pb17a6e9a07)" style="fill: #808080; stroke: #000000; stroke-linejoin: miter"/>
   </g>
   <g id="line2d_49">
    <path d="M 347.76 143.834148 
L 347.76 163.775448 
" clip-path="url(#pb17a6e9a07)" style="fill: none; stroke: #000000; stroke-linecap: square"/>
   </g>
   <g id="line2d_50">
    <path d="M 347.76 119.043388 
L 347.76 100.263252 
" clip-path="url(#pb17a6e9a07)" style="fill: none; stroke: #000000; stroke-linecap: square"/>
   </g>
   <g id="line2d_51">
    <path d="M 342.18 163.775448 
L 353.34 163.775448 
" clip-path="url(#pb17a6e9a07)" style="fill: none; stroke: #000000; stroke-linecap: square"/>
   </g>
   <g id="line2d_52">
    <path d="M 342.18 100.263252 
L 353.34 100.263252 
" clip-path="url(#pb17a6e9a07)" style="fill: none; stroke: #000000; stroke-linecap: square"/>
   </g>
   <g id="line2d_53"/>
   <g id="patch_10">
    <path d="M 381.24 147.269917 
L 403.56 147.269917 
L 403.56 129.296754 
L 381.24 129.296754 
L 381.24 147.269917 
z
" clip-path="url(#pb17a6e9a07)" style="fill: #808000; stroke: #000000; stroke-linejoin: miter"/>
   </g>
   <g id="line2d_54">
    <path d="M 392.4 147.269917 
L 392.4 166.732986 
" clip-path="url(#pb17a6e9a07)" style="fill: none; stroke: #000000; stroke-linecap: square"/>
   </g>
   <g id="line2d_55">
    <path d="M 392.4 129.296754 
L 392.4 106.371853 
" clip-path="url(#pb17a6e9a07)" style="fill: none; stroke: #000000; stroke-linecap: square"/>
   </g>
   <g id="line2d_56">
    <path d="M 386.82 166.732986 
L 397.98 166.732986 
" clip-path="url(#pb17a6e9a07)" style="fill: none; stroke: #000000; stroke-linecap: square"/>
   </g>
   <g id="line2d_57">
    <path d="M 386.82 106.371853 
L 397.98 106.371853 
" clip-path="url(#pb17a6e9a07)" style="fill: none; stroke: #000000; stroke-linecap: square"/>
   </g>
   <g id="line2d_58">
    <defs>
     <path id="mea9fb0b3fb" d="M 0 3 
C 0.795609 3 1.55874 2.683901 2.12132 2.12132 
C 2.683901 1.55874 3 0.795609 3 0 
C 3 -0.795609 2.683901 -1.55874 2.12132 -2.12132 
C 1.55874 -2.683901 0.795609 -3 0 -3 
C -0.795609 -3 -1.55874 -2.683901 -2.12132 -2.12132 
C -2.683901 -1.55874 -3 -0.795609 -3 0 
C -3 0.795609 -2.683901 1.55874 -2.12132 2.12132 
C -1.55874 2.683901 -0.795609 3 0 3 
z
" style="stroke: #000000"/>
    </defs>
    <g clip-path="url(#pb17a6e9a07)">
     <use xlink:href="#mea9fb0b3fb" x="392.4" y="99.109803" style="fill-opacity: 0; stroke: #000000"/>
    </g>
   </g>
   <g id="line2d_59">
    <path d="M 68.76 134.237111 
L 91.08 134.237111 
" clip-path="url(#pb17a6e9a07)" style="fill: none; stroke: #ff7f0e"/>
   </g>
   <g id="line2d_60">
    <path d="M 113.4 92.891817 
L 135.72 92.891817 
" clip-path="url(#pb17a6e9a07)" style="fill: none; stroke: #ff7f0e"/>
   </g>
   <g id="line2d_61">
    <path d="M 158.04 134.142011 
L 180.36 134.142011 
" clip-path="url(#pb17a6e9a07)" style="fill: none; stroke: #ff7f0e"/>
   </g>
   <g id="line2d_62">
    <path d="M 202.68 135.461704 
L 225 135.461704 
" clip-path="url(#pb17a6e9a07)" style="fill: none; stroke: #ff7f0e"/>
   </g>
   <g id="line2d_63">
    <path d="M 247.32 137.315282 
L 269.64 137.315282 
" clip-path="url(#pb17a6e9a07)" style="fill: none; stroke: #ff7f0e"/>
   </g>
   <g id="line2d_64">
    <path d="M 291.96 138.950253 
L 314.28 138.950253 
" clip-path="url(#pb17a6e9a07)" style="fill: none; stroke: #ff7f0e"/>
   </g>
   <g id="line2d_65">
    <path d="M 336.6 132.256791 
L 358.92 132.256791 
" clip-path="url(#pb17a6e9a07)" style="fill: none; stroke: #ff7f0e"/>
   </g>
   <g id="line2d_66">
    <path d="M 381.24 138.556928 
L 403.56 138.556928 
" clip-path="url(#pb17a6e9a07)" style="fill: none; stroke: #ff7f0e"/>
   </g>
   <g id="patch_11">
    <path d="M 57.6 190.08 
L 57.6 41.472 
" style="fill: none; stroke: #000000; stroke-width: 0.8; stroke-linejoin: miter; stroke-linecap: square"/>
   </g>
   <g id="patch_12">
    <path d="M 414.72 190.08 
L 414.72 41.472 
" style="fill: none; stroke: #000000; stroke-width: 0.8; stroke-linejoin: miter; stroke-linecap: square"/>
   </g>
   <g id="patch_13">
    <path d="M 57.6 190.08 
L 414.72 190.08 
" style="fill: none; stroke: #000000; stroke-width: 0.8; stroke-linejoin: miter; stroke-linecap: square"/>
   </g>
   <g id="patch_14">
    <path d="M 57.6 41.472 
L 414.72 41.472 
" style="fill: none; stroke: #000000; stroke-width: 0.8; stroke-linejoin: miter; stroke-linecap: square"/>
   </g>
  </g>
 </g>
 <defs>
  <clipPath id="pb17a6e9a07">
   <rect x="57.6" y="41.472" width="357.12" height="148.608"/>
  </clipPath>
 </defs>
</svg>
